<svg id="Layer_1" data-name="Layer 1" xmlns="http://www.w3.org/2000/svg" viewBox="0 0 500 500"><defs><style>.cls-1{fill:#6366f1;}</style></defs><path class="cls-1" d="M424.79,234.39C501.61,193.27,498.5,84.85,478,1c-26.34,124.57-226,143.75-307.13,169-210.54,65.49-201.18,268.39-52,325C24.27,419,53.43,333,148,286,239,240.69,338.21,280.77,424.79,234.39Z"/><path class="cls-1" d="M386.07,374.27c56.8-15.33,71.28-87.11,70.59-145.38C420.36,306.8,286.14,289,228.92,293.22,80.47,304.18,55.69,439.05,145.16,499c-50.63-64.41-18.35-116.52,51-133C262.92,350.09,322.06,391.57,386.07,374.27Z"/><path class="cls-1" d="M313.6,459.51c33.5-.6,51.45-38.25,59.15-70.54-30.86,38-102.55,9.56-134.74,4C154.47,378.42,122.08,449.49,163.2,495c-19-42.61,6-66.92,46.62-66.43C248.9,429.08,275.83,460.19,313.6,459.51Z"/></svg>