<?xml version="1.0" encoding="utf-8"?>
<!-- Generator: Adobe Illustrator 25.2.0, SVG Export Plug-In . SVG Version: 6.00 Build 0)  -->
<svg version="1.1" id="Calque_1" xmlns="http://www.w3.org/2000/svg" xmlns:xlink="http://www.w3.org/1999/xlink" x="0px" y="0px"
	 viewBox="0 0 800.2 688.4" style="enable-background:new 0 0 800.2 688.4;" xml:space="preserve">
<style type="text/css">
	.st0{fill:#CADEFF;}
	.st1{fill:none;stroke:#1A2E35;stroke-linecap:round;stroke-linejoin:round;stroke-miterlimit:10;}
	.st2{fill:none;stroke:#1A2E35;stroke-miterlimit:10;}
	.st3{fill:#1A2E35;}
	.st4{fill:#BFBFBF;}
	.st5{opacity:0.2;clip-path:url(#SVGID_2_);enable-background:new    ;}
	.st6{opacity:0.2;clip-path:url(#SVGID_4_);enable-background:new    ;}
	.st7{fill:#FFFFFF;stroke:#1A2E35;stroke-linecap:round;stroke-linejoin:round;stroke-miterlimit:10;}
	.st8{fill:#3680D8;}
	.st9{opacity:0.3;clip-path:url(#SVGID_6_);fill-opacity:0.7;enable-background:new    ;}
	.st10{opacity:0.3;clip-path:url(#SVGID_8_);fill:#FFFFFF;fill-opacity:0.7;enable-background:new    ;}
	.st11{opacity:0.3;clip-path:url(#SVGID_10_);fill-opacity:0.7;enable-background:new    ;}
	.st12{opacity:0.3;clip-path:url(#SVGID_12_);fill:#FFFFFF;fill-opacity:0.7;enable-background:new    ;}
	.st13{fill:#5097FF;stroke:#1A2E35;stroke-linecap:round;stroke-linejoin:round;stroke-miterlimit:10;}
	.st14{opacity:0.3;fill:#FFFFFF;fill-opacity:0.7;enable-background:new    ;}
	.st15{opacity:0.3;clip-path:url(#SVGID_14_);fill-opacity:0.7;enable-background:new    ;}
	.st16{fill:#757575;stroke:#1A2E35;stroke-linecap:round;stroke-linejoin:round;stroke-miterlimit:10;}
	.st17{fill:none;stroke:#FFFFFF;stroke-linecap:round;stroke-linejoin:round;stroke-miterlimit:10;}
	.st18{fill:#999999;stroke:#1A2E35;stroke-linecap:round;stroke-linejoin:round;stroke-miterlimit:10;}
	.st19{fill:#FFFFFF;}
	.st20{opacity:0.4;clip-path:url(#SVGID_16_);fill:#3680D8;enable-background:new    ;}
	.st21{opacity:0.3;clip-path:url(#SVGID_18_);fill-opacity:0.7;enable-background:new    ;}
	.st22{opacity:0.3;clip-path:url(#SVGID_20_);fill:#FFFFFF;fill-opacity:0.7;enable-background:new    ;}
	.st23{opacity:0.3;clip-path:url(#SVGID_22_);fill-opacity:0.7;enable-background:new    ;}
	.st24{opacity:0.3;clip-path:url(#SVGID_24_);fill:#FFFFFF;fill-opacity:0.7;enable-background:new    ;}
	.st25{opacity:0.3;clip-path:url(#SVGID_26_);fill-opacity:0.7;enable-background:new    ;}
	.st26{opacity:0.4;clip-path:url(#SVGID_28_);fill:#3680D8;enable-background:new    ;}
	.st27{fill:#999999;}
	.st28{opacity:0.2;clip-path:url(#SVGID_30_);enable-background:new    ;}
	.st29{fill:#5AE4A7;}
	.st30{clip-path:url(#SVGID_32_);fill:#3680D8;stroke:#1A2E35;stroke-linecap:round;stroke-linejoin:round;stroke-miterlimit:10;}
	.st31{opacity:0.3;clip-path:url(#SVGID_34_);fill:#FFFFFF;fill-opacity:0.7;enable-background:new    ;}
	.st32{clip-path:url(#SVGID_36_);fill:#3680D8;stroke:#1A2E35;stroke-linecap:round;stroke-linejoin:round;stroke-miterlimit:10;}
	.st33{opacity:0.3;clip-path:url(#SVGID_38_);fill:#FFFFFF;fill-opacity:0.7;enable-background:new    ;}
	.st34{clip-path:url(#SVGID_40_);fill:#3680D8;stroke:#1A2E35;stroke-linecap:round;stroke-linejoin:round;stroke-miterlimit:10;}
</style>
<rect class="st0" width="800.2" height="688.4"/>
<g>
	<line class="st1" x1="167.5" y1="551.7" x2="632.7" y2="551.7"/>
	<g>
		<polyline class="st1" points="449.9,311.2 449.9,136.6 460.7,136.6 		"/>
		<line class="st1" x1="449.9" y1="332" x2="449.9" y2="327.4"/>
		<polyline class="st1" points="488.5,136.6 600.1,136.6 600.1,348.3 449.9,348.3 		"/>
		<line class="st1" x1="474.9" y1="136.6" x2="484.7" y2="136.6"/>
		<rect x="455.6" y="142.2" class="st1" width="138.9" height="200.4"/>
		<polyline class="st1" points="588,153 588,236.2 462,236.2 462,230.8 		"/>
		<polyline class="st1" points="462,218 462,148.1 588,148.1 		"/>
		<line class="st1" x1="462" y1="226.6" x2="462" y2="221.3"/>
		<line class="st1" x1="566.7" y1="242.4" x2="594.5" y2="242.4"/>
		<line class="st1" x1="556.9" y1="242.4" x2="560.8" y2="242.4"/>
		<line class="st1" x1="455.6" y1="242.4" x2="552.2" y2="242.4"/>
		<polyline class="st1" points="518,236.2 518,233.3 529.6,233.3 529.6,235 525,235 525,236.2 		"/>
		<path class="st1" d="M455.8,317.4c0,0,1.9,1.5,3.3,10.3c0,0,2.3-14.1,5.2-14.3c2.8-0.2,2.3,9.2,2.3,9.2s0.5-4.6,2.7-4.4
			s0,9.6,0,9.6s2.7-7.3,5.2-7.2s-1.7,13.2-1.7,13.2s6.5-4.7,9.1-2.4c2.6,2.3-1.5,8.1-1.5,8.1s9.3-2,10.7,3.4"/>
		<path class="st1" d="M491,337.6c0,0,4-2.6,7.2-1.4c0,0-2-3.1,0-5s4.6,5,4.6,5s0.3-11.5,4.3-10.9s0,10.9,0,10.9s7.2-6.4,8.9-4.2
			c1.7,2.2-1.2,5.6-1.2,5.6s4.3-1.4,7.5,1.8c0,0,4.8-4.9,10.2-5.6c0,0-3.6-10.4-1.8-12.5c1.7-2.1,4.9,9,4.9,9s1.4-7.2,5.9-7.8
			c0,0-3.8-2-2.6-5.1c1.1-3.1,6.3,0.7,6.3,0.7s-2.1-5.4,1.2-6.9c3.4-1.5,4.8,4.6,4.8,4.6s0.9-6.3,4.9-6c3.9,0.3,2.7,7.6,2.7,7.6
			s3.7-5.8,5.7-5.2c4,1.2,2.8,10.4,2.8,10.4s5.6-3.9,7-2.1c1.6,1.9-5.8,6.9-5.8,6.9s5.5,0.6,9,3.8"/>
		<path class="st1" d="M594.5,319.5c0,0-0.6-5.8-6.5-6.1c-5.8-0.3,1.6,12.8,1.6,12.8s-4.8-4-6.5-2.7c-1.7,1.2,4.9,8,4.9,8
			s-3.2-2.9-6.6-2c-3.4,0.9,1.9,10.3,1.9,10.3s-7-1.8-14.8,1.7"/>
	</g>
	<g>
		<g>
			<line class="st1" x1="396.2" y1="499.7" x2="396.2" y2="551.4"/>
			<line class="st1" x1="396.2" y1="482.8" x2="396.2" y2="493.9"/>
			<polyline class="st1" points="178.7,551.7 178.7,455.5 396.2,455.5 396.2,476.6 			"/>
			<polyline class="st1" points="210.4,466 191.6,466 191.6,542.9 			"/>
			<polyline class="st1" points="383.4,551.4 383.4,466 221.4,466 			"/>
			<line class="st1" x1="374.3" y1="445.5" x2="368.3" y2="445.5"/>
			<polyline class="st1" points="359.7,445.5 173.3,445.5 173.3,455.4 401.6,455.4 401.6,445.5 378.1,445.5 			"/>
		</g>
		<g>
			<g>
				<path class="st1" d="M186.2,382.1c0,0,17.9,1.4,18.6,14.6C204.8,396.7,186.7,405,186.2,382.1z"/>
				<path class="st1" d="M221.5,385.3c0,0,10-13.5,26.1-6.6C247.6,378.8,237.8,395.1,221.5,385.3z"/>
				<path class="st1" d="M246.3,342.7c0,0,2.9,26-20.8,18.8C225.5,361.5,233,342.5,246.3,342.7z"/>
				<path class="st1" d="M217.3,328.3c0,0,18.7,10.1,4.9,25.4C222.2,353.7,209.1,342.7,217.3,328.3z"/>
				<path class="st1" d="M194.3,351.5c0,0,20.3-2,20.3,16.8C214.6,368.2,194.3,369,194.3,351.5z"/>
				<path class="st1" d="M209.5,407.3c-0.3-6.3-0.3-14.4,3.6-23c8.9-19.8,11.9-36.5,7.3-48.2"/>
				<path class="st1" d="M200.9,356.5c0,0,12.2,4.8,16.3,17.4"/>
				<path class="st1" d="M239.9,353.1c0,0-7,9.6-19,8.6"/>
				<path class="st1" d="M239.9,381.5c0,0-19.5,5.6-27.2,3.8"/>
				<path class="st1" d="M192,388c0,0,8.7,9.6,17.5,9.4"/>
			</g>
			<path class="st2" d="M232.7,407.3h-42.4c-0.6,0-1,0.5-1,1v3.2c0,0.6,0.5,1,1,1h1.2l3.8,32.9h32.3l3.8-32.9h1.2c0.6,0,1-0.5,1-1
				v-3.2C233.7,407.7,233.2,407.3,232.7,407.3z"/>
			<line class="st1" x1="194.3" y1="412.5" x2="218.9" y2="412.5"/>
			<line class="st1" x1="223.6" y1="412.5" x2="227.3" y2="412.5"/>
		</g>
	</g>
	<g>
		<path class="st3" d="M261.7,551.7c0,0-2-7.7,0.3-10.6c4.3-5.2-0.5-9.5,3.8-11.3l1.8,2.1c0.3-2.1-0.6-8.5,7.3-9.4
			c9.6-1,9.8,6,10.3,8.3l-0.2-3.2c4.1,0,2,4.1,8.2,10.8c4.7,5.1,4.7,11.6,4.5,13.4L261.7,551.7L261.7,551.7z"/>
		<path class="st3" d="M334.8,551.7c-3.9-1.7-0.3-16.3-0.3-16.3s-5.2-3.5,0-7.1c0,0,5.8,5.6,14.7,2.4c0,0,1-9.7,7.1-8.5
			c0,0,1.6,6.2,5.1,9.7c9.7,9.5,22.2,10.6,24.3,15.2c0.6,1.4-0.1,4.5-0.1,4.5L334.8,551.7L334.8,551.7z"/>
		<g>
			<g>
				<g>
					<path id="XMLID_591_" class="st4" d="M318.3,319.7l4.8,10.1c0,0,19.6,40.6,31.7,87c0.3,1.1,6.5,23.1,1.5,77.9l2.8,9.6
						l-3.1,15.8c0,0,4.7,6.8,4.5,9c0,0-11.5,2.2-15.4,4.2c-3,1.6-12,10.5-12,10.5c-2.5-0.5-2.8-10.8-2.8-10.8s-5.3-91.5-6.9-95.4
						c-1.5-3.9-10.9-20.9-25.5-59.8c0,0-0.3,54.3-4.2,68.1c-3.5,12.2,0.6,46.4,0.6,46.4l-2.3,38.1c0,0,8.2,8.5,1.5,10.8
						c0,0-4.4-8.6-17.1-10.5c-6.4-1-14.5,10.5-14.5,10.5c-2.8-0.9,1.2-15.3,1.2-15.3c-9-67.8-2.4-55.5-4.1-88.7
						c-1.2-21.3-7.2-112.2-0.1-119.6L318.3,319.7z"/>
				</g>
				<g>
					<defs>
						<path id="SVGID_1_" d="M318.3,319.7l4.8,10.1c0,0,19.6,40.6,31.7,87c0.3,1.1,6.5,23.1,1.5,77.9l2.8,9.6l-3.1,15.8
							c0,0,4.7,6.8,4.5,9c0,0-11.5,2.2-15.4,4.2c-3,1.6-12,10.5-12,10.5c-2.5-0.5-2.8-10.8-2.8-10.8s-5.3-91.5-6.9-95.4
							c-1.5-3.9-10.9-20.9-25.5-59.8c0,0-0.3,54.3-4.2,68.1c-3.5,12.2,0.6,46.4,0.6,46.4l-2.3,38.1c0,0,8.2,8.5,1.5,10.8
							c0,0-4.4-8.6-17.1-10.5c-6.4-1-14.5,10.5-14.5,10.5c-2.8-0.9,1.2-15.3,1.2-15.3c-9-67.8-2.4-55.5-4.1-88.7
							c-1.2-21.3-7.2-112.2-0.1-119.6L318.3,319.7z"/>
					</defs>
					<clipPath id="SVGID_2_">
						<use xlink:href="#SVGID_1_"  style="overflow:visible;"/>
					</clipPath>
					<path class="st5" d="M255.6,351c31.7,2.5,59.2-7.9,71.1-13.3c-2.3-5.1-3.7-8-3.7-8l-4.8-10.1l-59.3-2.1
						C256.5,320.2,255.6,333.7,255.6,351z"/>
				</g>
				<g>
					<defs>
						<path id="SVGID_3_" d="M318.3,319.7l4.8,10.1c0,0,19.6,40.6,31.7,87c0.3,1.1,6.5,23.1,1.5,77.9l2.8,9.6l-3.1,15.8
							c0,0,4.7,6.8,4.5,9c0,0-11.5,2.2-15.4,4.2c-3,1.6-12,10.5-12,10.5c-2.5-0.5-2.8-10.8-2.8-10.8s-5.3-91.5-6.9-95.4
							c-1.5-3.9-10.9-20.9-25.5-59.8c0,0-0.3,54.3-4.2,68.1c-3.5,12.2,0.6,46.4,0.6,46.4l-2.3,38.1c0,0,8.2,8.5,1.5,10.8
							c0,0-4.4-8.6-17.1-10.5c-6.4-1-14.5,10.5-14.5,10.5c-2.8-0.9,1.2-15.3,1.2-15.3c-9-67.8-2.4-55.5-4.1-88.7
							c-1.2-21.3-7.2-112.2-0.1-119.6L318.3,319.7z"/>
					</defs>
					<clipPath id="SVGID_4_">
						<use xlink:href="#SVGID_3_"  style="overflow:visible;"/>
					</clipPath>
					<path class="st6" d="M298.3,378.4c14.4,38.4,23.7,55.2,25.2,59.1c0.9,2.3,3,33.3,4.6,59.4c1.9-23.7,3.9-48.7,4-53.7
						c0.4-9.8-6.7-23.2-7.8-26.6c-1.1-3.5,1.3-7.2,1.3-7.2l-12.7-16c0.4-5.4-6.3-29.2-6.3-29.2C302.8,368,299.3,376.1,298.3,378.4z"
						/>
				</g>
				<g>
					<path id="XMLID_2_" class="st1" d="M318.3,319.7l4.8,10.1c0,0,19.6,40.6,31.7,87c0.3,1.1,6.5,23.1,1.5,77.9l2.8,9.6l-3.1,15.8
						c0,0,4.7,6.8,4.5,9c0,0-11.5,2.2-15.4,4.2c-3,1.6-12,10.5-12,10.5c-2.5-0.5-2.8-10.8-2.8-10.8s-5.3-91.5-6.9-95.4
						c-1.5-3.9-10.9-20.9-25.5-59.8c0,0-0.3,54.3-4.2,68.1c-3.5,12.2,0.6,46.4,0.6,46.4l-2.3,38.1c0,0,8.2,8.5,1.5,10.8
						c0,0-4.4-8.6-17.1-10.5c-6.4-1-14.5,10.5-14.5,10.5c-2.8-0.9,1.2-15.3,1.2-15.3c-9-67.8-2.4-55.5-4.1-88.7
						c-1.2-21.3-7.2-112.2-0.1-119.6L318.3,319.7z"/>
				</g>
			</g>
			<path class="st1" d="M298,377.7c0,0,7.3-14,13.4-17.9"/>
			<path class="st1" d="M314.2,355.3c0,0-22,6.7-29.7,8"/>
			<path class="st1" d="M302.9,332.8c1,18.3,7.4,21.5,1.2,25.5c0,0,0.2,8.6-2.9,14"/>
			<path class="st1" d="M264.3,325.8c0,0,2.6,28.2-6.1,33.5"/>
			<path class="st1" d="M258.3,334.9c0,0-0.7,18.8,0,33.9c0,0,2.2,63.9,4.3,71.9c2.2,8-3.3,20.1-2.9,54.8"/>
			<path class="st1" d="M279.1,522.7c-2.1-0.4-4.2-0.2-6.1,0.8"/>
			<path class="st1" d="M292.1,530.3c-2.7-2.6-5.9-4.9-9.3-6.4"/>
			<path class="st1" d="M288.5,382.2c-4.9,5.5-12.6,15.7-20.5,16.6"/>
			<path class="st1" d="M296,373.3c-1.5,1.9-3,3.7-4.6,5.6"/>
			<path class="st1" d="M289,437.2c0,0-11.1,15.1-17.1,15.9"/>
			<path class="st1" d="M302.1,375c0,0,19.7,54.9,26.5,60.3c0,0,0.8,40.3,1,54.4s3.5,32.8,3.5,32.8"/>
			<path class="st1" d="M354.1,522.1c0,0-7.6,2.6-11.3,4.3c-3.7,1.7-5,5.4-5,5.4"/>
			<path class="st1" d="M334.9,415.5c-10.6-6.6-24.5-14.9-30.1-26.6"/>
			<path class="st1" d="M344.1,421c-2-1.1-4-2.3-5.9-3.4"/>
			<path class="st1" d="M310.8,340.2c-5.7-0.1-11.9-0.8-16.8-4"/>
			<path class="st1" d="M319.8,339.7c-1.6,0.2-3.3,0.4-4.9,0.5"/>
		</g>
		<path class="st3" d="M330.4,213.7c-4.3-6.6-26.5-8.3-40.7-8.3s-31.4-2.4-39.2,13.6c-5.9,12.2,7.7,76.9,7.7,76.9l-3.4,27.9
			c25.7,8.1,69.8,6.3,69.8,6.3l-5.9-25.3C318.7,305,334.7,220.3,330.4,213.7z"/>
		<path class="st7" d="M281.3,189.2c0,0,1.9,15.2-3.9,18.5c0,0,2.9,11.2,13,11.9c10.1,0.7,14.7-10.2,14.7-10.2L281.3,189.2z"/>
		<g>
			<g>
				<g>
					<path id="XMLID_590_" class="st8" d="M365.2,168.3l-30.3,2.8l-1.7-18.9c-0.1-1,0.7-2,1.7-2l26.6-2.5c1-0.1,2,0.7,2,1.7
						L365.2,168.3z"/>
				</g>
				<g>
					<defs>
						<path id="SVGID_5_" d="M365.2,168.3l-30.3,2.8l-1.7-18.9c-0.1-1,0.7-2,1.7-2l26.6-2.5c1-0.1,2,0.7,2,1.7L365.2,168.3z"/>
					</defs>
					<clipPath id="SVGID_6_">
						<use xlink:href="#SVGID_5_"  style="overflow:visible;"/>
					</clipPath>
					<path class="st9" d="M365.2,168.3l-30.3,2.8l-1.7-18.9c-0.1-1,0.7-2,1.7-2l26.6-2.5c1-0.1,2,0.7,2,1.7L365.2,168.3z"/>
				</g>
				<g>
					<defs>
						<path id="SVGID_7_" d="M366.2,167.6l-29.9,5.6l-3.4-18.7c-0.2-1,0.5-2.1,1.5-2.1l26.3-4.9c1-0.2,2.1,0.5,2.1,1.5L366.2,167.6z
							"/>
					</defs>
					<clipPath id="SVGID_8_">
						<use xlink:href="#SVGID_7_"  style="overflow:visible;"/>
					</clipPath>
					
						<rect x="355.1" y="149.9" transform="matrix(0.9958 -9.188186e-02 9.188186e-02 0.9958 -12.9401 33.6383)" class="st10" width="7.5" height="15"/>
				</g>
				<g>
					<path id="XMLID_6_" class="st1" d="M365.2,168.3l-30.3,2.8l-1.7-18.9c-0.1-1,0.7-2,1.7-2l26.6-2.5c1-0.1,2,0.7,2,1.7
						L365.2,168.3z"/>
				</g>
			</g>
			<g>
				<g>
					<path id="XMLID_589_" class="st8" d="M410.2,164.1l-30.4,2.8L378,148c-0.1-1,0.7-2,1.7-2l26.6-2.5c1-0.1,2,0.7,2,1.7
						L410.2,164.1z"/>
				</g>
				<g>
					<defs>
						<path id="SVGID_9_" d="M410.2,164.1l-30.4,2.8L378,148c-0.1-1,0.7-2,1.7-2l26.6-2.5c1-0.1,2,0.7,2,1.7L410.2,164.1z"/>
					</defs>
					<clipPath id="SVGID_10_">
						<use xlink:href="#SVGID_9_"  style="overflow:visible;"/>
					</clipPath>
					<path class="st11" d="M410.2,164.1l-30.4,2.8L378,148c-0.1-1,0.7-2,1.7-2l26.6-2.5c1-0.1,2,0.7,2,1.7L410.2,164.1z"/>
				</g>
				<g>
					<defs>
						<path id="SVGID_11_" d="M411.2,163.5l-30,5.6l-3.5-18.7c-0.2-1,0.5-2.1,1.5-2.1l26.3-4.9c1-0.2,2.1,0.5,2.1,1.5L411.2,163.5z"
							/>
					</defs>
					<clipPath id="SVGID_12_">
						<use xlink:href="#SVGID_11_"  style="overflow:visible;"/>
					</clipPath>
					
						<rect x="402.4" y="145.7" transform="matrix(0.9958 -9.188619e-02 9.188619e-02 0.9958 -12.3617 37.831)" class="st12" width="4.5" height="15"/>
				</g>
				<g>
					<path id="XMLID_7_" class="st1" d="M410.2,164.1l-30.4,2.8L378,148c-0.1-1,0.7-2,1.7-2l26.6-2.5c1-0.1,2,0.7,2,1.7L410.2,164.1
						z"/>
				</g>
			</g>
			<path class="st13" d="M400.7,165l-30.4,2.8l-1.7-18.9c-0.1-1,0.7-2,1.7-2l26.6-2.5c1-0.1,2,0.7,2,1.7L400.7,165z"/>
			<path class="st13" d="M445.6,160.8l-30.4,2.8l-1.7-18.9c-0.1-1,0.7-2,1.7-2l26.6-2.5c1-0.1,2,0.7,2,1.7L445.6,160.8z"/>
			
				<rect x="390.5" y="146.6" transform="matrix(0.9958 -9.189738e-02 9.189738e-02 0.9958 -12.4894 36.8832)" class="st14" width="7.5" height="15"/>
			
				<rect x="434.9" y="142.5" transform="matrix(0.9958 -9.188186e-02 9.188186e-02 0.9958 -11.9231 40.9392)" class="st14" width="7.5" height="15"/>
			<g>
				<g>
					<path id="XMLID_588_" class="st8" d="M458.5,155.3l7.9,85.3l-137.5,12.7L321,168c-0.3-3,1.9-5.6,4.9-5.9l126.7-11.7
						C455.6,150.1,458.2,152.3,458.5,155.3z"/>
				</g>
				<g>
					<defs>
						<path id="SVGID_13_" d="M458.5,155.3l7.9,85.3l-137.5,12.7L321,168c-0.3-3,1.9-5.6,4.9-5.9l126.7-11.7
							C455.6,150.1,458.2,152.3,458.5,155.3z"/>
					</defs>
					<clipPath id="SVGID_14_">
						<use xlink:href="#SVGID_13_"  style="overflow:visible;"/>
					</clipPath>
					<path class="st15" d="M458.5,155.3l7.9,85.3l-137.5,12.7L321,168c-0.3-3,1.9-5.6,4.9-5.9l126.7-11.7
						C455.6,150.1,458.2,152.3,458.5,155.3z"/>
				</g>
				<g>
					<path id="XMLID_8_" class="st1" d="M458.5,155.3l7.9,85.3l-137.5,12.7L321,168c-0.3-3,1.9-5.6,4.9-5.9l126.7-11.7
						C455.6,150.1,458.2,152.3,458.5,155.3z"/>
				</g>
			</g>
			<path class="st13" d="M458.5,155.3l7.9,85.3l-102,9.4l-7.9-85.3c-0.3-3,1.9-5.6,4.9-5.9l91.2-8.4
				C455.6,150.1,458.2,152.3,458.5,155.3z"/>
			<path class="st14" d="M451.9,159l-87.2,8c-1.2,0.1-2.3-0.8-2.4-2l0,0c-0.1-1.2,0.8-2.3,2-2.4l87.2-8c1.2-0.1,2.3,0.8,2.4,2l0,0
				C454,157.8,453.1,158.9,451.9,159z"/>
		</g>
		<g>
			<path class="st3" d="M298.7,159c0,0-20.1-4-22.4,8.9c-2.3,12.9,5.1,18.5,5.1,18.5L298.7,159z"/>
			<path class="st7" d="M281.5,193.5c-2.1-5.8-2.8-12.6-1-20c2-8.3,11.9-19.7,26.9-9.3c7.7,5.4,8.2,17,5.8,27.6
				c-0.6,2.5-0.1,5-1,7.4c-3,8.2-8.4,14.5-11.4,14.6c-5,0.2-14.9-5.7-14.4-11"/>
			<path class="st1" d="M301.5,189.7c0,0-4-2.9-7.8-0.5"/>
			<path class="st1" d="M309,189.2c0,0,3-2.8,5-2.4"/>
			<path class="st3" d="M295.8,194.2c0,0.7,0.4,1.3,0.8,1.3c0.5,0,0.8-0.6,0.8-1.3c0-0.7-0.4-1.3-0.8-1.3
				C296.2,192.9,295.8,193.4,295.8,194.2z"/>
			<ellipse class="st3" cx="309" cy="193.4" rx="0.8" ry="1.3"/>
			<path class="st1" d="M307.3,192c-1.5,1.9,0.6,9.3,0,9.8s-4.4-1-4.4-1s-0.9-1.1,1-1.7"/>
			<path class="st1" d="M303.9,205.5c0,0-5.1,0-6.4-1.8"/>
			<path class="st16" d="M291.8,178l-0.4,6.1c0,0-4.3,2.2-5.4,4.5s-0.7,4.8-0.7,4.8s-2.6-4.6-4.1-4.2c-0.5,0.1-0.5,2.1-0.5,2.1
				s-5.9-13.2-0.6-20.2C285.5,164,291.8,178,291.8,178z"/>
			<path class="st7" d="M283.5,192.1c0,0-1.2-4.4-5.2-5.6s-1.3,9.5,2.1,10.9c3.4,1.4,4.3,2.4,4.5,1.1"/>
			<path class="st3" d="M278,177.3c-0.3-0.4-1.8-11.8,5.7-17c7.5-5.2,20.3-4.6,28.4,2.5c8.1,7.1,5.8,19.4,0,23.6v-5.1
				c0,0-2.7,5.2-10.7,5.6l2.4-3.8c0,0-3.9,2.3-10.9,2.2c0,0,3.3-2.6,2.8-4.9C295.8,180.3,284.8,186.5,278,177.3z"/>
		</g>
		<path class="st7" d="M279.4,218.4c-5.6,0.7-13.5,7.9-8.3,20.8c3.3,8.2,30.3,3.3,30.3,3.3c10-4.1,24.7-19,35.4-25.9
			c0,0-2.3-14.2-4.9-12.2c-12.1,9.3-22.1,9.9-39.1,18.1C292.9,222.5,282.9,218,279.4,218.4z"/>
		<path class="st7" d="M291.8,234.2c-0.2,5.3,2,6.3,5.7,7.5"/>
		<path class="st7" d="M331.1,205.5c0.2-0.8,4.7-8.7,6-10.7s6.9-3.8,9.1-5s2.3-3,3.6-1.7c1.3,1.3,0,4.3-6.6,7.5c0,0,5.2,0.3,7,0
			s3.3-1.9,4.1-0.7c0.8,1.1,0.9,3.1-3,4.3s-5.8,1.1-5.8,1.1s5,1.2,5.6,1.6c0.6,0.4,1.6,1.5,2.5,1.7s2,1.2,0.2,2.4
			c-1.7,1.2-4,0.1-4,0.1s4.5,2.2,3.1,3.6c-1.4,1.4-5.9,1.1-5.9,1.1s-6.7,8.1-12.4,6.4"/>
		<path class="st1" d="M339.2,194.8c0,0,1.3,0.2,1.6,1.6c0.4,1.4,1.5,1.5,2.2,3.1c0.7,1.6,0.5,4,1.2,4.8s0,4.3,0,4.3"/>
		<path class="st17" d="M280.6,217.4c-2.9-3.7-9.4-2-9.4-2"/>
		<path class="st17" d="M267.6,208.6c0,0,6.7,1,8.7,6.6"/>
		<path class="st17" d="M279.4,244c0,0-6.5,5.1-16.5-2.2"/>
		<path class="st17" d="M271.2,245.5c0,0-3.3,4.6-11.4,4.5"/>
		<path class="st17" d="M312.8,303.3c0,0-17.1,13.7-34.5,11.9"/>
		<path class="st17" d="M266.5,273.3c0,0,26.6,19.5,46.3,20.8"/>
	</g>
	<g>
		<path class="st3" d="M493.5,276l-4.8,25.8L450,325.3l5.3,9.8c0,0,44.8-13.7,45.8-16.8c1.1-3.2,11.4-37,11.4-37L493.5,276z"/>
		<path class="st18" d="M510.4,232.3l-2.6,31.3l-1.4,16.4c-7.5,3.6-14.8-1.8-15.2-2.2l0,0C493.3,271.9,495.7,238.3,510.4,232.3z"/>
		<path class="st3" d="M507.8,263.6l-1.4,16.4c-7.5,3.6-14.8-1.8-15.2-2.2c0.3,0.1,4.2,1.8,6.8,0c0,0-2.2-2.5-2.3-3.1
			c-0.2-0.6,2.3-0.8,2.3-0.8s-1.7-13.3,2.8-18.9C502.6,252.8,505.3,257.3,507.8,263.6z"/>
		<g>
			<path class="st13" d="M537.3,522.1l1.2,3.5c0,0-2.9,4.8-6,8.5c0,0-1.2-0.4-3.1,1.3c-1.9,1.7-2.1,4.5-2.1,4.5s-9.1,10.9-20.6,11
				c-11.5,0.2-8-5.6-8-5.6L537.3,522.1z"/>
			<g>
				<g>
					<path id="XMLID_587_" class="st19" d="M526.5,494.4c0,0-15.4-5.7-18.5,5.7c0,0,2.8,12.5,1.1,19.4c-1.7,6.8-9.9,19.9-10.5,22.4
						c-1,4.9-0.2,5.2-0.2,5.2s6,3.5,14.2-0.2c8.1-3.7,22.2-19.8,24.4-23.1c2.2-3.3-6.9-16.4-6.9-16.4L526.5,494.4z"/>
				</g>
				<g>
					<defs>
						<path id="SVGID_15_" d="M526.5,494.4c0,0-15.4-5.7-18.5,5.7c0,0,2.8,12.5,1.1,19.4c-1.7,6.8-9.9,19.9-10.5,22.4
							c-1,4.9-0.2,5.2-0.2,5.2s6,3.5,14.2-0.2c8.1-3.7,22.2-19.8,24.4-23.1c2.2-3.3-6.9-16.4-6.9-16.4L526.5,494.4z"/>
					</defs>
					<clipPath id="SVGID_16_">
						<use xlink:href="#SVGID_15_"  style="overflow:visible;"/>
					</clipPath>
					<path class="st20" d="M526.5,494.4c0,0-15.4-5.7-18.5,5.7c0,0,2.8,12.5,1.1,19.4c-1.7,6.8-9.9,19.9-10.5,22.4
						c-1,4.9-0.2,5.2-0.2,5.2s6,3.5,14.2-0.2c8.1-3.7,22.2-19.8,24.4-23.1c2.2-3.3-6.9-16.4-6.9-16.4L526.5,494.4z"/>
				</g>
				<g>
					<path id="XMLID_9_" class="st1" d="M526.5,494.4c0,0-15.4-5.7-18.5,5.7c0,0,2.8,12.5,1.1,19.4c-1.7,6.8-9.9,19.9-10.5,22.4
						c-1,4.9-0.2,5.2-0.2,5.2s6,3.5,14.2-0.2c8.1-3.7,22.2-19.8,24.4-23.1c2.2-3.3-6.9-16.4-6.9-16.4L526.5,494.4z"/>
				</g>
			</g>
			<path class="st1" d="M518.6,510.5c0,0,2.6,11.4-3.9,22.3"/>
			<path class="st13" d="M514.7,535.7c0,0-1.6,4.7-6.6,6.1c-5,1.4-9.5,0-9.5,0l3.7-7.5C502.4,534.3,507.7,536.8,514.7,535.7z"/>
			<path class="st1" d="M516.9,531.2c0,0-8.1,0.5-12.3-1.2"/>
			<path class="st1" d="M518.4,526.8c0,0-7.5,1.2-11.8-1.2"/>
			<path class="st1" d="M519.7,521.8c0,0-6.6,1-10.9-1.1"/>
			<path class="st1" d="M520.4,516.2c0,0-7.4,2.3-10.8,0"/>
			<path class="st13" d="M521.5,502.4l1.3,8.1c0,0-9.7,6.4-16.2-1.6v-8.4C506.7,500.4,509.1,506.1,521.5,502.4z"/>
		</g>
		<path class="st3" d="M513.1,320.9c-9.9,31.2-40.5,81.4-37.4,94.2c1.7,7,11.8,46.7,19.7,64.1c3,6.7,9.5,11.1,9.5,11.1l4.7,10.1
			c11.4,5,15.5-5.1,15.5-5.1l-2.3-11.4c6.1-11.1,3.5-11.1-4.4-68.8c-0.9-6.8,14.8-27.8,14.8-27.8l8.1,52.9l1.3,43.3l4.2,13.4
			c0,0,1,12.6,0.9,13.3h18.8l2.1-13.8c0,0,8.7-8.2,8.7-17.7s-1.9-57.9,0-71.9c1.9-14.1-4.4-79.8-4.4-79.8L513.1,320.9z"/>
		<g>
			<g>
				<g>
					<path id="XMLID_585_" class="st8" d="M411.9,314.1l-30.4-2.6l1.6-18.9c0.1-1,1-1.8,2-1.7l26.7,2.3c1,0.1,1.8,1,1.7,2
						L411.9,314.1z"/>
				</g>
				<g>
					<defs>
						<path id="SVGID_17_" d="M411.9,314.1l-30.4-2.6l1.6-18.9c0.1-1,1-1.8,2-1.7l26.7,2.3c1,0.1,1.8,1,1.7,2L411.9,314.1z"/>
					</defs>
					<clipPath id="SVGID_18_">
						<use xlink:href="#SVGID_17_"  style="overflow:visible;"/>
					</clipPath>
					<path class="st21" d="M411.9,314.1l-30.4-2.6l1.6-18.9c0.1-1,1-1.8,2-1.7l26.7,2.3c1,0.1,1.8,1,1.7,2L411.9,314.1z"/>
				</g>
				<g>
					<defs>
						<path id="SVGID_19_" d="M410.9,314.4l-30.1-5.2l3.2-18.7c0.2-1,1.2-1.7,2.1-1.5l26.4,4.6c1,0.2,1.7,1.2,1.5,2.1L410.9,314.4z"
							/>
					</defs>
					<clipPath id="SVGID_20_">
						<use xlink:href="#SVGID_19_"  style="overflow:visible;"/>
					</clipPath>
					
						<rect x="399.9" y="298.5" transform="matrix(8.567779e-02 -0.9963 0.9963 8.567779e-02 71.3952 682.298)" class="st22" width="15" height="7.5"/>
				</g>
				<g>
					<path id="XMLID_10_" class="st1" d="M411.9,314.1l-30.4-2.6l1.6-18.9c0.1-1,1-1.8,2-1.7l26.7,2.3c1,0.1,1.8,1,1.7,2
						L411.9,314.1z"/>
				</g>
			</g>
			<g>
				<g>
					<path id="XMLID_584_" class="st8" d="M456.8,318l-30.4-2.6l1.6-18.9c0.1-1,1-1.8,2-1.7l26.7,2.3c1,0.1,1.8,1,1.7,2L456.8,318z"
						/>
				</g>
				<g>
					<defs>
						<path id="SVGID_21_" d="M456.8,318l-30.4-2.6l1.6-18.9c0.1-1,1-1.8,2-1.7l26.7,2.3c1,0.1,1.8,1,1.7,2L456.8,318z"/>
					</defs>
					<clipPath id="SVGID_22_">
						<use xlink:href="#SVGID_21_"  style="overflow:visible;"/>
					</clipPath>
					<path class="st23" d="M456.8,318l-30.4-2.6l1.6-18.9c0.1-1,1-1.8,2-1.7l26.7,2.3c1,0.1,1.8,1,1.7,2L456.8,318z"/>
				</g>
				<g>
					<defs>
						<path id="SVGID_23_" d="M455.8,318.2l-30.1-5.2l3.2-18.7c0.2-1,1.2-1.7,2.1-1.5l26.4,4.6c1,0.2,1.7,1.2,1.5,2.1L455.8,318.2z"
							/>
					</defs>
					<clipPath id="SVGID_24_">
						<use xlink:href="#SVGID_23_"  style="overflow:visible;"/>
					</clipPath>
					
						<rect x="445.8" y="304" transform="matrix(8.566779e-02 -0.9963 0.9963 8.566779e-02 109.3784 731.6823)" class="st24" width="15" height="4.5"/>
				</g>
				<g>
					<path id="XMLID_11_" class="st1" d="M456.8,318l-30.4-2.6l1.6-18.9c0.1-1,1-1.8,2-1.7l26.7,2.3c1,0.1,1.8,1,1.7,2L456.8,318z"
						/>
				</g>
			</g>
			<path class="st13" d="M447.3,317.2l-30.4-2.6l1.6-18.9c0.1-1,1-1.8,2-1.7l26.7,2.3c1,0.1,1.8,1,1.7,2L447.3,317.2z"/>
			<path class="st13" d="M492.3,321l-30.4-2.6l1.6-18.9c0.1-1,1-1.8,2-1.7l26.7,2.3c1,0.1,1.8,1,1.7,2L492.3,321z"/>
			
				<rect x="435.4" y="301.6" transform="matrix(8.566222e-02 -0.9963 0.9963 8.566222e-02 100.7645 720.5031)" class="st14" width="15" height="7.5"/>
			
				<rect x="479.8" y="305.4" transform="matrix(8.567779e-02 -0.9963 0.9963 8.567779e-02 137.5724 768.2076)" class="st14" width="15" height="7.5"/>
			<g>
				<g>
					<path id="XMLID_583_" class="st8" d="M506,317.9l-7.3,85.4l-137.5-11.8l7.3-85.4c0.3-3,2.9-5.2,5.8-4.9L501,312
						C504,312.3,506.2,314.9,506,317.9z"/>
				</g>
				<g>
					<defs>
						<path id="SVGID_25_" d="M506,317.9l-7.3,85.4l-137.5-11.8l7.3-85.4c0.3-3,2.9-5.2,5.8-4.9L501,312
							C504,312.3,506.2,314.9,506,317.9z"/>
					</defs>
					<clipPath id="SVGID_26_">
						<use xlink:href="#SVGID_25_"  style="overflow:visible;"/>
					</clipPath>
					<path class="st25" d="M506,317.9l-7.3,85.4l-137.5-11.8l7.3-85.4c0.3-3,2.9-5.2,5.8-4.9L501,312
						C504,312.3,506.2,314.9,506,317.9z"/>
				</g>
				<g>
					<path id="XMLID_12_" class="st1" d="M506,317.9l-7.3,85.4l-137.5-11.8l7.3-85.4c0.3-3,2.9-5.2,5.8-4.9L501,312
						C504,312.3,506.2,314.9,506,317.9z"/>
				</g>
			</g>
			<path class="st13" d="M506,317.9l-7.3,85.4l-102.1-8.8l7.3-85.4c0.3-3,2.9-5.2,5.8-4.9l91.3,7.9C504,312.3,506.2,314.9,506,317.9
				z"/>
			<path class="st14" d="M498.8,320.3l-87.2-7.5c-1.2-0.1-2.1-1.2-2-2.4l0,0c0.1-1.2,1.2-2.1,2.4-2l87.2,7.5c1.2,0.1,2.1,1.2,2,2.4
				l0,0C501.1,319.5,500,320.4,498.8,320.3z"/>
		</g>
		<g>
			<g>
				<g>
					<path id="XMLID_586_" class="st19" d="M567.2,510.6c0,0-6.6-4.7-20.2-3.8c0,0-1,16.3-2.8,21.1c-1.9,4.8-11.6,13-13.4,14.4
						c-1.8,1.4-1.8,6.3-1.8,6.3h41.3c0,0-0.7-10.9-3.3-21L567.2,510.6z"/>
				</g>
				<g>
					<defs>
						<path id="SVGID_27_" d="M567.2,510.6c0,0-6.6-4.7-20.2-3.8c0,0-1,16.3-2.8,21.1c-1.9,4.8-11.6,13-13.4,14.4
							c-1.8,1.4-1.8,6.3-1.8,6.3h41.3c0,0-0.7-10.9-3.3-21L567.2,510.6z"/>
					</defs>
					<clipPath id="SVGID_28_">
						<use xlink:href="#SVGID_27_"  style="overflow:visible;"/>
					</clipPath>
					<path class="st26" d="M567.2,510.6c0,0-6.6-4.7-20.2-3.8c0,0-1,16.3-2.8,21.1c-1.9,4.8-11.6,13-13.4,14.4
						c-1.8,1.4-1.8,6.3-1.8,6.3h41.3c0,0-0.7-10.9-3.3-21L567.2,510.6z"/>
				</g>
				<g>
					<path id="XMLID_13_" class="st1" d="M567.2,510.6c0,0-6.6-4.7-20.2-3.8c0,0-1,16.3-2.8,21.1c-1.9,4.8-11.6,13-13.4,14.4
						c-1.8,1.4-1.8,6.3-1.8,6.3h41.3c0,0-0.7-10.9-3.3-21L567.2,510.6z"/>
				</g>
			</g>
			<path class="st1" d="M558.7,512.7c0,0-1,15-3.3,18.9c-2.3,3.9-4.6,5.9-4.6,5.9"/>
			<path class="st13" d="M549.6,539.7c0,0-2.1,2.6-4.4,2.9c-2.3,0.4-14.5-0.4-14.5-0.4l5-4.3C535.7,538,545.8,536.3,549.6,539.7z"/>
			<path class="st1" d="M553.9,536.2c0,0-8.8-5.1-15.1-1.2"/>
			<path class="st1" d="M556.1,532.8c0,0-6.2-4.8-13.4-2.2"/>
			<path class="st1" d="M558.7,527.5c0,0-6.6-5.1-13.6-1.9"/>
			<path class="st1" d="M559.6,521c0,0-8-4.3-13.9-1"/>
			<path class="st13" d="M570.3,548.7v3.1h-4.7c0,0-4.1-2.3-7.9,0c0,0-18.4,0-22.3,0c-3.9,0-6.8-1.5-6.8-1.5l0.5-1.5h41.2V548.7z"/>
			<path class="st13" d="M564.3,509.7l-1.1,6.6c0,0-12.4-4-19.2-1.4v-8.2C544,506.7,556.8,502.3,564.3,509.7z"/>
		</g>
		<g>
			<g>
				<path id="XMLID_592_" class="st27" d="M577.7,343.8c0,0-26.4,5.2-52.2-3.2c-5.7-1.9-11.4-4.4-16.8-7.7c0,0,0.1-1.7,0.1-4.4
					c0.2-10.6,0.2-37.3-5.4-44c-3.5-4.2-6.3-29.9,0.5-42.9l21-16.9c29.1,5.7,35.2,13.4,40.1,30c0.9,3,1.7,6.4,2.6,10.1
					c1,4,2,8.9,2.9,14.3C574.9,305.5,577.7,343.8,577.7,343.8z"/>
			</g>
			<g>
				<defs>
					<path id="SVGID_29_" d="M577.7,343.8c0,0-26.4,5.2-52.2-3.2c-5.7-1.9-11.4-4.4-16.8-7.7c0,0,0.1-1.7,0.1-4.4
						c0.2-10.6,0.2-37.3-5.4-44c-3.5-4.2-6.3-29.9,0.5-42.9l21-16.9c29.1,5.7,35.2,13.4,40.1,30c0.9,3,1.7,6.4,2.6,10.1
						c1,4,2,8.9,2.9,14.3C574.9,305.5,577.7,343.8,577.7,343.8z"/>
				</defs>
				<clipPath id="SVGID_30_">
					<use xlink:href="#SVGID_29_"  style="overflow:visible;"/>
				</clipPath>
				<path class="st28" d="M570.5,279l-11.9,53c0,0-17.1,4.8-33.1,8.6c-5.7-1.9-11.4-4.4-16.8-7.7c0,0,0.1-1.7,0.1-4.4
					c14.4-7.3,35.3-18.1,35.2-18.7c-0.3-0.8,0-28.5,0-28.5s18.9-4.4,21-26.6c0.9,3,1.7,6.4,2.6,10.1
					C568.7,268.7,569.6,273.6,570.5,279z"/>
			</g>
			<g>
				<path id="XMLID_14_" class="st1" d="M577.7,343.8c0,0-26.4,5.2-52.2-3.2c-5.7-1.9-11.4-4.4-16.8-7.7c0,0,0.1-1.7,0.1-4.4
					c0.2-10.6,0.2-37.3-5.4-44c-3.5-4.2-6.3-29.9,0.5-42.9l21-16.9c29.1,5.7,35.2,13.4,40.1,30c0.9,3,1.7,6.4,2.6,10.1
					c1,4,2,8.9,2.9,14.3C574.9,305.5,577.7,343.8,577.7,343.8z"/>
			</g>
		</g>
		<path class="st7" d="M525.9,202.5c0,0-9.3,13.3,3.1,23.7c0,0-15,16.8-19.9,14.5c-2.1-1,0-7,0-7l-8.7-16.1L525.9,202.5z"/>
		<g>
			<path class="st7" d="M522.9,209.3c2.9-12.7,1.5-31.5-16.2-29.8c-12.4,1.2-21.3,8.1-17.8,24.7c1.5,7,2.7,17,9.1,26
				c1.8,2.5,20.5-6.3,19.4-13.5"/>
			<path class="st1" d="M497.5,201.5c0,0,3.7-1.7,7.7,0.7"/>
			<path class="st1" d="M488.6,203c0,0,0.6-1.6,2.7-1.2"/>
			<path class="st7" d="M493,205.7c0,0-3.7,6.7-3.7,7.6c0,1,4.5,1.3,4.5,1.3"/>
			<path class="st3" d="M500.9,207c0,0.7-0.3,1.3-0.8,1.3c-0.4,0-0.8-0.6-0.9-1.3c0-0.7,0.3-1.3,0.8-1.3S500.8,206.3,500.9,207z"/>
			<path class="st1" d="M495.7,219.4c0,0,7-1.3,8.3-3.8"/>
			<path class="st3" d="M488.5,192.8l5.5-1.6c0,0,7.7-3.5,9.3-3.1c1.6,0.4,4.9,5.6,4.8,8.5c0,0,5.1,4.5,5.8,11.1l1.6-0.7
				c0,0-0.1-5.9,3.3-5.8c3.4,0.1,4.9,4.2,4.7,5.5s-3.9,6.5-3.9,6.5s8.4-1.3,8.7-17.8s-17.9-19.4-26.7-18.6
				c-8.8,0.7-13.4,0.5-13.4,0.5l0.5,4.7l-3.6,0.9l2.7,3.3l-2.9,1.3L488.5,192.8z"/>
		</g>
		<path class="st17" d="M519.1,373.2c0,0,21.5,5.7,27.3,21.7"/>
		<path class="st17" d="M528.9,381.8c0,0-11.6,19.3-29.4,29.4"/>
		<path class="st17" d="M512.6,490.5c0,0,6.6-1.5,8.4-4"/>
		<path class="st17" d="M549.4,493c0,0,6.5-3.4,12.9,0"/>
		<path class="st17" d="M570.3,403c0,0-10.8,28.1-16.3,30.7"/>
		<path class="st17" d="M522.8,359c0.3,3,13.1,17.2,23.6,22.8"/>
		<path class="st17" d="M533.7,347.1c0,0,2.5,5.6,0.9,11.9s0,10.5,0,10.5"/>
		<path class="st1" d="M510.4,288.7c0,0,20,25.9,41.4,34.3"/>
		<path class="st1" d="M531.1,246.9c0,0-0.1,17.6,12.6,25.5"/>
		<g>
			<path class="st7" d="M538.3,272.6c-2.7,2.6,0.2,35.7,0.2,35.7s-15.6,6.1-20.5,10s-28,12.9-28,12.9s-3.6,12.1,0.9,12.5
				c4.4,0.4,50.4-15.3,60.9-20.7c0,0,6.8-40.4,6.8-50.6"/>
			<path class="st7" d="M491.9,330.5c-2.1-0.4-5.9-1.8-7.9-1.3s-5.6,2.7-9.4,3.6c-3.8,0.9-2.2,2.3,0,2.8s4.9,0,4.9,0l-3,3
				c0,0-4.8,2.5-5.4,2.5c-1.1,0-5,1.1-4.7,2.7c0.3,1.7,2.5,1.5,5,1.6c0,0-4,0.8-3.6,3.1c0.3,1.5,4.7,0.2,7,0.2c0,0-1.9,2-0.5,2.7
				c1.4,0.6,4.5-0.9,4.5-0.9s-0.1,1.7,1.3,1.9c1.4,0.2,4.9-1.2,7.3-2.6s4.5-3.2,6.8-5c2.3-1.8,3.1-2,3.1-2"/>
			<path class="st1" d="M471.3,345.4c0,0,2.3-0.1,3.3-0.4c0.9-0.2,1.9-0.5,1.9-0.5"/>
			<path class="st1" d="M474.7,348.6c0,0,2.7-0.4,4.1-1.4"/>
			<path class="st1" d="M478.8,350.3c0,0,1.9-0.2,3-1.1"/>
			<path class="st1" d="M476.8,339.4c0,0-0.9,2,0,3.1s1.9,1.2,2,2.4c0.2,1.3,2.2,1.2,2.9,2c0.7,0.8,1.3,2.2,3.6,2.3"/>
		</g>
		<path class="st18" d="M537.3,238.3c-8.1,18.3,0,43.7,0,43.7s19.6,6.7,21.4,3.8c1.8-2.9,5.1-16.9,5.7-23.4"/>
		<path class="st1" d="M558.7,264.4c0,0-8.3,11.4-14.9,11.6"/>
	</g>
	<g>
		<path class="st3" d="M267.2,417.7c0,0,6.3-4.1,15-1.9s31.2,34.4,34.3,37.6c3.1,3.1,9,4.8,14.4,10.4c8.5,8.9,21,16.8,22.2,16.8
			c1.3,0,2.3-0.8,3.8-1.1c1.6-0.3,13.7-1.4,13.7-1.4s4.1,0.9,0,2.6s-3.8,3.3-3.8,3.3s-0.8,1.3,0.8,2.6c1.6,1.3,2.6,0.6,4.9,3.9
			s-3.3,1.4-3.3,1.4s1.3,3.6-1.3,3.2c-2.5-0.4-0.3,3.5-4.4,3s-12.8-6-15-11.8c0,0-35.5-17-40.8-21.4S280,437,278.4,436.7"/>
		<g>
			<g>
				<g>
					<path id="XMLID_581_" class="st29" d="M388.4,470.4h-30.5v-19c0-1,0.8-1.9,1.9-1.9h26.8c1,0,1.9,0.8,1.9,1.9L388.4,470.4
						L388.4,470.4z"/>
				</g>
				<g>
					<defs>
						<path id="SVGID_31_" d="M388.4,470.4h-30.5v-19c0-1,0.8-1.9,1.9-1.9h26.8c1,0,1.9,0.8,1.9,1.9L388.4,470.4L388.4,470.4z"/>
					</defs>
					<clipPath id="SVGID_32_">
						<use xlink:href="#SVGID_31_"  style="overflow:visible;"/>
					</clipPath>
					<path class="st30" d="M388.4,470.4h-30.5v-19c0-1,0.8-1.9,1.9-1.9h26.8c1,0,1.9,0.8,1.9,1.9L388.4,470.4L388.4,470.4z"/>
				</g>
				<g>
					<defs>
						<path id="SVGID_33_" d="M388.4,470.4h-30.5v-19c0-1,0.8-1.9,1.9-1.9h26.8c1,0,1.9,0.8,1.9,1.9L388.4,470.4L388.4,470.4z"/>
					</defs>
					<clipPath id="SVGID_34_">
						<use xlink:href="#SVGID_33_"  style="overflow:visible;"/>
					</clipPath>
					<rect x="379.3" y="451.5" class="st31" width="7.5" height="15"/>
				</g>
				<g>
					<path id="XMLID_15_" class="st1" d="M388.4,470.4h-30.5v-19c0-1,0.8-1.9,1.9-1.9h26.8c1,0,1.9,0.8,1.9,1.9L388.4,470.4
						L388.4,470.4z"/>
				</g>
			</g>
			<g>
				<g>
					<path id="XMLID_582_" class="st29" d="M433.5,470.4H403v-19c0-1,0.8-1.9,1.9-1.9h26.8c1,0,1.9,0.8,1.9,1.9L433.5,470.4
						L433.5,470.4z"/>
				</g>
				<g>
					<defs>
						<path id="SVGID_35_" d="M433.5,470.4H403v-19c0-1,0.8-1.9,1.9-1.9h26.8c1,0,1.9,0.8,1.9,1.9L433.5,470.4L433.5,470.4z"/>
					</defs>
					<clipPath id="SVGID_36_">
						<use xlink:href="#SVGID_35_"  style="overflow:visible;"/>
					</clipPath>
					<path class="st32" d="M433.5,470.4H403v-19c0-1,0.8-1.9,1.9-1.9h26.8c1,0,1.9,0.8,1.9,1.9L433.5,470.4L433.5,470.4z"/>
				</g>
				<g>
					<defs>
						<path id="SVGID_37_" d="M433.5,470.4H403v-19c0-1,0.8-1.9,1.9-1.9h26.8c1,0,1.9,0.8,1.9,1.9L433.5,470.4L433.5,470.4z"/>
					</defs>
					<clipPath id="SVGID_38_">
						<use xlink:href="#SVGID_37_"  style="overflow:visible;"/>
					</clipPath>
					<rect x="426.8" y="451.5" class="st33" width="4.5" height="15"/>
				</g>
				<g>
					<path id="XMLID_16_" class="st1" d="M433.5,470.4H403v-19c0-1,0.8-1.9,1.9-1.9h26.8c1,0,1.9,0.8,1.9,1.9L433.5,470.4
						L433.5,470.4z"/>
				</g>
			</g>
			<path class="st13" d="M424,470.4h-30.5v-19c0-1,0.8-1.9,1.9-1.9h26.8c1,0,1.9,0.8,1.9,1.9L424,470.4L424,470.4z"/>
			<path class="st13" d="M469.1,470.4h-30.5v-19c0-1,0.8-1.9,1.9-1.9h26.8c1,0,1.9,0.8,1.9,1.9L469.1,470.4L469.1,470.4z"/>
			<rect x="414.9" y="451.5" class="st14" width="7.5" height="15"/>
			<rect x="459.5" y="451.5" class="st14" width="7.5" height="15"/>
			<g>
				<g>
					<path id="XMLID_580_" class="st29" d="M482.5,466v85.7h-138V466c0-3,2.4-5.4,5.4-5.4h127.2C480.1,460.6,482.5,463,482.5,466z"
						/>
				</g>
				<g>
					<defs>
						<path id="SVGID_39_" d="M482.5,466v85.7h-138V466c0-3,2.4-5.4,5.4-5.4h127.2C480.1,460.6,482.5,463,482.5,466z"/>
					</defs>
					<clipPath id="SVGID_40_">
						<use xlink:href="#SVGID_39_"  style="overflow:visible;"/>
					</clipPath>
					<path class="st34" d="M482.5,466v85.7h-138V466c0-3,2.4-5.4,5.4-5.4h127.2C480.1,460.6,482.5,463,482.5,466z"/>
				</g>
				<g>
					<path id="XMLID_17_" class="st1" d="M482.5,466v85.7h-138V466c0-3,2.4-5.4,5.4-5.4h127.2C480.1,460.6,482.5,463,482.5,466z"/>
				</g>
			</g>
			<path class="st13" d="M482.5,466v85.7H380.1V466c0-3,2.4-5.4,5.4-5.4h91.6C480.1,460.6,482.5,463,482.5,466z"/>
			<path class="st14" d="M475.6,469.1H388c-1.2,0-2.2-1-2.2-2.2l0,0c0-1.2,1-2.2,2.2-2.2h87.6c1.2,0,2.2,1,2.2,2.2l0,0
				C477.8,468.1,476.8,469.1,475.6,469.1z"/>
		</g>
		<g>
			<path class="st16" d="M313.4,551.7c-7.1,0-17.1-4.6-28.6-9.4c-12-5-25.6-10.3-39.4-11.1c-5.2-0.3-2,20.6-2,20.6h-11.3
				c0,0-11.1-14.9-12.4-28.2c0,0,9.1-5.6,11.3-5.9c0.5-0.1,1.3-0.1,2.3-0.1c2.4,0,5.7,0.1,5.7,0.1l0,0c-0.5-0.3-8.8-5.3-13.4-10.4
				c-3.8-4.2-5.5-10.8-5.6-14.8c-0.1-2,0.9-7.8,0.9-7.8l59.2,1c0,0,0.6,0.5,1.8,1.3c6.9,5,32,23.7,44.5,37.7
				c4.1,4.5,6.8,8.6,7.2,11.6C335.4,549.8,324.2,551.7,313.4,551.7z"/>
			<path class="st3" d="M326.3,524.5l-28.8,6.6c0,0-7.5,4-12.7,11.1c-12-5-25.6-10.3-39.4-11.1c-5.2-0.3-2,20.6-2,20.6h-11.3
				c0,0-11.1-14.9-12.4-28.2c0,0,10.5,15,13,22.5c0,0,4.1-14.1,10.6-19.7c0,0-4.4-5.2-10.1-8.9c2.4,0,5.7,0.1,5.7,0.1l0,0
				c-0.5-0.3-8.8-5.3-13.4-10.4c-3.8-4.2-5.3-10.9-5.6-14.8c-0.2-2,0.1-7.8,0.1-7.8s44.2,6.3,61.8,2.3
				C288.6,491.8,313.8,510.5,326.3,524.5z"/>
			<path class="st1" d="M280,523.5c0,0,23.5,11.8,29.7,16.4c6.3,4.6,8.1,3.4,8.1,3.4"/>
			<path class="st1" d="M225.5,522.3c0,0,5.6,8.6,5.9,11.2"/>
		</g>
		<path class="st3" d="M319.9,357.1c0,0,12.5-5.4,11.4,17.7c-1.2,23.1,3.1,24.3,3.1,24.3S302.9,412,295,401
			C286.9,390,294.5,359.7,319.9,357.1z"/>
		<path class="st7" d="M318.2,399.1c0,0-12.9,6.1-14.1,11.7s-17.4-2.8-17.4-2.8l11.7-16.9L318.2,399.1z"/>
		<path class="st16" d="M233.4,461c-29.7,37.8-5.6,56,28,53l-6.7,10.6l16.9,2.9c0,0,13-8.5,30.7-17.5c30.1-15.4,42.3-14.5,39.1-29.9
			c-3.1-15.4-40-25.5-77-9.2C264.4,470.9,244.3,447.1,233.4,461z"/>
		<g>
			<path class="st7" d="M243.7,543.3c0,0,7.7-21.4,11-22.5c3.2-1.2,15.4,3.4,16.9,6.9c0,0,4.1-6.3,5.8-3.6c1.7,2.7-0.7,7.1,0,10.5
				c0.7,3.4,9.1,8.1,12.4,8.8c3.3,0.6,5.2,2.5,5.2,4.4c0,1.9,0,4.1,0,4.1h-51.3C243.7,551.7,241.9,548.2,243.7,543.3z"/>
			<path class="st1" d="M277.4,531.1c0,0-6.8,3.4-9.3,2.4c-2.5-0.9,1.3,5.6,2.2,6.3c0.9,0.6,7.1-2.2,7.1-2.2"/>
			<path class="st1" d="M250.2,527.6c0,0,9.2,0.2,12,3.5"/>
			<path class="st1" d="M243.7,543.3c0,0,14.7,3.4,16,3.4c1.3,0,5.9-1.7,5.9-1.7s4,2,6.7,3.3s20.2,0,20.2,0"/>
		</g>
		<path class="st1" d="M261.4,514c14.1-1.5,41.3-18.8,50.8-24.9c9.5-6,12-4.5,12-4.5"/>
		<path class="st13" d="M220,484.5l2.2-17l5.4-4.1c8.8-21.3,48.5-61,59.3-60.9c16.3,0.2,19.1,17.3,21.2,36
			c2,18.7-23.3,15.9-23.3,15.9v4.7l-14.4,7.5l8.7-0.3C279.1,466.2,253.9,490.7,220,484.5z"/>
		<g>
			<path class="st7" d="M290.4,369.5c3.4-10.7,19-13.5,24.6-11.8c3.5,1.1,8.4,5,10.6,9.6c1.4,3.1-1.6,8.5,0.6,11.7
				c3,4.5,2.8,14.1,1.7,20.1c-0.6,3.2-13.9,5.1-24.8-2.4C291.3,388.9,287.1,379.9,290.4,369.5z"/>
			<path class="st3" d="M306.1,354.6c0,0,13.7-2.2,13.8,1.3c0.6,23.4-13.4,28.3-13.4,28.3s-5.7-4.6-7-1.4c-1.3,3.1,2,11.8,6.1,12
				c0,0-3.1,4.1-0.2,9.8c0,0-23.2,3.9-25.2-6.9c0,0,1.3-5.1,1.9-11.4C283.7,371.2,280.1,361.1,306.1,354.6z"/>
			<path class="st7" d="M324.5,378.5c2.9,2.6,4.9,2.6,4.9,3.5c-0.1,2.9-3.6,4.3-3.6,4.3"/>
			<path class="st1" d="M325.7,391.1c0,0-2.9,1.1-6.3,0.2"/>
			<path class="st3" d="M318.1,364.1c0,0,9.1-2.6,7.4,12.2c0,0,3.8-5.2,3.8-11c0-10-13.4-8-13.4-8l1.8,7.1"/>
			<path class="st1" d="M326.4,371.4c0,0-0.8-0.7-2.4-0.4"/>
			<path class="st1" d="M320.2,371.2c0,0-4.9,0.3-7,3.6"/>
			<path class="st3" d="M319.1,379c0.1,0.8-0.3,1.5-0.7,1.5c-0.5,0-0.9-0.6-1-1.3c-0.1-0.8,0.3-1.5,0.7-1.5
				C318.5,377.6,319,378.2,319.1,379z"/>
		</g>
		<path class="st1" d="M262.2,517.6c0,0,10.9,1.2,13.3,5.9"/>
		<path class="st7" d="M289.9,410.5c0,0,6.3-4.1,15-1.9s31.2,34.4,34.3,37.6c3.1,3.1,9,4.8,14.4,10.4c8.5,8.9,21,16.8,22.2,16.8
			c1.3,0,2.3-0.8,3.8-1.1c1.6-0.3,13.7-1.4,13.7-1.4s4.1,0.9,0,2.6s-3.8,3.3-3.8,3.3s-0.8,1.3,0.8,2.6c1.6,1.3,2.6,0.6,4.9,3.9
			s-3.3,1.4-3.3,1.4s1.3,3.6-1.3,3.2c-2.5-0.4-0.3,3.5-4.4,3s-12.8-6-15-11.8c0,0-35.5-17-40.8-21.4s-27.7-27.9-29.3-28.2"/>
		<path class="st13" d="M284.7,407.1c0,0,17.5-4.7,23.6-1.3c6.1,3.4,17.7,19.4,17.7,19.4s-14.1,12.6-18.5,11.5
			c-4.4-1.2-17.7-3-17.7-3"/>
		<path class="st1" d="M299.9,435.2c0,0-6.3,3.5-8.7,3.5"/>
		<path class="st1" d="M289.9,417.7c0.5,0.9,0.3,11.2,11.5,14.4"/>
		<path class="st1" d="M230.3,463.7c0,0,23.8,4.1,31.9-3.1"/>
		<path class="st1" d="M270.3,466.5c0,0-5.9-1-8.1,2c-2.2,3.1-14.1,5.9-14.1,5.9"/>
		<path class="st1" d="M222.6,489.2c0,0-3.4,14.8,11.2,21.4"/>
		<path class="st1" d="M230.3,490.2c0,0,0.1,7.3,2.4,11.3l7.3,2.3l8.1-4.5c0,0-1.7-9.3-1.9-11.2"/>
	</g>
</g>
</svg>
