<?xml version="1.0" encoding="utf-8"?>
<!-- Generator: Adobe Illustrator 23.0.1, SVG Export Plug-In . SVG Version: 6.00 Build 0)  -->
<svg version="1.1" id="Calque_1" xmlns="http://www.w3.org/2000/svg" xmlns:xlink="http://www.w3.org/1999/xlink" x="0px" y="0px"
	 viewBox="0 0 800.2 498.1" style="enable-background:new 0 0 800.2 498.1;" xml:space="preserve">
<style type="text/css">
	.st0{clip-path:url(#SVGID_2_);}
	.st1{fill:#5AE4A7;}
	.st2{opacity:0.75;fill:#FFFFFF;enable-background:new    ;}
	.st3{fill:none;stroke:#1A2E35;stroke-linecap:round;stroke-linejoin:round;stroke-miterlimit:10;}
	.st4{fill:#1A2E35;}
	.st5{clip-path:url(#XMLID_4_);}
	.st6{fill:#5AE4A7;stroke:#1A2E35;stroke-linecap:round;stroke-linejoin:round;stroke-miterlimit:10;}
	.st7{opacity:0.6;clip-path:url(#XMLID_5_);fill:#FFFFFF;}
	.st8{fill:#757575;stroke:#1A2E35;stroke-linecap:round;stroke-linejoin:round;stroke-miterlimit:10;}
	.st9{fill:#FFFFFF;stroke:#1A2E35;stroke-linecap:round;stroke-linejoin:round;stroke-miterlimit:10;}
	.st10{opacity:0.5;clip-path:url(#XMLID_4_);fill:#1A2E35;}
	.st11{opacity:0.4;clip-path:url(#XMLID_4_);}
	.st12{fill:#1A2E35;stroke:#FFFFFF;stroke-linecap:round;stroke-linejoin:round;stroke-miterlimit:10;}
	.st13{fill:#FFFFFF;}
	.st14{opacity:0.3;clip-path:url(#XMLID_4_);}
	.st15{opacity:0.3;clip-path:url(#XMLID_4_);fill-opacity:0.7;}
	.st16{opacity:0.3;clip-path:url(#XMLID_6_);fill-opacity:0.7;}
	.st17{opacity:0.3;fill-opacity:0.7;}
	.st18{opacity:0.3;}
	.st19{fill:none;stroke:#FFFFFF;stroke-linecap:round;stroke-linejoin:round;stroke-miterlimit:10;}
</style>
<g>
	<g>
		<g>
			<g>
				<defs>
					<rect id="SVGID_1_" width="800.2" height="498.1"/>
				</defs>
				<clipPath id="SVGID_2_">
					<use xlink:href="#SVGID_1_"  style="overflow:visible;"/>
				</clipPath>
				<g class="st0">
					<path class="st1" d="M381-228.3c0,0,212.6-27,381.8,126.9c169.2,154,218.5,397,263.6,592.9c45.1,195.9-42.7,366-208.5,416
						C652.1,957.6,578.1,814.2,372,763c-206-51.1-268.2-33.7-414.7-188.4C-189.1,419.8-159.8,136.4,20.7-38.6
						C201.1-213.7,381-228.3,381-228.3z"/>
					<path class="st2" d="M381-228.3c0,0,212.6-27,381.8,126.9c169.2,154,218.5,397,263.6,592.9c45.1,195.9-42.7,366-208.5,416
						C652.1,957.6,578.1,814.2,372,763c-206-51.1-268.2-33.7-414.7-188.4C-189.1,419.8-159.8,136.4,20.7-38.6
						C201.1-213.7,381-228.3,381-228.3z"/>
				</g>
			</g>
		</g>
	</g>
</g>
<g>
	<g>
		<g>
			<g>
				<path class="st3" d="M453.6,403.5c0,4.9-1.2,9.5-3.3,13.6H444c-0.2,0-0.4,0-0.6,0.1c-1.1,0.3-1.9,1.2-1.9,2.4v7.6
					c-4.8,3.5-10.7,5.5-17.1,5.5c-9.7,0-18.3-4.7-23.6-12c-3.5-4.8-5.6-10.8-5.6-17.2c0-16.1,13.1-29.2,29.2-29.2
					C440.5,374.3,453.6,387.4,453.6,403.5z"/>
				<path class="st3" d="M431.5,414.3c4.6,0.6,8.7,1.7,11.9,2.9c-1.1,0.3-1.9,1.2-1.9,2.4v7.6c-4.8,3.5-10.7,5.5-17.1,5.5
					c-9.7,0-18.3-4.7-23.6-12c0.2-0.3,0.3-0.6,0.5-0.9c1.1-1.8,7.7-4.6,17-5.6c0.7-1.4,0.7-3.2,0.5-4.7c0-0.3-0.1-0.5-0.1-0.8
					c-0.6-0.6-1.1-1.1-1.3-1.6c-0.4-1-0.8-2.2-1.2-3.7c0,0.4-0.1,0.7-0.2,0.8c-0.7,0.6-1.3-0.5-1.4-1.4c-0.1-1-1.3-2.6-1.6-3.6
					c-0.3-1,0.3-2,0.8-2.4c0.2-0.1,0.5-0.1,0.7,0.1c-0.3-1.5-0.6-3.4-0.4-5.1c0.5-3.9,2.9-5.4,2.9-5.4s1.1-3.4,7.7-3.3
					c7.1,0,7.8,3.9,7.8,3.9s3.7,2.4,2.2,10c0.2-0.1,0.5-0.2,0.7-0.1c0.5,0.4,1.1,1.4,0.8,2.4c-0.3,1-1.5,2.6-1.6,3.6
					c-0.1,1-0.7,2.1-1.4,1.4c-0.1-0.1-0.1-0.2-0.1-0.4c-0.4,1.4-0.8,2.7-1.2,3.6c-0.2,0.6-0.8,1.2-1.5,1.7c-0.2,1.3-0.1,2.3,0.1,3.1
					C430.9,413.3,431.2,413.9,431.5,414.3z"/>
			</g>
			<g>
				<path class="st3" d="M453.6,431.3h-10c-1.2,0-2.1-1-2.1-2.1v-10c0-1.2,1-2.1,2.1-2.1h10c1.2,0,2.1,1,2.1,2.1v10
					C455.7,430.4,454.8,431.3,453.6,431.3z"/>
				<polygon class="st4" points="452.1,423.4 449.4,423.4 449.4,420.6 447.8,420.6 447.8,423.4 445.1,423.4 445.1,425 447.8,425 
					447.8,427.7 449.4,427.7 449.4,425 452.1,425 				"/>
			</g>
		</g>
		<g>
			<g>
				<path class="st3" d="M271.4,168.3c0,6.8-1.7,13.2-4.6,18.9H257c-1.4,0-2.5,1.1-2.5,2.5v11.6c-6.7,4.8-14.9,7.7-23.8,7.7
					c-13.5,0-25.4-6.6-32.8-16.7c-4.9-6.7-7.8-15-7.8-24c0-22.4,18.2-40.6,40.6-40.6S271.4,145.8,271.4,168.3z"/>
				<g>
					<path class="st3" d="M259.4,182.7l-49.8,9.7c-1.5,0.3-3-0.7-3.2-2.2l-6.5-33.2c-0.3-1.5,0.7-3,2.2-3.2l49.8-9.7
						c1.5-0.3,3,0.7,3.2,2.2l6.5,33.2C261.9,181,260.9,182.5,259.4,182.7z"/>
					<path class="st3" d="M200.2,158.7l26.5,14.4c3.3,1.8,7.3,1,9.7-1.9l19.1-23.3"/>
					<line class="st3" x1="210.3" y1="189.2" x2="226.7" y2="173.2"/>
					<line class="st3" x1="257.3" y1="180.1" x2="236.4" y2="171.3"/>
				</g>
			</g>
			<g>
				<path class="st3" d="M272.2,207h-15.5c-1.2,0-2.1-1-2.1-2.1v-15.5c0-1.2,1-2.1,2.1-2.1h15.5c1.2,0,2.1,1,2.1,2.1v15.5
					C274.4,206,273.4,207,272.2,207z"/>
				<polygon class="st4" points="269.4,195.9 265.6,195.9 265.6,192.1 263.3,192.1 263.3,195.9 259.5,195.9 259.5,198.2 
					263.3,198.2 263.3,202 265.6,202 265.6,198.2 269.4,198.2 				"/>
			</g>
		</g>
		<g>
			<g>
				<g>
					<path class="st3" d="M590.7,331h-36.9l0.7-1.1c3.2-5.1,4.6-11.1,4.6-17.1v-0.1c0-7.7,6.7-13.9,14.6-13.1
						c5.9,0.6,10.8,5.4,11.6,11.3c0.1,0.7,0.1,1.4,0.1,2c-0.1,5.8,1.2,11.6,4.3,16.6L590.7,331z"/>
					<path class="st3" d="M569.2,299.2c-1.6-1.6-1.6-4.3,0-6c1.6-1.6,4.3-1.6,6,0c1.6,1.6,1.6,4.3,0,6"/>
					<path class="st3" d="M591.8,334.8h-39.2c-0.7,0-1.4-0.6-1.4-1.4v-1.1c0-0.7,0.6-1.4,1.4-1.4h39.2c0.7,0,1.4,0.6,1.4,1.4v1.1
						C593.2,334.2,592.6,334.8,591.8,334.8z"/>
					<circle class="st3" cx="572.2" cy="341.1" r="3.2"/>
				</g>
				<path class="st3" d="M607.5,321c0,5.9-1.5,11.5-4,16.4h-8.1c-1.4,0-2.5,1.1-2.5,2.5v9.7c-5.8,4.2-12.9,6.7-20.6,6.7
					c-11.7,0-22.1-5.7-28.5-14.5c-4.3-5.8-6.8-13-6.8-20.8c0-19.5,15.8-35.3,35.3-35.3C591.7,285.7,607.5,301.5,607.5,321z"/>
			</g>
			<g>
				<path class="st3" d="M607.9,354.6H595c-1.2,0-2.1-1-2.1-2.1v-12.9c0-1.2,1-2.1,2.1-2.1h12.9c1.2,0,2.1,1,2.1,2.1v12.9
					C610.1,353.6,609.1,354.6,607.9,354.6z"/>
				<polygon class="st4" points="605.7,345 602.4,345 602.4,341.7 600.5,341.7 600.5,345 597.2,345 597.2,346.9 600.5,346.9 
					600.5,350.2 602.4,350.2 602.4,346.9 605.7,346.9 				"/>
			</g>
		</g>
	</g>
	<g>
		<defs>
			<path id="XMLID_332_" d="M602.6,32.6v253.3c0,4.5-3.6,8.1-8.1,8.1H334.3c-4.5,0-8.1-3.6-8.1-8.1V32.6c0-4.5,3.6-8.1,8.1-8.1
				h260.2C599,24.5,602.6,28.1,602.6,32.6z"/>
		</defs>
		<use xlink:href="#XMLID_332_"  style="overflow:visible;fill:#FFFFFF;"/>
		<clipPath id="XMLID_4_">
			<use xlink:href="#XMLID_332_"  style="overflow:visible;"/>
		</clipPath>
		<g class="st5">
			<path class="st6" d="M559.8,272.6h-64c-8.3,0-15.1-6.8-15.1-15.1l0,0c0-8.3,6.8-15.1,15.1-15.1h64c8.3,0,15.1,6.8,15.1,15.1l0,0
				C574.9,265.9,568.1,272.6,559.8,272.6z"/>
			<g>
				<path class="st4" d="M511.4,264.9h-2.4l-0.4-2.8h-3l-0.4,2.8h-2.2l2.5-15.4h3.5L511.4,264.9z M505.8,260h2.3l-1.1-7.8h0
					L505.8,260z"/>
				<path class="st4" d="M519.5,259.2v2.1c0,2.5-1.2,3.9-3.6,3.9c-2.4,0-3.6-1.4-3.6-3.9v-8c0-2.5,1.2-3.9,3.6-3.9
					c2.4,0,3.6,1.4,3.6,3.9v1.5h-2.3V253c0-1.1-0.5-1.5-1.3-1.5c-0.8,0-1.3,0.4-1.3,1.5v8.3c0,1.1,0.5,1.5,1.3,1.5
					c0.8,0,1.3-0.4,1.3-1.5v-2.2H519.5z"/>
				<path class="st4" d="M528,259.2v2.1c0,2.5-1.2,3.9-3.6,3.9c-2.4,0-3.6-1.4-3.6-3.9v-8c0-2.5,1.2-3.9,3.6-3.9
					c2.4,0,3.6,1.4,3.6,3.9v1.5h-2.3V253c0-1.1-0.5-1.5-1.3-1.5c-0.8,0-1.3,0.4-1.3,1.5v8.3c0,1.1,0.5,1.5,1.3,1.5
					c0.8,0,1.3-0.4,1.3-1.5v-2.2H528z"/>
				<path class="st4" d="M531.9,256h3.3v2.2h-3.3v4.5h4.2v2.2h-6.6v-15.4h6.6v2.2h-4.2V256z"/>
				<path class="st4" d="M544.8,253.3v2c0,2.5-1.2,3.8-3.6,3.8H540v5.8h-2.4v-15.4h3.6C543.6,249.5,544.8,250.8,544.8,253.3z
					 M540,251.7v5.2h1.1c0.8,0,1.2-0.4,1.2-1.5v-2.3c0-1.1-0.4-1.5-1.2-1.5H540z"/>
				<path class="st4" d="M545.2,249.5h7.5v2.2h-2.5v13.2h-2.4v-13.2h-2.5V249.5z"/>
			</g>
		</g>
		<g class="st5">
			<g>
				<defs>
					<path id="XMLID_335_" d="M433.1,272.6h-64c-8.3,0-15.1-6.8-15.1-15.1l0,0c0-8.3,6.8-15.1,15.1-15.1h64
						c8.3,0,15.1,6.8,15.1,15.1l0,0C448.2,265.9,441.4,272.6,433.1,272.6z"/>
				</defs>
				<use xlink:href="#XMLID_335_"  style="overflow:visible;fill:#5AE4A7;"/>
				<clipPath id="XMLID_5_">
					<use xlink:href="#XMLID_335_"  style="overflow:visible;"/>
				</clipPath>
				<path class="st7" d="M433.1,272.6h-64c-8.3,0-15.1-6.8-15.1-15.1l0,0c0-8.3,6.8-15.1,15.1-15.1h64c8.3,0,15.1,6.8,15.1,15.1l0,0
					C448.2,265.9,441.4,272.6,433.1,272.6z"/>
				
					<use xlink:href="#XMLID_335_"  style="overflow:visible;fill:none;stroke:#1A2E35;stroke-linecap:round;stroke-linejoin:round;stroke-miterlimit:10;"/>
			</g>
			<g>
				<path class="st4" d="M374.5,249.5h3.8c2.4,0,3.6,1.3,3.6,3.8v7.8c0,2.5-1.2,3.8-3.6,3.8h-3.8V249.5z M377,251.7v11h1.4
					c0.8,0,1.2-0.4,1.2-1.5v-8c0-1.1-0.5-1.5-1.2-1.5H377z"/>
				<path class="st4" d="M386,256h3.3v2.2H386v4.5h4.2v2.2h-6.6v-15.4h6.6v2.2H386V256z"/>
				<path class="st4" d="M398.7,259.2v2.1c0,2.5-1.2,3.9-3.6,3.9c-2.4,0-3.6-1.4-3.6-3.9v-8c0-2.5,1.2-3.9,3.6-3.9
					c2.4,0,3.6,1.4,3.6,3.9v1.5h-2.3V253c0-1.1-0.5-1.5-1.3-1.5c-0.8,0-1.3,0.4-1.3,1.5v8.3c0,1.1,0.5,1.5,1.3,1.5
					c0.8,0,1.3-0.4,1.3-1.5v-2.2H398.7z"/>
				<path class="st4" d="M400.2,249.5h2.4v13.2h4v2.2h-6.4V249.5z"/>
				<path class="st4" d="M407.6,249.5h2.4v15.4h-2.4V249.5z"/>
				<path class="st4" d="M414,253.7L414,253.7l0,11.2h-2.2v-15.4h3l2.4,9.2h0v-9.2h2.2v15.4H417L414,253.7z"/>
				<path class="st4" d="M423.7,256h3.3v2.2h-3.3v4.5h4.2v2.2h-6.6v-15.4h6.6v2.2h-4.2V256z"/>
			</g>
		</g>
		<g class="st5">
			<path class="st6" d="M527.3,146.1c0,13-3.9,25-10.7,35c-11.3,16.8-30.5,27.9-52.2,27.9c-20.9,0-39.4-10.2-50.8-25.8
				c-7.6-10.4-12.1-23.2-12.1-37.1c0-34.7,28.2-62.9,62.9-62.9S527.3,111.3,527.3,146.1z"/>
			<g>
				<path class="st8" d="M516.7,181.1c-11.3,16.8-30.5,27.9-52.2,27.9c-20.9,0-39.4-10.2-50.8-25.8c0.4-0.6,0.7-1.3,1.1-1.9
					c2.4-3.8,16.5-9.9,36.6-12.1c4.3-0.5,8.9-0.8,13.6-0.8c5-0.1,10,0.3,14.8,0.9C497.2,171.4,511.7,177.2,516.7,181.1z"/>
				<path class="st9" d="M481.2,170.7c0,0-4.4,9-15.7,9c-9.3,0-16-8-16-8c3.3-2.9,3.5-8.3,3-12.6c-0.4-3.5-1.2-6.2-1.2-6.2h27.7
					c-1.7,5.5-1.6,9.5-1,12.3C478.9,169.3,481.2,170.7,481.2,170.7z"/>
				<path class="st4" d="M478,165.2c-20,5.2-24-6.2-24-6.2l-1.5,0.1c-0.4-3.5-1.2-6.2-1.2-6.2h27.7
					C477.2,158.5,477.3,162.4,478,165.2z"/>
				<g>
					<g>
						<path class="st9" d="M485,133.5c0,0,2.2-2.4,3.3-1.6c1.1,0.8,2.4,3.1,1.8,5.1c-0.6,2.1-3.2,5.6-3.4,7.7
							c-0.2,2.1-1.5,4.5-3,3.1S485,133.5,485,133.5z"/>
						<path class="st9" d="M445.2,133.5c0,0-2.2-2.4-3.3-1.6s-2.4,3.1-1.8,5.1c0.6,2.1,3.2,5.6,3.4,7.7c0.2,2.1,1.5,4.5,3,3.1
							C448,146.4,445.2,133.5,445.2,133.5z"/>
					</g>
					<path class="st9" d="M464.6,105.5c28,0,21.4,37.3,16.2,49.3c-1.8,4.2-11.2,9.7-15.7,9.7c-4.2,0-13.9-6.6-15.6-10.6
						C444.3,142,437.9,105.5,464.6,105.5z"/>
					<g>
						<path class="st3" d="M469.4,128.6c0,0,7.3-2.3,9.6,2.3"/>
						<path class="st4" d="M474.8,134.7c0,0.9-0.4,1.6-1,1.6c-0.5,0-1-0.7-1-1.6c0-0.9,0.4-1.6,1-1.6
							C474.3,133.1,474.8,133.8,474.8,134.7z"/>
						<path class="st3" d="M460.8,128.6c0,0-7.3-2.3-9.6,2.3"/>
						<path class="st4" d="M455.4,134.7c0,0.9,0.4,1.6,1,1.6c0.5,0,1-0.7,1-1.6c0-0.9-0.4-1.6-1-1.6
							C455.8,133.1,455.4,133.8,455.4,134.7z"/>
					</g>
					<path class="st4" d="M476.2,115c0,0-10.1,3.8-21.6,0c0,0-3.8-0.2-5.3,1.7c-1.5,1.9,0,7.8,0.4,10.2c0.4,2.4-3.3,4-2.8,10.1
						l-1.4,2.1c0,0-4-9.7-3-18.1c1-8.4,6.3-11.6,6.3-11.6s2.4-7.2,16.5-7.2c15.2,0.1,16.7,8.3,16.7,8.3s10.3,6.9,2.7,29.3l-1.7-2.8
						c0,0,0.8-4.5-1.9-8.5c-1.3-1.9,0.8-7.8,0.3-10.8C481,114.7,476.2,115,476.2,115z"/>
					<path class="st3" d="M466.8,133.1c0,0,0.1,6.8,1.9,9c0.9,1.1-0.9,3.6-3.6,4"/>
					<path class="st9" d="M458.9,150.2c0,0,0.7,2.5,2.6,3.4c1.9,0.8,7.7,0.5,8.8-0.2c1.1-0.7,1.6-2.9,1.6-2.9"/>
					<path class="st3" d="M458.3,150c0,0,5.8,1.6,14.5,0"/>
					<path class="st4" d="M478.9,115.3c0,0-3.1,4.7-13.4,5.6c0,0,1-0.9,1.8-2.6c0,0-4.2,3.6-10.9,2.6c-6.7-1-10.5,4.3-10.5,4.3
						l-1.7,7.9c0,0-6.2-7-1.8-18.1l-1.6,1.3c0,0,1.7-15,19.7-15.5l-2.2-1.3c0,0,17.9-3.8,24.9,8c0,0,6.2,1.2,7.8,11.9l-1.7-1.1
						c0,0,2.8,8.9-3,16.4C486.3,134.7,478.9,122.9,478.9,115.3z"/>
				</g>
			</g>
		</g>
		<path class="st10" d="M532.8,64.4H396c-1.9,0-3.5-1.6-3.5-3.5l0,0c0-1.9,1.6-3.5,3.5-3.5h136.8c1.9,0,3.5,1.6,3.5,3.5l0,0
			C536.3,62.8,534.7,64.4,532.8,64.4z"/>
		<g class="st11">
			<path d="M523,218.8H405.8c-0.8,0-1.4-0.6-1.4-1.4l0,0c0-0.8,0.6-1.4,1.4-1.4H523c0.8,0,1.4,0.6,1.4,1.4l0,0
				C524.4,218.2,523.8,218.8,523,218.8z"/>
			<path d="M511.4,226.2h-94c-0.8,0-1.4-0.6-1.4-1.4l0,0c0-0.8,0.6-1.4,1.4-1.4h94c0.8,0,1.4,0.6,1.4,1.4l0,0
				C512.8,225.6,512.2,226.2,511.4,226.2z"/>
		</g>
		<g class="st5">
			<path class="st12" d="M527.1,206H506c-2.7,0-4.8-2.2-4.8-4.8v-21.1c0-2.7,2.2-4.8,4.8-4.8h21.1c2.7,0,4.8,2.2,4.8,4.8v21.1
				C531.9,203.8,529.8,206,527.1,206z"/>
			<polygon class="st13" points="524.2,188.9 518.3,188.9 518.3,183 514.8,183 514.8,188.9 508.9,188.9 508.9,192.4 514.8,192.4 
				514.8,198.3 518.3,198.3 518.3,192.4 524.2,192.4 			"/>
		</g>
		<path class="st14" d="M594.8,37.4c0,3.1-2.5,5.7-5.7,5.7c-3.1,0-5.7-2.5-5.7-5.7c0-3.1,2.5-5.7,5.7-5.7
			C592.3,31.7,594.8,34.2,594.8,37.4z"/>
		<path class="st14" d="M578.6,37.4c0,3.1-2.5,5.7-5.7,5.7c-3.1,0-5.7-2.5-5.7-5.7c0-3.1,2.5-5.7,5.7-5.7
			C576,31.7,578.6,34.2,578.6,37.4z"/>
		<path class="st15" d="M487.2,265.6c0,0,7.3,1.6,7.5,6.9c0.6,11.4,0.5,11.7-7.4,10.7c0,0-4.8,6.6-16.5,4.7c0,0-1.5,2.3-4,6H446
			c5.7-6.9,10.4-12.5,12.4-15.2c7.4-9.9,42.1-24.4,42.1-24.4S500.3,258.1,487.2,265.6z"/>
		
			<use xlink:href="#XMLID_332_"  style="overflow:visible;fill:none;stroke:#1A2E35;stroke-linecap:round;stroke-linejoin:round;stroke-miterlimit:10;"/>
	</g>
	<g>
		<path class="st9" d="M225.8,457.3c0,0,2-14.9,3.6-21c1.5-6.1,10.5-29.8,12.4-43.1l-22.9-18.2c0,0-8.6,44.5-8.6,51.5l-4.7,15.2"/>
		<g>
			<defs>
				<path id="XMLID_3_" d="M248.5,410c-4.8-3.7-9.5-7.5-14.2-11.6c-6.7-5.9-13.3-12.1-19.6-18.7c1.5-6.8,3.4-14.8,5.7-21.9
					c2.7-8.3,8.1-13.2,12.9-16.1c0.1-0.1,0.2-0.1,0.2-0.1c0.4-0.2,0.7-0.4,1.1-0.6c0.7-0.4,1.3-0.7,1.9-1c3.7-1.7,6.5-2.1,6.5-2.1
					l4.9,64.8L248.5,410z"/>
			</defs>
			<use xlink:href="#XMLID_3_"  style="overflow:visible;fill:#5AE4A7;"/>
			<clipPath id="XMLID_6_">
				<use xlink:href="#XMLID_3_"  style="overflow:visible;"/>
			</clipPath>
			<path class="st16" d="M248.5,410c-4.8-3.7-9.5-7.5-14.2-11.6c-6.7-5.9-13.3-12.1-19.6-18.7c1.5-6.8,3.4-14.8,5.7-21.9
				c2.7-8.3,8.1-13.2,12.9-16.1c0.1-0.1,0.2-0.1,0.2-0.1c0.4-0.2,0.7-0.4,1.1-0.6c0.7-0.4,1.3-0.7,1.9-1c3.7-1.7,6.5-2.1,6.5-2.1
				l4.9,64.8L248.5,410z"/>
			
				<use xlink:href="#XMLID_3_"  style="overflow:visible;fill:none;stroke:#1A2E35;stroke-linecap:round;stroke-linejoin:round;stroke-miterlimit:10;"/>
		</g>
		<path class="st3" d="M224.7,373.9c0,0,2.7,18.1,14.9,25.1"/>
		<path class="st1" d="M347.5,388.6c0,9.3-7.6,46.8-7.6,46.8l-0.3,33c0,0-15.6,5.2-40.9,5.2c-30.9,0-44.6-8.3-45.8-9.1
			c0,0-0.1,0-0.1-0.1l4.6-22.9c0,0-24.3-57.5-24.8-59.5c-0.8-2.9-1.4-5.9-1.9-8.8c-1.3-7.3-1.8-14.5-1-20.7c0.5-4.2,1.6-8,3.4-11.1
			c0.1-0.2,0.3-0.5,0.4-0.7c0.6-1,1.4-2,2.2-2.8c0.1-0.1,0.1-0.2,0.2-0.2c0.8-0.8,1.6-1.5,2.4-2.1c0,0,0,0,0,0
			c0.3-0.2,0.6-0.4,0.9-0.6c0.2-0.2,0.5-0.3,0.8-0.5c0.2-0.1,0.3-0.2,0.5-0.3c0.2-0.1,0.4-0.3,0.6-0.4c0.3-0.2,0.6-0.4,1-0.6
			c18.3-10.2,52.4-8.6,52.4-8.6c0.3-0.1,0.7-0.2,1.1-0.2c0,0,0.1,0,0.1,0c0.6,0,1.3,0,2,0.2c8.5,1.6,24,15.5,35.5,31.3
			c3.5,4.9,6.7,9.9,9.1,14.8C345.6,377.1,347.5,383.3,347.5,388.6z"/>
		<path class="st17" d="M347.3,385.5c-9.3-2.6-17.2-8.5-17.2-8.5c-8.2,1.5-16.2-6.6-18.2-11l27-1.7c1.3,2.2,2.5,4.3,3.6,6.5
			C345,375.8,346.7,380.9,347.3,385.5z"/>
		<path class="st17" d="M263.1,447.5c0,0,6.1,26-10,17c0,0-0.1,0-0.1-0.1l4.6-22.9c0,0-24.3-57.5-24.8-59.5
			c-0.8-2.9-1.4-5.9-1.9-8.8c-1.3-7.3-1.8-14.5-1-20.7c0.5-4.2,1.6-8,3.4-11.1c0.1-0.2,0.3-0.5,0.4-0.7c0.6-1,1.4-2,2.2-2.8
			c0.1-0.1,0.1-0.2,0.2-0.2c0.8-0.8,1.6-1.5,2.4-2.1c0,0,0,0,0,0c0.3-0.2,0.6-0.4,0.9-0.6c0.2-0.2,0.5-0.3,0.8-0.5
			c0.2-0.1,0.3-0.2,0.5-0.3c0.2-0.1,0.4-0.3,0.6-0.4c0.3-0.2,0.6-0.4,1-0.6c16.9,1.3,35.6,9.3,39.2,25.7c0,0-1.5,25.1-7,34.3
			c-3.4,5.7-4.6,32.4,12.3,24.7C281.4,444.5,263.1,447.5,263.1,447.5z"/>
		<path id="XMLID_2_" class="st3" d="M252.9,464.5l4.6-22.9c0,0-24.3-57.5-24.8-59.5c-0.8-2.9-1.4-5.9-1.9-8.8
			c-1.3-7.3-1.8-14.5-1-20.7c0.5-4.2,1.6-8,3.4-11.1c0.1-0.2,0.3-0.5,0.4-0.7c0.6-1,1.4-2,2.2-2.8c0.1-0.1,0.1-0.2,0.2-0.2
			c0.8-0.8,1.6-1.5,2.4-2.1c0,0,0,0,0,0c16.9-12.8,56.2-11,56.2-11c0.3-0.1,0.7-0.2,1.1-0.2c0,0,0.1,0,0.1,0c0.6,0,1.3,0,2,0.2
			c8.5,1.6,24,15.5,35.5,31.3c3.5,4.9,6.7,9.9,9.1,14.8c3.2,6.4,5.1,12.6,5.1,18c0,9.3-7.6,46.8-7.6,46.8l-0.3,33"/>
		<g>
			<path class="st9" d="M311.6,272.1c-1.4-1.7-7.5-5.8-7.5-5.8c-1.2-8-1.9-18.7-10.2-27c-11.4-11.3-37.6-7.8-46.2,9.2
				c-17.1,33.8,15.3,65.6,54.9,58.9c3.4-0.6,5.7-3.9,6.1-19.6l1.1-2.2c0,0-1.1-3.7-1.4-5.6C310.4,278,312.6,273.4,311.6,272.1z"/>
			<path class="st3" d="M301.9,253.8c0,0-1.5,2.3-2.3,5.3"/>
			<path class="st3" d="M302.5,268.9c0,0,2.8,1.7,4,6.9"/>
			<path class="st3" d="M309.4,286.3c0,0-1.1,1.7-5.6,1.2"/>
			<path class="st4" d="M297.7,234.9c0,0,10.4-4.3,7.4,16.1c-3,20.4-18.1,44.7-30.8,40.1l0.2-1.8c0,0,11.1,4.4,20.5-15
				c9.4-19.4,8.6-37.1,3.2-34L297.7,234.9z"/>
			<path class="st4" d="M296.7,266.6c0,0-4,10.5-7.2,13.9c0,0-1.3-4-4.4-4.1c-3.1,0-5.8-8.2-5.8-8.2L296.7,266.6z"/>
			<path class="st4" d="M292.4,267c0,0-7.3,17.9-2,31.7c5.4,13.8,20.5,24.2,20.5,24.2l-4.9-2.2c0,0-12.9-8.5-17.3-23.1
				c-4.5-14.6-0.2-28.4-0.2-28.4L292.4,267z"/>
			<path class="st4" d="M232,243.2c0,0-12.3,5-11.6,23.1c0.7,18.1,13.1,33.9,15.6,57c2.2,20.1-19.7,37.8,2.5,61.2
				c0,0-9.7-15.1-6.7-32c3-16.9,13.1-14.4,5.6-41.9c-7.5-27.5-23.5-43.7-7-61.2L232,243.2z"/>
			<path class="st4" d="M303.2,318.3c-22.4-12.5-16.3-39.1-16.3-39.1c16.8-12.4,19.1-35.6,16-41.6c-3.1-5.9-9.8-3.9-9.8-3.9
				c-26.8-12.7-59.8-0.8-66,17.9c-8,24,5.7,42.5,12.4,62.7c6,18.1-7.9,21.4-7.9,39.5c-2.6,33.6,31.9,47.7,31.9,47.7s-3-1.6-3-5.3
				c0-3.7,9.4-3.7,15.6-14c5.1-8.6,5.5-29.6,7.3-39.7c2.3-9.2,5.2-16.5,11.2-17.9c15.8-3.5,29.4,11.8,29.4,11.8
				S325.6,330.7,303.2,318.3z"/>
			<g class="st18">
				<path class="st19" d="M296.7,237.4c2.4,4.3-15.8,26.9-22.5,46.5c-6.6,19.6,0.1,31,0.1,31"/>
				<path class="st19" d="M255.7,243.2c0,0-19.9,17.1-8.6,48.5c11.3,31.3,6.3,53,2.5,69.8s-0.7,22.7,3.9,27.3"/>
				<path class="st19" d="M280.8,295c0,0,10.7,12,3.3,29.4c-7.3,17.4-11.3,29.8-14.1,43.3c-2.8,13.5-8.9,16.9-8.9,16.9"/>
				<path class="st19" d="M281.4,234.5c0,0-11-0.5-16.2,13.6c-5.2,14.1-0.3,38.4-2.1,46.9"/>
				<path class="st19" d="M252.9,234.5c0,0-16.2,0.7-21.3,23c-5.2,22.3,10.4,41.1,12,58.5c1.6,17.4-8.1,33.5-7.5,45.5
					c0.6,12,7.5,18.3,7.5,18.3"/>
			</g>
		</g>
		<path class="st9" d="M353.9,326.4c0,0,35.3,2.6,40.4,2.6c5,0,51.9-46.4,60.1-55.5c8.3-9.2,44.1-20.6,44.1-20.6s-0.5,3.8-14.2,10.1
			c0,0,7.1,2.2,6.9,7.5c-0.5,11.4-0.5,11.7-8.4,10c0,0-5.4,6.2-16.9,3.3c0,0-27.5,34.2-39.7,49.9c-12.2,15.6-17.2,20.8-21.8,22.6
			c-4.6,1.7-60.6,5.3-60.6,5.3L353.9,326.4z"/>
		<path class="st6" d="M309.4,368c18.3,11.5,49.1-2.8,49.1-2.8s5.5-25,0-40.9c0,0-38.6-7.5-59.7-0.3c-2.2,0.7-3.8,2.5-4.9,4.8"/>
		<path class="st3" d="M353.7,323.5c0,0,5,17.4,0.7,39.2"/>
		<path class="st3" d="M347.5,339.6c0,0-12.7,20.8-29.1,23.9"/>
		<path class="st3" d="M335.6,371.9c0,0-8.5,10.1-18.9,10.1"/>
		<path class="st3" d="M327.5,372.5c0,0,1.4,3.2,0,6.1l0,0c0,0,1.4,6-1.3,14.8c-2,6.4-1.9,24.7-2.8,37.5c0,0,2.9,15.5,2.8,38.7"/>
		<path class="st3" d="M307.9,322c0,0,15.8-1,25.1,10"/>
		<path class="st3" d="M488.3,273.6c0,0-2.3,4-5,4.9c0,0-0.2,4.2-7.2,5.6"/>
		<path class="st3" d="M486.4,276.3c0,0,1.2,0.7,1.4,1.7"/>
		<path class="st3" d="M257.5,441.6c0,0,16.3,21.3,31.9,13.6"/>
		<path class="st3" d="M298.8,397.6c0,0-11,33.8-35.8,32.3"/>
	</g>
</g>
</svg>
