<?xml version="1.0" encoding="utf-8"?>
<!-- Generator: Adobe Illustrator 23.0.1, SVG Export Plug-In . SVG Version: 6.00 Build 0)  -->
<svg version="1.1" id="Calque_1" xmlns="http://www.w3.org/2000/svg" xmlns:xlink="http://www.w3.org/1999/xlink" x="0px" y="0px"
	 viewBox="0 0 800.2 498.1" style="enable-background:new 0 0 800.2 498.1;" xml:space="preserve">
<style type="text/css">
	.st0{fill:#FFF0C0;}
	.st1{fill:none;stroke:#1A2E35;stroke-linecap:round;stroke-linejoin:round;stroke-miterlimit:10;}
	.st2{fill:#F4C031;stroke:#1A2E35;stroke-linecap:round;stroke-linejoin:round;stroke-miterlimit:10;}
	.st3{fill:#FFFFFF;stroke:#1A2E35;stroke-linecap:round;stroke-linejoin:round;stroke-miterlimit:10;}
	.st4{fill:#1A2E35;stroke:#1A2E35;stroke-linecap:round;stroke-linejoin:round;stroke-miterlimit:10;}
	.st5{fill:#FFFFFF;}
	.st6{fill:#999999;stroke:#1A2E35;stroke-linecap:round;stroke-linejoin:round;stroke-miterlimit:10;}
	.st7{fill:#1A2E35;}
	.st8{fill:none;stroke:#808080;stroke-linecap:round;stroke-linejoin:round;}
	.st9{fill:#757575;stroke:#1A2E35;stroke-linecap:round;stroke-linejoin:round;stroke-miterlimit:10;}
	.st10{fill:none;stroke:#1A2E35;stroke-width:0.75;stroke-linecap:round;stroke-linejoin:round;stroke-miterlimit:10;}
	.st11{fill:#5AE4A7;stroke:#1A2E35;stroke-linecap:round;stroke-linejoin:round;stroke-miterlimit:10;}
	.st12{fill:#858585;stroke:#1A2E35;stroke-linecap:round;stroke-linejoin:round;stroke-miterlimit:10;}
	.st13{fill:#1A2E35;stroke:#1A2E35;stroke-miterlimit:10;}
</style>
<rect class="st0" width="800.2" height="498.1"/>
<g>
	<path class="st1" d="M514.3,78.9h72.8c2.6,0,4-3.3,2.1-5c-0.9-0.8-2.3-1.6-4.4-2c-1.2-0.2-2-1.2-2.2-2.4c-0.8-5-4.2-17.6-16.7-17.8
		c-11.2-0.2-16.6,6.8-18.7,10.9c-0.7,1.3-2.2,1.9-3.6,1.4c-2.4-0.8-6-1-8.9,3.8c-0.7,1.2-2.1,1.7-3.4,1.3c-2.6-0.8-7.1-1.2-10.3,3
		c-0.6,0.8-1.6,1.3-2.6,1.1c-1.1-0.1-2.6-0.3-4.2-0.2C510.3,73.1,510.5,78.9,514.3,78.9z"/>
	<path class="st1" d="M279,225.6h49.7c1.8,0,2.8-2.2,1.4-3.4c-0.6-0.6-1.6-1.1-3-1.4c-0.8-0.2-1.4-0.8-1.5-1.6
		c-0.6-3.4-2.9-12-11.4-12.2c-7.7-0.2-11.3,4.7-12.8,7.4c-0.5,0.9-1.5,1.3-2.5,1c-1.6-0.6-4.1-0.7-6.1,2.6c-0.5,0.8-1.4,1.2-2.3,0.9
		c-1.8-0.5-4.8-0.8-7,2c-0.4,0.5-1.1,0.9-1.8,0.8c-0.7-0.1-1.8-0.2-2.9-0.1C276.2,221.7,276.4,225.6,279,225.6z"/>
	<path class="st1" d="M196.9,72.1h112.3c4.1,0,6.2-5,3.3-7.8c-1.4-1.3-3.6-2.5-6.8-3.1c-1.8-0.4-3.1-1.9-3.4-3.7
		c-1.3-7.8-6.5-27.1-25.8-27.5c-17.3-0.4-25.6,10.5-28.9,16.8c-1.1,2-3.4,3-5.6,2.2c-3.6-1.3-9.2-1.6-13.8,5.8
		c-1.1,1.8-3.2,2.6-5.2,2c-4.1-1.2-10.9-1.8-15.9,4.6c-1,1.2-2.5,2-4,1.8c-1.7-0.2-4-0.4-6.4-0.3C190.7,63.2,191,72.1,196.9,72.1z"
		/>
	<g>
		<g>
			<g>
				<path class="st2" d="M623.8,412.4h-65.5c-3.8,0-6.9-3.1-6.9-6.9V222.7c0-1.9-0.8-3.7-2.2-5l-37.9-35.4c-1.3-1.2-3-1.9-4.7-1.9
					H292c-1.8,0-3.5,0.7-4.8,1.9l-36.4,35c-1.3,1.3-2.1,3.1-2.1,5v183.3c0,3.8-3.1,6.9-6.9,6.9h-65.5c-3.8,0-6.9-3.1-6.9-6.9v-217
					c0-1.9,0.8-3.7,2.1-5l83.7-80.5c1.3-1.2,3-1.9,4.8-1.9H538c1.7,0,3.4,0.7,4.7,1.9l85.8,80.3c1.4,1.3,2.2,3.1,2.2,5v217.2
					C630.7,409.4,627.6,412.4,623.8,412.4z"/>
			</g>
			<g>
				<rect x="169.5" y="237.8" class="st3" width="19.8" height="19.8"/>
				<rect x="209.1" y="237.8" class="st3" width="19.8" height="19.8"/>
				<rect x="189.3" y="257.6" class="st3" width="19.8" height="19.8"/>
				<rect x="228.9" y="257.6" class="st3" width="19.8" height="19.8"/>
				<rect x="169.5" y="277.4" class="st3" width="19.8" height="19.8"/>
				<rect x="209.1" y="277.4" class="st3" width="19.8" height="19.8"/>
				<rect x="189.3" y="297.2" class="st3" width="19.8" height="19.8"/>
				<rect x="228.9" y="297.2" class="st3" width="19.8" height="19.8"/>
				<rect x="169.5" y="317" class="st3" width="19.8" height="19.8"/>
				<rect x="209.1" y="317" class="st3" width="19.8" height="19.8"/>
				<rect x="189.3" y="336.8" class="st3" width="19.8" height="19.8"/>
				<rect x="228.9" y="336.8" class="st3" width="19.8" height="19.8"/>
				<rect x="169.5" y="356.6" class="st3" width="19.8" height="19.8"/>
				<rect x="209.1" y="356.6" class="st3" width="19.8" height="19.8"/>
				<rect x="189.3" y="237.8" class="st4" width="19.8" height="19.8"/>
				<rect x="228.9" y="237.8" class="st4" width="19.8" height="19.8"/>
				<rect x="169.5" y="257.6" class="st4" width="19.8" height="19.8"/>
				<rect x="209.1" y="257.6" class="st4" width="19.8" height="19.8"/>
				<rect x="189.3" y="277.4" class="st4" width="19.8" height="19.8"/>
				<rect x="228.9" y="277.4" class="st4" width="19.8" height="19.8"/>
				<rect x="169.5" y="297.2" class="st4" width="19.8" height="19.8"/>
				<rect x="209.1" y="297.2" class="st4" width="19.8" height="19.8"/>
				<rect x="189.3" y="317" class="st4" width="19.8" height="19.8"/>
				<rect x="228.9" y="317" class="st4" width="19.8" height="19.8"/>
				<rect x="169.5" y="336.8" class="st4" width="19.8" height="19.8"/>
				<rect x="209.1" y="336.8" class="st4" width="19.8" height="19.8"/>
				<rect x="189.3" y="356.6" class="st4" width="19.8" height="19.8"/>
				<rect x="228.9" y="356.6" class="st4" width="19.8" height="19.8"/>
			</g>
			<g>
				<rect x="551.5" y="237.8" class="st3" width="19.8" height="19.8"/>
				<rect x="591.1" y="237.8" class="st3" width="19.8" height="19.8"/>
				<rect x="571.3" y="257.6" class="st3" width="19.8" height="19.8"/>
				<rect x="610.9" y="257.6" class="st3" width="19.8" height="19.8"/>
				<rect x="551.5" y="277.4" class="st3" width="19.8" height="19.8"/>
				<rect x="591.1" y="277.4" class="st3" width="19.8" height="19.8"/>
				<rect x="571.3" y="297.2" class="st3" width="19.8" height="19.8"/>
				<rect x="610.9" y="297.2" class="st3" width="19.8" height="19.8"/>
				<rect x="551.5" y="317" class="st3" width="19.8" height="19.8"/>
				<rect x="591.1" y="317" class="st3" width="19.8" height="19.8"/>
				<rect x="571.3" y="336.8" class="st3" width="19.8" height="19.8"/>
				<rect x="610.9" y="336.8" class="st3" width="19.8" height="19.8"/>
				<rect x="551.5" y="356.6" class="st3" width="19.8" height="19.8"/>
				<rect x="591.1" y="356.6" class="st3" width="19.8" height="19.8"/>
				<rect x="571.3" y="237.8" class="st4" width="19.8" height="19.8"/>
				<rect x="610.9" y="237.8" class="st4" width="19.8" height="19.8"/>
				<rect x="551.5" y="257.6" class="st4" width="19.8" height="19.8"/>
				<rect x="591.1" y="257.6" class="st4" width="19.8" height="19.8"/>
				<rect x="571.3" y="277.4" class="st4" width="19.8" height="19.8"/>
				<rect x="610.9" y="277.4" class="st4" width="19.8" height="19.8"/>
				<rect x="551.5" y="297.2" class="st4" width="19.8" height="19.8"/>
				<rect x="591.1" y="297.2" class="st4" width="19.8" height="19.8"/>
				<rect x="571.3" y="317" class="st4" width="19.8" height="19.8"/>
				<rect x="610.9" y="317" class="st4" width="19.8" height="19.8"/>
				<rect x="551.5" y="336.8" class="st4" width="19.8" height="19.8"/>
				<rect x="591.1" y="336.8" class="st4" width="19.8" height="19.8"/>
				<rect x="571.3" y="356.6" class="st4" width="19.8" height="19.8"/>
				<rect x="610.9" y="356.6" class="st4" width="19.8" height="19.8"/>
			</g>
		</g>
	</g>
	<g>
		<g>
			<g>
				<path class="st5" d="M378.4,136.6l-6.6,1.4v-4.5c5.3-1.1,7.2-2.7,8.7-6.9l4.3-0.9v40.3l-6.3,1.3V136.6z"/>
				<path class="st5" d="M392.1,154.8v-21.2c0-6.4,3.4-10.8,9.6-12.2c6.2-1.3,9.6,1.6,9.6,8.1v21.2c0,6.4-3.4,10.8-9.6,12.2
					C395.5,164.2,392.1,161.3,392.1,154.8z M405,152.5v-22c0-2.9-1.3-3.7-3.3-3.3c-2,0.4-3.3,1.8-3.3,4.7v22c0,2.9,1.3,3.7,3.3,3.3
					C403.7,156.7,405,155.4,405,152.5z"/>
				<path class="st5" d="M415.6,119.1l6.3-1.3v17l8.1-18.7l6.3-1.3l-7.5,16.4l7.6,23.8l-6.6,1.4l-5.3-16.8l-2.5,5.7V158l-6.3,1.3
					V119.1z"/>
			</g>
		</g>
	</g>
	<g>
		<line class="st1" x1="483.4" y1="419.4" x2="657.5" y2="468.1"/>
		<line class="st1" x1="458.7" y1="412.4" x2="478.6" y2="418"/>
		<line class="st1" x1="527.8" y1="455.6" x2="435.2" y2="412.4"/>
		<line class="st1" x1="554.5" y1="468.1" x2="532.2" y2="457.7"/>
		<line class="st1" x1="423.4" y1="428.7" x2="411.8" y2="412.4"/>
		<line class="st1" x1="451.6" y1="468.1" x2="426.1" y2="432.5"/>
		<line class="st1" x1="359.1" y1="453.4" x2="388.4" y2="412.4"/>
		<line class="st1" x1="348.6" y1="468.1" x2="355.3" y2="458.7"/>
		<line class="st1" x1="327.9" y1="429.7" x2="365" y2="412.4"/>
		<line class="st1" x1="245.7" y1="468.1" x2="320.9" y2="433"/>
		<line class="st1" x1="198.6" y1="452.5" x2="341.5" y2="412.4"/>
		<line class="st1" x1="142.7" y1="468.1" x2="182.9" y2="456.9"/>
		<line class="st1" x1="142.7" y1="412.4" x2="657.5" y2="412.4"/>
	</g>
	<g>
		<g>
			<path class="st2" d="M305.1,405.8c0,0,2.4,0.7,2.1,3.6c-0.2,2.8,2.8,10.7-0.3,12.4c-3.5,1.9-9.6,1.7-10,0s1.5-4.3,1.3-6.4
				c-0.1-2.1-1.6-9,0.9-9.6C301.6,405.2,305.1,405.8,305.1,405.8z"/>
			<path class="st6" d="M305.7,407.6c-0.3,0.3-0.6,0.7-0.7,1.3c-0.2,1.6-0.7-2.1-3.3-1.8c-2.6,0.3-1.7,2.4-2.2,2.6
				c-0.2,0.1-0.3-0.7-0.4-1.4c0-3.7-0.1-10.6-0.8-13.6c-0.9-4.2-1.9-11.7-1.3-14.2c0,0-4.7-5.3-4.9-23.3h13.5v18.2
				c0,0,3.7,4.8,2.2,14.2C306.7,396.3,306,403.9,305.7,407.6z"/>
			<path class="st1" d="M297.4,377.6c0,0,0.4,5.1,3.3,6.3"/>
			<path class="st1" d="M297,420.1c0,0,2.6-2.3,5.1-2.2"/>
		</g>
		<g>
			<path class="st2" d="M287.3,383.9c0,0,2,3.4,0.5,8.2c-1.5,4.8,0.7,10.3-2.4,12.3c-3.1,1.9-11.7,0.9-9.1-6.3
				c2.5-7.2,1.7-11.8,4.6-13.5C283.8,383,287.3,383.9,287.3,383.9z"/>
			<path class="st6" d="M273.1,339.6l10.5,0.9l6.3,4.9c0,0,0.3,8.6-2.5,14.2l-1.6,5.5c0,0,1.2,2.7,0.9,6.7c-0.3,4-1.3,7.2-0.1,10.6
				c0.6,1.6,0.6,3.1,0.5,4.1c-0.1,0.2-0.3,0.4-0.4,0.8c-0.6,1.7-1.5-1.8-3.8-1.6c-2.3,0.2-1.2,2-1.7,2.1c-1.3-4-7.4-23.3-4.7-28.2
				c0,0-4.2-4.7-5.3-10.3C270,343.7,273.1,339.6,273.1,339.6z"/>
			<path class="st1" d="M276.3,359.7c0,0,1.1,2.8,2.8,3.3"/>
		</g>
		<path class="st7" d="M277.9,270c0,0-3.9-4.8-0.3-7.7c0,0,2.1-8.9,8.2-6.7c6.1,2.2,5.4,3.7,5.4,3.7s6.9,0.3,6.3,4
			c-0.6,3.7-1.9,3.4-1.9,3.4s1.9,0.9,1.1,3.7c-0.7,2.8-3.8,2.5-3.8,2.5L277.9,270z"/>
		<g>
			<path class="st6" d="M267.1,294.8c-1.3,0.6-4.9,3.1-4.9,3.1s0.2,2.2-3.5,6.2c-3.7,3.9-5.5,11.4-5.5,11.4c2.1,0.8,1.1,3.5,1.2,5.9
				c0.1,2.5,1.1,4.1,0.6,5.8c-0.5,1.7-2.2,0.7-2.2,0.7c-2.2,0-3.8-5-3.8-5s-0.8-5.6,1.2-14.2s5.4-14.7,5.4-14.7s4-4.6,5.5-6
				c1.8-1.6,7.9-5.9,7.9-5.9l1.6,11.8C270.6,293.8,267.9,294.4,267.1,294.8z"/>
			<path class="st1" d="M260.6,297.9c0,0-2.5,0.7-3.6-2.4"/>
			<path class="st1" d="M251.8,319c0,0,0.7,1.3,0.9,2.9c0.2,1.6,0.7,3.2,2.1,2"/>
		</g>
		<path class="st4" d="M303.7,336.9c0,0,3.3,6.7,3.1,21.8c0,0-5.1,2.1-9.9,0c-4.8-2.1-6.4,0.1-6.4,0.1l-0.7-5.1
			c0,0,0.6-11.2-9.1-10.5c-9.7,0.7-8.5,9.6-8.5,9.6s-4.5-12.4-0.9-17.6C274.9,330,303.7,336.9,303.7,336.9z"/>
		<g>
			<path class="st8" d="M290.4,343.5c0.6,1.8,1.1,4.4,0.6,8.5"/>
			<path class="st8" d="M288.4,340.5c0,0,0.4,0.2,1,1"/>
		</g>
		<g>
			<path class="st9" d="M305.5,288.3c0,0-16.1-14.4-36.5-6.3l2.2,37.2l-1.3,19c0,0,4.6-5.1,19.4,0c14.8,5.1,16.1,0,16.1,0l-2.7-30.9
				L305.5,288.3z"/>
			<path class="st3" d="M298.9,312.7l1.3,13.9c0,0-14.6,1.2-25.1-4l-0.8-14.5C274.4,308.1,283.6,311.9,298.9,312.7z"/>
			<path class="st7" d="M300,323.7c-11.2,1-20.8-1.9-25-3.5l-0.5-8.4c8.6,3.7,21.1,4.2,24.7,4.3L300,323.7z"/>
		</g>
		<path class="st6" d="M291.6,278.6c0,0,0.4,8.7-5,8.7c-6.9,0-6.5-7.8-6.5-7.8L291.6,278.6z"/>
		<path class="st6" d="M292.4,269.6c0,0,0.3,7.7-1,9.7c-1.2,2-4.6,4.9-7.3,4.9s-5.9-3.7-6.1-5.1s0-11,0-11s0.4-7.5,6.1-7.5
			S292.4,265.1,292.4,269.6z"/>
		<path class="st6" d="M278,270.2c-0.4-0.2-0.8-0.3-1.2-0.2c-0.9,0.3-1.3,1.6-0.8,2.9c0.4,1.1,1.2,1.8,1.9,1.9
			C278,273.2,278,271.5,278,270.2z"/>
		<path class="st7" d="M287,270.3c0,0.5,0.2,0.8,0.5,0.8c0.3,0,0.5-0.4,0.5-0.8c0-0.5-0.2-0.8-0.5-0.8
			C287.2,269.5,287,269.8,287,270.3z"/>
		<path class="st7" d="M281,270.2c0,0.5,0.2,0.8,0.5,0.8c0.3,0,0.5-0.4,0.5-0.8s-0.2-0.8-0.5-0.8C281.2,269.3,281,269.7,281,270.2z"
			/>
		<path class="st1" d="M282.9,268.4c0,0-1.8-1.6-3.1-0.8"/>
		<path class="st1" d="M285.8,268.4c0,0,1.8-1.6,3.1-0.8"/>
		<path class="st10" d="M285.8,277.3c0,0-2-0.9-4,0"/>
		<g>
			<path class="st6" d="M298.5,300c1.1,4.7,2.5,11.8,2.5,11.8l-5.4-4.7c0,0-2.1-5.8-4-7.6c-0.7-0.7-1.4-4.4-2.4-4
				c-1,0.4-0.1,2.4-0.1,2.4s-1.7,0.3-2.4,0.7c-0.7,0.3-2.4,7-1.6,7.5c0.8,0.6,1.7-1.6,2.1,0.9c0.4,2.5,4.7,4.7,4.7,4.7
				s7.2,10.1,10.3,11.8c3.1,1.7,6.5,2.6,7.5-6.2c1-8.7-1-16.9-1-16.9s2-9.6-3.3-12C300.2,285.9,297.2,294.9,298.5,300z"/>
			<line class="st1" x1="304.3" y1="314.9" x2="300.6" y2="311.4"/>
			<line class="st1" x1="291.2" y1="299.2" x2="289.1" y2="297.9"/>
			<path class="st3" d="M306.8,301.1c0,0-1.2,1.9-3.1,2.2"/>
		</g>
		<path class="st10" d="M283.8,270c0,0-0.7,3.3-1.5,3.7s0.1,1.4,0.6,1.5c0.5,0.1,2.2,0.2,2-0.4"/>
		<polygon class="st7" points="278,268.1 280.5,263.2 283.2,263.6 288,262.8 290.1,264.9 291.2,265.4 292.4,270.3 293.8,266.6 
			293.3,262.4 288,259.2 283.6,257.8 279.2,261.1 277.6,264.7 276.9,266.4 		"/>
		<path class="st6" d="M294,269.8c-0.5-0.2-1.1,0.1-1.6,0.5c0,0.9,0,2.4-0.1,4.1c0,0,0.1,0.1,0.1,0.1c0.9,0.3,1.9-0.5,2.4-1.8
			C295.3,271.3,294.9,270.1,294,269.8z"/>
		<path class="st7" d="M291.4,279.3c-1.2,2-4.6,4.9-7.3,4.9c-1.2,0-2.6-0.8-3.7-1.7c0.3,1.2,1,2.6,2.1,3.5c0.5,0.2,1,0.3,1.5,0.3
			c2.6,0,6-2.8,7.2-4.8c0.2-1.1,0.2-2,0.2-2.5C291.5,279.1,291.5,279.2,291.4,279.3z"/>
	</g>
	<g>
		<g>
			<path class="st2" d="M393.5,369.6c0,0-4,3.1-2.9,11.8c1.1,8.7-6.2,24.9,7.3,27.8c13.2,2.8,3.4-18.4,4.7-24s4.4-18.4-3-19.1
				L393.5,369.6z"/>
			<path class="st6" d="M393.1,375.5c0.3-0.3,0.5-0.7,0.4-1.2c-0.2-1.5,5.9-3.4,6.5-1.9c0.2,0.4,0.4,0.7,0.7,0.9
				c0-2.1,0.2-9.4,1.3-18.5c1.3-10.9,0-24.6,0-24.6l-16.4,3l1.5,9c0,0-5,4.6-1.5,16.2c3.5,11.6,6.8,16.6,6.8,16.6
				S392.7,375.2,393.1,375.5z"/>
			<path class="st4" d="M379.5,269.1c0,0-6.2,5.3-3.7,24.9c2.5,19.6,9,43.6,9,43.6s1.2,3.1,8.7,3.1c7.5,0,10.3-7.5,10.3-7.5
				l2.1-31.7v-28.5L379.5,269.1z"/>
			<path class="st1" d="M386.9,340c0,0,1.1,5.6,5.5,6.2"/>
		</g>
		<g>
			<path class="st2" d="M410.6,440h9.7c2.5,0,4.4-2.2,3.9-4.7c-0.4-2.3-0.7-5.2-0.4-7.6c0,0,2.2-6.1,0.3-14.8h-10.7
				c0,0-3.4,3.1-3.8,12.1c-0.3,7.5-2.6,8.5-2,12.4C407.8,438.9,409.1,440,410.6,440z"/>
			<path class="st6" d="M428.7,324.4c0,0-14.7-7.9-20.5,3.1c0,0,1,17.2,3.7,24.5c0,0-2.1,16.4,0,33c1.8,14.6,1.4,27.1,1.3,29.9
				c0.9-0.9,2.6-1.9,6-1.9c2.7,0,4,1.1,4.6,2.3c0.8-7.7,3.3-32.5,4.5-41.9c1.5-11.2-2.3-25.9-2.3-25.9L428.7,324.4z"/>
			<path class="st4" d="M402,274.1c0,0-1,36.4,4.9,59.1c0,0,1.9-7.5,10.9-7.5s10.3,7.5,10.3,7.5s8.1-58.5,0-66.6L402,274.1z"/>
			<g>
				<path class="st1" d="M415.1,347.1c0.8,2.4,2,5.3,3.4,6.2"/>
				<path class="st1" d="M414.1,343.5c0,0,0.2,0.8,0.6,2"/>
			</g>
			<g>
				<path class="st8" d="M404.6,321.7c0.3,1.8,0.6,3.6,0.9,5.3"/>
				<path class="st8" d="M402,287.8c0.2,8.1,0.6,18.7,1.9,28.9"/>
			</g>
		</g>
		<g>
			<path class="st6" d="M361.6,183.5c0,0-13.5-9.7-22.1-14.4c0,0-4.5-22.5-4.1-36.7c0,0-0.1-3.1,0-4.1c0.1-1.2,0.4-3.2,2.4-4.1
				c2-1,5.1-3.5,5.1-5.3s-1-6.5-1-6.5s-4.1-4.9-4.9-3.9c-0.4,0.4-0.4,1.3-0.1,2.3l-4.6-2.4c-3.2-2.6-5.7,3.1-7.3,6.8
				c-1.6,3.7-0.8,11.8-0.8,11.8c-3.2,28,0.8,46.5,0.8,46.5l14.2,13.8c17.9,16.4,22.5,15.2,22.5,15.2
				C366.8,196.3,361.6,183.5,361.6,183.5z"/>
			<g>
				<path class="st1" d="M337.8,124.1c2-1,5.1-3.5,5.1-5.3s-1-6.5-1-6.5s-4.1-4.9-4.9-3.9c-0.8,1,0,3.9,2,5.9l-1.2,3.4
					c0,0-5.7,0.4-7.1,3.2"/>
				<path class="st1" d="M327.9,111.5c0,0,1.2-1.5,1.8-1c0.6,0.5-0.8,4.4,0.6,5c1.4,0.6,2.8-1.6,2.9-2.6c0.1-1,0-3.1,0-3.1"/>
				<path class="st1" d="M331.7,115.3c0,0-0.6,1.3,0.8,2.2c1.4,0.9,3-1.2,3.3-2.2c0.3-1,0.5-3.3,0.5-3.3"/>
				<path class="st1" d="M330.3,115.6c0,0,0.3,2.1,0,3.2"/>
			</g>
		</g>
		<g>
			<path class="st6" d="M439.4,185.2c0,0,13.6-9.8,22.1-14.4c0,0,4.5-18.9,4.1-33.1c0,0,0.3-3.1,0-4.1c-0.3-1.3-1.6-3.2-3.6-4.1
				c-2-1-5.1-3.5-5.1-5.3s1-6.5,1-6.5s4.1-4.9,4.9-3.9c0.4,0.4,0.4,1.3,0.1,2.3l4.6-2.4c3.2-2.6,5.7,3.1,7.3,6.8
				c1.6,3.7,0.8,11.8,0.8,11.8c3.2,28,0.4,43.4,0.4,43.4l-14.2,13.4c-17.9,16.4-22.5,15.2-22.5,15.2
				C434.2,198,439.4,185.2,439.4,185.2z"/>
			<g>
				<path class="st1" d="M462,129.4c-2-1-5.1-3.5-5.1-5.3s1-6.5,1-6.5s4.1-4.9,4.9-3.9c0.8,1,0,3.9-2,5.9l1.2,3.4
					c0,0,5.7,0.4,7.1,3.2"/>
				<path class="st1" d="M471.9,116.8c0,0-1.2-1.5-1.8-1c-0.6,0.5,0.8,4.4-0.6,5c-1.4,0.6-2.8-1.6-2.9-2.6c-0.1-1,0-3.1,0-3.1"/>
				<path class="st1" d="M468.1,120.6c0,0,0.6,1.3-0.8,2.2c-1.4,0.9-3-1.2-3.3-2.2s-0.5-3.3-0.5-3.3"/>
				<path class="st1" d="M469.5,120.8c0,0-0.3,2.1,0,3.2"/>
			</g>
		</g>
		<g>
			<path class="st2" d="M369.2,211.5c0,0,3.7,16.2,6.6,59.8c0,0,25.7,16.2,55.6-2.9c0,0-5.4-33.6,0-58.1l10.8-5
				c0,0-3.3-10.4-1.7-22.4c0,0-4.2,2.5-5.8,2.5c-3.5-0.1-4.1-2.1-13.7,3.3c0,0-15.4-3.3-39.4-1.7c0,0-4.1-4.2-13.7-4.1
				c-1.8,0-7.1-0.8-7.1-0.8s3.7,9.5-2.5,21.2L369.2,211.5z"/>
			<path class="st3" d="M378.6,218.4c0,0,22.4,3.1,45.4,0v24.9c0,0-24.6,3.4-43.6,0L378.6,218.4z"/>
			<path class="st7" d="M379,224.3l1,13.9c16.3,1.3,32.8,0.6,43.9-0.3v-13.8C406.1,225.2,390.1,224.9,379,224.3z"/>
			<path class="st1" d="M368.7,197.4c0,0,3.6,9.5,2.6,11c-0.9,1.6-4.7-2.5-4.7-2.5"/>
			<path class="st11" d="M434.3,198.2c-0.9,2.1-2,5.1-2.5,8.5"/>
			<g>
				<path class="st1" d="M420,264.4c1.3,0,2.7-0.1,4-0.3"/>
				<path class="st1" d="M380.2,250c0,0,12.2,13.8,36,14.4"/>
			</g>
			<g>
				<path class="st5" d="M394.7,229.6h-1.7v-1.2c0.5,0,0.8,0,1.1-0.1c0.3-0.1,0.5-0.2,0.7-0.4c0.2-0.2,0.3-0.5,0.4-0.8h1.1v10.5
					h-1.6V229.6z"/>
				<path class="st5" d="M398.9,237c-0.4-0.5-0.6-1.1-0.6-1.9v-5.5c0-0.8,0.2-1.5,0.6-1.9c0.4-0.5,1-0.7,1.9-0.7
					c0.8,0,1.4,0.2,1.9,0.7c0.4,0.5,0.6,1.1,0.6,1.9v5.5c0,0.8-0.2,1.5-0.6,1.9c-0.4,0.5-1,0.7-1.9,0.7
					C399.9,237.7,399.3,237.5,398.9,237z M401.6,235.2v-5.7c0-0.7-0.3-1-0.9-1s-0.9,0.3-0.9,1v5.7c0,0.7,0.3,1,0.9,1
					S401.6,235.8,401.6,235.2z"/>
				<path class="st5" d="M404.8,237c-0.4-0.4-0.7-1.1-0.7-1.9v-0.9c0-0.5,0.1-1,0.3-1.3c0.2-0.4,0.4-0.6,0.8-0.8v0
					c-0.3-0.2-0.6-0.4-0.8-0.8c-0.2-0.3-0.2-0.8-0.2-1.3v-0.4c0-0.8,0.2-1.5,0.7-1.9c0.4-0.4,1.1-0.7,1.9-0.7c0.8,0,1.4,0.2,1.9,0.7
					c0.4,0.4,0.7,1.1,0.7,1.9v0.4c0,1-0.3,1.7-1,2.1v0c0.4,0.2,0.7,0.5,0.8,0.8c0.2,0.4,0.3,0.8,0.3,1.3v0.9c0,0.8-0.2,1.5-0.7,1.9
					c-0.4,0.4-1.1,0.7-1.9,0.7C405.9,237.7,405.2,237.5,404.8,237z M407.6,235v-1c0-0.8-0.3-1.2-0.9-1.2c-0.6,0-0.9,0.4-0.9,1.2v1
					c0,0.8,0.3,1.2,0.9,1.2C407.3,236.2,407.6,235.8,407.6,235z M407.5,230.3v-0.8c0-0.7-0.3-1-0.9-1c-0.6,0-0.9,0.3-0.9,1v0.8
					c0,0.7,0.3,1,0.9,1C407.3,231.3,407.5,231,407.5,230.3z"/>
			</g>
		</g>
		<g>
			<path class="st6" d="M390.6,177.8V190c0,0,0.6,1.4,10.2,1.4c9.6,0,10.8-1.4,10.8-1.4l-1.9-12.1H390.6z"/>
			<path class="st7" d="M385.8,169.3c0,0-3.2-2.1-1.6-5.8c0,0-3.3-5.9,1.6-8.1c0,0-2.4-6,2.9-6.6c0,0,1.3-7.3,7.6-3.9
				c0,0,5.9-5.3,9.7,0.9c0,0,6.8-1.9,7.3,4.3c0,0,5.1,3.4,2.3,7.8c0,0,2.5,3.8,0.4,6c0,0,0.4,4.8-2.7,6.8
				C410.2,172.7,385.8,169.3,385.8,169.3z"/>
			<path class="st6" d="M414,166c-0.1,7.2-1.1,25.4-13.2,25.4c-11.2,0-13.7-18.1-14.2-25.4c-0.4-5.7-0.3-18.8,13.1-18.8
				C415.5,147.2,414,160.1,414,166z"/>
			<path class="st6" d="M386.7,168c-0.8-0.2-1.6,0-2.3,0.4c-1.6,1.1-1.8,3.6-0.4,5.7c1,1.5,2.6,2.3,4,2.2
				C387.4,173.3,387,170.3,386.7,168z"/>
			<path class="st7" d="M399.7,147.2c-13.4,0-13.4,13.1-13.1,18.8c0,0.7,0.1,1.6,0.2,2.5c0.8-1.6,2-4,2.1-5.8c0.1-1.2,0-2.8-0.1-4.1
				c-0.2-2,0.9-4,2.7-4.9c2.1-1,5.1,0.5,8.8,0.5c3.6,0,6.4-1.3,8.3-0.1c1.8,1.1,2.6,3.2,2.3,5.3c-0.2,1.2-0.3,2.4-0.1,3.4
				c0.3,1.6,2,3.9,3.1,5.3c0-0.8,0-1.5,0-2.1C414,160.1,415.5,147.2,399.7,147.2z"/>
			<path class="st1" d="M397.6,171.1c0,0-1.1,2.7,0.8,3.4c0,0,2.2,1.7,3.9,0c0,0,1.9-0.4,1-3.4"/>
			<path class="st7" d="M395.5,168.3c0,0.9-0.4,1.5-1,1.5s-1-0.7-1-1.5c0-0.9,0.4-1.5,1-1.5S395.5,167.4,395.5,168.3z"/>
			<path class="st7" d="M406.8,168.3c0,0.9-0.4,1.5-1,1.5c-0.5,0-1-0.7-1-1.5c0-0.9,0.4-1.5,1-1.5
				C406.4,166.8,406.8,167.4,406.8,168.3z"/>
			<g>
				<g>
					<path class="st4" d="M406.4,180.6c0,0-2,4.7-5.4,4.7c-3.5,0-5.9-4.9-5.9-4.9s2.7-1.2,5.7-1.2
						C403.7,179.2,406.4,180.6,406.4,180.6z"/>
				</g>
				<g>
					<path class="st12" d="M406.4,180.6c0,0-1.3-3.1-5.5-3.1c-4.2,0-5.8,2.9-5.8,2.9s2.7-1.2,5.7-1.2
						C403.7,179.2,406.4,180.6,406.4,180.6z"/>
				</g>
				<g>
					<path class="st5" d="M401.3,184c-2.9,0-6.2-3.6-6.2-3.6s2.4,4.9,5.9,4.9c3.5,0,5.4-4.7,5.4-4.7S403.2,184,401.3,184z"/>
				</g>
				<g>
					<path class="st12" d="M400.9,185.3c-3.5,0-5.9-4.9-5.9-4.9s0.6,6.7,5.7,6.7c5,0,5.7-6.5,5.7-6.5S404.4,185.3,400.9,185.3z"/>
				</g>
			</g>
			<g>
				<path class="st7" d="M398.1,166.8c-0.3,0-0.5-0.1-0.7-0.3c-2.5-2.9-5.9-0.6-6-0.5c-0.4,0.3-1,0.2-1.3-0.2
					c-0.3-0.4-0.2-1,0.2-1.3c1.7-1.2,5.6-2.5,8.5,0.8c0.3,0.4,0.3,1-0.1,1.3C398.6,166.8,398.3,166.8,398.1,166.8z"/>
			</g>
			<g>
				<path class="st7" d="M402.1,166.8c-0.2,0-0.5-0.1-0.6-0.3c-0.4-0.4-0.4-0.9,0-1.3c3-3.2,6.9-1.8,8.5-0.6
					c0.4,0.3,0.5,0.9,0.2,1.3c-0.3,0.4-0.9,0.5-1.3,0.2l0,0c-0.1-0.1-3.4-2.4-6,0.3C402.6,166.7,402.3,166.8,402.1,166.8z"/>
			</g>
			<g>
				<path class="st13" d="M390.6,183.6v1.2c1.3,2.7,3,5,5.2,6.4c1.3,0.1,2.9,0.2,4.9,0.2C395.9,191.4,392.7,188,390.6,183.6z"/>
				<path class="st13" d="M410.7,184.3c-1.9,4.1-5,7.1-10,7.1c2.1,0,3.9-0.1,5.2-0.2c2.2-1.3,3.7-3.4,4.9-6L410.7,184.3z"/>
			</g>
			<path class="st6" d="M416.6,168.4c-0.8-0.5-1.7-0.6-2.6-0.3c-0.1,2.3-0.3,5.3-0.8,8.3c1.4,0,2.8-0.8,3.8-2.2
				C418.3,172,418.2,169.5,416.6,168.4z"/>
		</g>
		<path class="st1" d="M407.6,434.5c0,0,4.2-5.8,11-4.8"/>
	</g>
	<g>
		<g>
			<path class="st2" d="M497.9,400.1c0,0-3.2,1-2.9,4.9c0.3,3.8-3.8,14.5,0.5,16.8c4.8,2.6,12.9,2.3,13.6,0c0.6-2.3-2-5.9-1.8-8.7
				c0.2-2.8,2.2-12.1-1.2-12.9C502.5,399.2,497.9,400.1,497.9,400.1z"/>
			<path class="st3" d="M497,402.4c0.4,1.1,0.9,1.8,0.9,1.8s0.9-2.9,4.5-2.4c3.6,0.5,2.4,3.3,3,3.5c0.3,0.1,0.4-0.9,0.6-1.9
				c0-5,0.2-14.4,1-18.4c1.2-5.7,2.6-15.8,1.8-19.2c0,0,6.3-7.1,6.7-31.5h-18.2v24.7c0,0-5.1,6.5-3,19.2
				C495.7,387.2,496.6,397.5,497,402.4z"/>
			<path class="st1" d="M508.2,361.8c0,0-0.6,6.9-4.4,8.5"/>
		</g>
		<g>
			<path class="st2" d="M521.8,370.3c0,0-2.7,4.7-0.7,11.1c2,6.5-1,14,3.2,16.6c4.2,2.6,15.8,1.2,12.3-8.5c-3.4-9.7-2.3-16-6.2-18.2
				C526.6,369.1,521.8,370.3,521.8,370.3z"/>
			<path class="st3" d="M541.1,310.5l-14.2,1.2l-8.5,6.6c0,0,0,8.6,3.4,19.3l2.2,7.4c0,0-1.6,3.6-1.2,9.1c0.4,5.5,1.8,9.7,0.2,14.4
				c-0.8,2.2-0.8,4.1-0.7,5.6c0.2,0.2,0.4,0.6,0.5,1c0.8,2.4,2-2.4,5.1-2.1c3.1,0.3,1.6,2.7,2.3,2.8c1.8-5.4,10-31.4,6.3-38.2
				c0,0,5.7-6.3,7.1-14C545.2,316,541.1,310.5,541.1,310.5z"/>
			<path class="st1" d="M533.5,339.4c0,0-1.5,3.8-3.8,4.4"/>
		</g>
		<g>
			<path class="st2" d="M499.7,306.8c0,0-4.4,9.1-4.2,29.5c0,0,6.9,2.8,13.3,0c6.5-2.8,8.7,0.2,8.7,0.2l1-6.9
				c0,0-0.8-15.2,12.3-14.2s11.5,12.9,11.5,12.9s6.1-16.8,1.2-23.9C538.7,297.5,499.7,306.8,499.7,306.8z"/>
			<g>
				<path class="st1" d="M517.7,315.8c-0.9,2.4-1.4,6-0.8,11.5"/>
				<path class="st1" d="M520.4,311.7c0,0-0.6,0.3-1.3,1.3"/>
			</g>
		</g>
		<g>
			<path class="st4" d="M497.3,241.1c0,0,21.8-19.4,49.3-8.5l-3,50.3l1.8,25.7c0,0-6.3-6.9-26.3,0c-20,6.9-21.8,0-21.8,0l3.6-41.9
				L497.3,241.1z"/>
			<path class="st3" d="M506.2,274.1l-1.8,18.8c0,0,19.7,1.7,34-5.5l1.1-19.6C539.4,267.8,526.9,273,506.2,274.1z"/>
			<path class="st4" d="M504.7,289c15.2,1.4,28.1-2.6,33.8-4.7l0.6-11.3c-11.6,5.1-28.5,5.7-33.4,5.8L504.7,289z"/>
		</g>
		<g>
			<path class="st3" d="M557.3,240.6l7.4,8.1c0,0,4.5,8.3,7.3,19.9c2.7,11.7,1.7,19.3,1.7,19.3s-2.4,5.7-5.2,6.8
				c0,0-2.2,1.4-2.9-0.9c-0.7-2.3,0.7-4.5,0.8-7.9c0.2-3.3-1.2-7,1.7-8c0,0-2.4-10.2-7.4-15.5c-5-5.3-4.7-8.3-4.7-8.3l-6.7-4.2
				L557.3,240.6z"/>
			<path class="st1" d="M558,254.1c0,0,3.3,1,4.9-3.2"/>
			<path class="st4" d="M542.6,231.2c0,0,11.2-1,16.4,9.5c0,0,2,6.2-5.9,11.5l-8.9-1.4L542.6,231.2z"/>
			<path class="st1" d="M569.9,282.6c0,0-0.9,1.8-1.2,3.9c-0.3,2.1-0.9,4.3-2.9,2.7"/>
		</g>
		<g>
			<path class="st3" d="M492.8,257.4c0,0-2.7,11.1-1.4,22.9c1.4,11.8,5.9,10.6,10.2,8.3c4.2-2.3,14-15.9,14-15.9s5.8-3,6.4-6.4
				c0.6-3.3,1.8-0.5,2.9-1.2c1.1-0.8-1.2-9.7-2.1-10.2c-0.9-0.5-3.2-0.9-3.2-0.9s1.2-2.6-0.2-3.2c-1.4-0.6-2.7,3.9-5.6,5.9
				c-2.9,2-3,9.7-3,9.7l-7.3,6.4c0,0,4.1-9.4,3.3-15.9l-6.3-2.7L492.8,257.4z"/>
			<line class="st1" x1="498.9" y1="277.1" x2="502.1" y2="274.1"/>
			<line class="st1" x1="513.7" y1="256.8" x2="519.5" y2="254.1"/>
			<path class="st4" d="M502,237.7c0,0-10.4,2.7-10.5,21.1c0,0,10-2,15.2,0.9c0,0,3.8-5.5,2.6-11.7C508,241.8,502,237.7,502,237.7z"
				/>
		</g>
		<g>
			<path class="st3" d="M516.1,226.9c0,0-0.6,11.7,6.7,11.7c9.3,0,8.8-10.6,8.8-10.6L516.1,226.9z"/>
			<path class="st3" d="M515,215.9c0,0-0.4,10.4,1.4,13.1c1.8,2.7,6.7,6.6,10.5,6.6c3.8,0,8.6-4.9,8.9-6.9c0.3-2,0-14.9,0-14.9
				s-0.6-10.2-8.9-10.2S514.9,209.7,515,215.9z"/>
			<path class="st3" d="M515,216.8c-0.7-0.7-1.5-1-2.2-0.7c-1.2,0.4-1.7,2.1-1.1,3.9c0.6,1.7,2,2.8,3.2,2.4c0.1,0,0.1-0.1,0.2-0.1
				C514.9,220,514.9,217.9,515,216.8z"/>
			<path class="st3" d="M537.7,216c-0.6-0.2-1.3,0-1.9,0.5c0,1.7,0.1,3.8,0.1,5.9c1.1,0.2,2.4-0.9,3-2.5
				C539.4,218.2,538.9,216.4,537.7,216z"/>
			<path class="st7" d="M533.5,204.5c0,0-0.2-6.1-8.1-6.4c-7.9-0.4-9.4,1.2-11-0.9c0,0-1.4,4.7,3.7,4.4c0,0-8.7,1.4-3.2,14.4
				c0,0,2.2-8.2,4.5-7.9c2.2,0.3,10.4,1,12.9-0.9c0,0,0.3,2.1,3.5,6.7c0,0,2.4-3.3,1.3-6.6c-1.2-3.5-2.3-4.9-2.9-7.1
				C533.6,198.1,533.5,204.5,533.5,204.5z"/>
			<path class="st7" d="M522.4,216.7c0,0.7-0.4,1.2-0.8,1.2c-0.4,0-0.8-0.6-0.8-1.2c0-0.7,0.4-1.2,0.8-1.2
				C522.1,215.4,522.4,216,522.4,216.7z"/>
			<path class="st7" d="M531.6,216.7c0,0.7-0.4,1.2-0.8,1.2c-0.4,0-0.8-0.6-0.8-1.2c0-0.7,0.4-1.2,0.8-1.2
				C531.3,215.4,531.6,216,531.6,216.7z"/>
			<path class="st1" d="M518.6,213.6c0,0,2.8-1.6,4.9,0.4c2.1,2,2.2-0.5,2.2-0.5"/>
			<path class="st1" d="M528.4,213.9c0,0,2.5-2.2,4.4-1.2"/>
			<path class="st1" d="M524.3,222.7c0,0,1-0.3,1.8,0.6c0.8,0.9,2.1,0.2,3.3-0.7"/>
			<path class="st1" d="M527.7,216.6c0,0-1.3,0.5,0.8,4.9"/>
			<path class="st1" d="M525.1,227c0,0,1.7-0.8,3.5,0"/>
			<path class="st7" d="M530,234.6c-1,0.5-2.1,0.9-3.1,0.9c-3.8,0-8.8-3.9-10.5-6.6c-0.1-0.1-0.2-0.3-0.2-0.5c0,0.7,0.1,1.7,0.3,2.7
				c1.8,2.7,6.6,6.5,10.4,6.6C528.3,237,529.3,235.9,530,234.6z"/>
		</g>
		<path class="st1" d="M501.3,416.2c0,0,5.2-1,7.3,3.5"/>
	</g>
	<g>
		<g>
			<g>
				<path class="st6" d="M654.4,230.1c-0.9-1.5-4.8-3.5-12.4-3.6v-28.6c5.7,0.1,9.3,1.5,11.2,2.8c0.7,0.5,1.1,1.3,1.2,2.2
					L654.4,230.1z"/>
				<path class="st3" d="M144.3,254.6c0,0,102.2-40.2,104.2,0c2,40.2,42-2.6,68.5,0c26.6,2.6-6.9,44.9,111.7,3.9
					c103-35.6,99.2,26.1,150.3,17.3c40.4-7,78.9-35.4,75.3-47.3l-0.2-26.4c0.3,16.2-34.3,40.2-75.1,47.2
					c-51.1,8.8-47.8-54.2-150.3-17.3c-110.4,39.8-85.2-1.3-111.7-3.9c-26.6-2.6-66.6,40.2-68.5,0c-2-40.2-104.2,0-104.2,0V254.6z"/>
			</g>
		</g>
		<g>
			<path class="st7" d="M382.3,258l0.3,1.7l-3.9,0.8l1.5,7.4l-1.9,0.4l-3.4-17.1l6.8-1.4l0.3,1.7l-4.9,1l1.2,6.2L382.3,258z"/>
			<path class="st7" d="M386.7,248.7l3.9,17l-1.9,0.4l-3.9-17L386.7,248.7z"/>
			<path class="st7" d="M396.3,264.3l-1.7,0.4l-4.4-16.9l2.4-0.6l7.1,11.2l-3.2-12.2l1.7-0.4l4.4,16.9l-2,0.5l-7.9-12.5L396.3,264.3
				z"/>
			<path class="st7" d="M403.6,244.3l4.8,16.8l-1.9,0.5l-4.8-16.8L403.6,244.3z"/>
			<path class="st7" d="M415.6,245l0.1,0.5l-1.8,0.5l-0.2-0.5c-0.5-1.5-1.3-2.2-2.6-1.8c-1.3,0.4-1.6,1.5-1.2,2.9
				c1.2,3.7,6.9,2.4,8.3,7c0.8,2.5,0.1,4.5-2.5,5.3c-2.5,0.8-4.2-0.5-5-3l-0.3-1l1.7-0.5l0.3,1c0.5,1.5,1.4,2.2,2.7,1.8
				c1.3-0.4,1.7-1.5,1.2-3c-1.1-3.7-6.8-2.3-8.3-7c-0.8-2.6-0.1-4.5,2.4-5.3C413.1,241.2,414.8,242.5,415.6,245z"/>
			<path class="st7" d="M422.1,248.5l2.5,7.4l-1.8,0.6l-5.6-16.5l1.8-0.6l2.5,7.4l4.1-1.4l-2.5-7.4l1.8-0.6l5.6,16.5l-1.8,0.6
				l-2.5-7.4L422.1,248.5z"/>
		</g>
	</g>
</g>
</svg>
