<?xml version="1.0" encoding="utf-8"?>
<!-- Generator: Adobe Illustrator 23.0.1, SVG Export Plug-In . SVG Version: 6.00 Build 0)  -->
<svg version="1.1" id="Calque_1" xmlns="http://www.w3.org/2000/svg" xmlns:xlink="http://www.w3.org/1999/xlink" x="0px" y="0px"
	 viewBox="0 0 800.2 498.1" style="enable-background:new 0 0 800.2 498.1;" xml:space="preserve">
<style type="text/css">
	.st0{fill:#FFDDBB;}
	.st1{fill:none;stroke:#1A2E35;stroke-linecap:round;stroke-linejoin:round;stroke-miterlimit:10;}
	.st2{opacity:0.2;clip-path:url(#XMLID_3_);fill-opacity:0.7;}
	.st3{fill:none;stroke:#1A2E35;stroke-width:2;stroke-linecap:round;stroke-linejoin:round;stroke-miterlimit:10;}
	.st4{fill:#1A2E35;}
	.st5{opacity:0.2;clip-path:url(#XMLID_4_);fill-opacity:0.7;}
	.st6{fill:#FFFFFF;stroke:#1A2E35;stroke-linecap:round;stroke-linejoin:round;stroke-miterlimit:10;}
	.st7{fill:#F27C3B;stroke:#1A2E35;stroke-linecap:round;stroke-linejoin:round;stroke-miterlimit:10;}
	.st8{fill:#757575;stroke:#1A2E35;stroke-linecap:round;stroke-linejoin:round;stroke-miterlimit:10;}
	.st9{fill:#999999;stroke:#1A2E35;stroke-linecap:round;stroke-linejoin:round;stroke-miterlimit:10;}
	.st10{opacity:0.2;clip-path:url(#XMLID_5_);fill-opacity:0.7;}
	.st11{opacity:0.2;clip-path:url(#XMLID_6_);fill-opacity:0.7;}
	.st12{opacity:0.3;clip-path:url(#XMLID_7_);}
	.st13{opacity:0.2;clip-path:url(#XMLID_8_);fill-opacity:0.7;}
	.st14{fill:#5AE4A7;stroke:#1A2E35;stroke-linecap:round;stroke-linejoin:round;stroke-miterlimit:10;}
	.st15{fill:#FCC592;}
	.st16{clip-path:url(#XMLID_9_);fill:#D66730;stroke:#1A2E35;stroke-linecap:round;stroke-linejoin:round;stroke-miterlimit:10;}
	.st17{fill:#1A2E35;stroke:#1A2E35;stroke-linecap:round;stroke-linejoin:round;stroke-miterlimit:10;}
	.st18{fill:none;stroke:#FFFFFF;stroke-linecap:round;stroke-linejoin:round;stroke-miterlimit:10;}
	.st19{opacity:0.2;clip-path:url(#XMLID_10_);fill-opacity:0.7;}
	.st20{clip-path:url(#XMLID_11_);fill:#D66730;stroke:#1A2E35;stroke-linecap:round;stroke-linejoin:round;stroke-miterlimit:10;}
	.st21{fill:#EA9368;stroke:#1A2E35;stroke-linecap:round;stroke-linejoin:round;stroke-miterlimit:10;}
	.st22{clip-path:url(#XMLID_12_);fill:#EA9368;stroke:#1A2E35;stroke-linecap:round;stroke-linejoin:round;stroke-miterlimit:10;}
	.st23{clip-path:url(#XMLID_13_);fill:#EA9368;stroke:#1A2E35;stroke-linecap:round;stroke-linejoin:round;stroke-miterlimit:10;}
	.st24{clip-path:url(#XMLID_14_);fill:#D66730;stroke:#1A2E35;stroke-linecap:round;stroke-linejoin:round;stroke-miterlimit:10;}
	.st25{clip-path:url(#XMLID_15_);fill:#D66730;stroke:#1A2E35;stroke-linecap:round;stroke-linejoin:round;stroke-miterlimit:10;}
</style>
<rect y="0.5" class="st0" width="800.2" height="497.6"/>
<g>
	<g>
		<g>
			<path class="st1" d="M379.9,55.1c1.4,5.4,0.7-4.5,3.3-16.6c2.6-12.1,7.2-7.2,7.2-7.2"/>
			<line class="st1" x1="379.1" y1="42.8" x2="387.4" y2="39.4"/>
			<path class="st1" d="M394.2,35.3c0,0-5,10.3,2.5,14.6"/>
			<path class="st1" d="M401.3,32.4c0,0,8.2,4.6,3.1,14.4"/>
			<line class="st1" x1="395.7" y1="38.8" x2="401.5" y2="43.1"/>
			<line class="st1" x1="400.3" y1="36.9" x2="395.7" y2="44.2"/>
		</g>
		<g>
			<path class="st1" d="M221.4,296.8c0,0-13.9-0.2-13.9,11.8"/>
			<path class="st1" d="M220.3,304.4c-0.3-1.8-6.4-4-7.4,0.6c-1,4.6,6.5,1.8,8.8-0.3c0,0-4.3,4.2-3,5.4"/>
			<path class="st1" d="M221.1,311.4c0,0-1.8,2.3-3.8,1.2"/>
			<path class="st1" d="M233.3,303.3L222.8,314c0,0,5.2-5.3,8.3-3.6c3.8,2.1-1.1,7.8-5.2,3.7"/>
			<path class="st1" d="M238.6,306.2c0,0,2.8,12.7-11.5,13.2"/>
		</g>
		<g>
			<polyline class="st1" points="425.1,90.5 430.2,91.3 430.2,102.8 441.3,82.6 458.7,85.5 			"/>
			<line class="st1" x1="443.2" y1="91.5" x2="450.9" y2="105"/>
			<line class="st1" x1="452.8" y1="93.1" x2="439.1" y2="103.1"/>
		</g>
		<g>
			<path class="st1" d="M356.3,110.9c-1.3-1.6-8.7-0.5-7.2,4.8c1.5,5.3,7.7-1.8,8.8-5.3c0,0-2,6.7,0,7.2"/>
			<path class="st1" d="M362,105.5l-1.7,5.9c0,0,0.8-3,2.3-3c1.8,0,1.1,3-1.1,2.4"/>
		</g>
		<g>
			<polyline class="st1" points="502,178.2 498.5,190.8 506.2,199.2 			"/>
			<line class="st1" x1="506.4" y1="183.3" x2="515.2" y2="190.7"/>
			<line class="st1" x1="512.4" y1="181.5" x2="508.7" y2="190.8"/>
			<path class="st1" d="M518.6,189.6c0,0,0.1,2.6-1.1,3"/>
			<line class="st1" x1="519.7" y1="180.4" x2="525" y2="184.4"/>
			<line class="st1" x1="527" y1="177.2" x2="521.7" y2="196"/>
			<polyline class="st1" points="527.2,170.7 535.7,180.3 532.1,190.8 			"/>
		</g>
		<g>
			<polygon class="st1" points="293.7,418.4 305.9,381.9 320.8,398.5 			"/>
			<polyline class="st1" points="317.2,401.1 314,397.5 317.4,394.6 			"/>
		</g>
		<g>
			
				<ellipse transform="matrix(0.9239 -0.3827 0.3827 0.9239 -60.7015 98.1517)" class="st1" cx="216.4" cy="201.7" rx="12.5" ry="12.5"/>
			<circle class="st1" cx="230.2" cy="190.7" r="13.9"/>
			<line class="st1" x1="218.8" y1="189.4" x2="217.1" y2="195.3"/>
			<line class="st1" x1="221.2" y1="190.1" x2="218.8" y2="198.6"/>
			<line class="st1" x1="223.7" y1="191.6" x2="221.2" y2="201.1"/>
			<line class="st1" x1="226.5" y1="194.4" x2="224.7" y2="203.5"/>
			<line class="st1" x1="228.1" y1="197.3" x2="226.5" y2="204.1"/>
			<path class="st1" d="M204.4,185.7c-1.1-0.3-4.1,2.5-1.8,4.4c2.3,1.9,2.9-3.2,2.3-5.1c0,0,1.2,3.7,2.2,3.2"/>
			<path class="st1" d="M220.6,169.6l4,7.3c0,0-2-3.6-0.6-5c1.7-1.7,4,1.9,1.1,3.4"/>
		</g>
		<g>
			<line class="st1" x1="293.6" y1="168.8" x2="299.3" y2="174.1"/>
			<line class="st1" x1="299.3" y1="167.4" x2="294.6" y2="174.4"/>
			<line class="st1" x1="304.8" y1="169.4" x2="310.5" y2="167.3"/>
			<line class="st1" x1="313.2" y1="161.4" x2="316.6" y2="164.4"/>
			<line class="st1" x1="319.3" y1="157.7" x2="314.9" y2="172.7"/>
		</g>
		<path class="st1" d="M566.2,154.7l-0.2-11.4h8.6c0,0-4.8,2.6-2.6,8.8c2.2,6.1,5.7,2.6,5.7,2.6"/>
		<g>
			<polygon class="st1" points="551.6,349.5 561.4,342.8 574.4,343.7 575.3,360.2 565.7,367 553.9,366.1 			"/>
			<polyline class="st1" points="553.9,366.1 563.4,359.3 575.3,360.2 			"/>
			<line class="st1" x1="563.4" y1="359.3" x2="561.4" y2="342.8"/>
			<polyline class="st1" points="551.6,349.5 564.6,351 574.4,343.7 			"/>
			<line class="st1" x1="564.6" y1="351" x2="565.7" y2="367"/>
		</g>
		<g>
			<polygon class="st1" points="553.4,225.8 553,247.7 572.2,239 			"/>
			<line class="st1" x1="553.4" y1="225.8" x2="562.6" y2="243.2"/>
			<polyline class="st1" points="561.1,240.4 563.3,239.4 564.8,242.4 			"/>
		</g>
		<g>
			<line class="st1" x1="385.6" y1="223.7" x2="393.5" y2="232.2"/>
			<line class="st1" x1="393.6" y1="222.5" x2="386.9" y2="231.7"/>
			<path class="st1" d="M396.8,218.1c0,0,1.9-0.7,2.2,1.2s-2.8,4.4-2.8,4.4h4.5"/>
		</g>
		<g>
			<path class="st1" d="M261.6,95.9c0.8-10.2,6.8-18.8,15.2-23.3"/>
			<path class="st1" d="M283.8,126.4c-7.4-1.8-13.7-6.4-17.7-12.6"/>
			<path class="st1" d="M319.4,100.5c-1.3,16-15.2,27.8-31.2,26.6"/>
			<path class="st1" d="M292.8,69.3c13.8,1.1,24.6,11.7,26.4,24.9"/>
			<path class="st1" d="M303,120.5c-4.3,2.4-9.3,3.6-14.5,3.2c-14.1-1.1-24.6-13.4-23.4-27.5"/>
			<path class="st1" d="M266.7,89c4-10.3,14.3-17.2,25.9-16.3c14.1,1.1,24.6,13.4,23.4,27.5c-0.5,5.8-2.8,11-6.4,15"/>
			<polyline class="st1" points="288,79.8 290.5,98.2 304.7,93.8 			"/>
		</g>
		<g>
			<path class="st1" d="M511,133.9c-8.3,0.1-16.2-5.1-19.1-13.4c-2.8-7.8-0.4-16.2,5.4-21.5"/>
			<path class="st1" d="M529.8,120.4c-1.9,5.6-6.3,10.3-12.3,12.4"/>
			<path class="st1" d="M504.1,95c10.4-3.7,21.9,1.8,25.6,12.3"/>
			<path class="st1" d="M520.7,99.2c3,2.1,5.5,5.1,6.8,8.8c3.2,9.2-1.6,19.3-10.8,22.6c-6.9,2.4-14.3,0.3-19-4.8"/>
			<path class="st1" d="M494.1,119.8c-3.2-9.2,1.6-19.3,10.8-22.6c3.5-1.2,7-1.3,10.3-0.4"/>
			<polyline class="st1" points="504.1,103 510.8,113.9 504.6,121.9 			"/>
		</g>
		<g>
			<path class="st1" d="M369.1,412.8c0-5.5,2.8-10.4,7.1-13.3"/>
			<path class="st1" d="M396.8,423.9c-2.9,3.1-7.1,5-11.7,5c-7.1,0-13.1-4.6-15.2-10.9"/>
			<path class="st1" d="M385.2,396.7c8.9,0,16.1,7.2,16.1,16.1"/>
			<path class="st1" d="M385.2,427c-7.8,0-14.2-6.4-14.2-14.2"/>
			<path class="st1" d="M374.1,403.9c2.6-3.2,6.6-5.3,11.1-5.3c7.8,0,14.2,6.4,14.2,14.2c0,5.3-2.9,10-7.3,12.4"/>
			<polyline class="st1" points="383,422.4 385.2,412.8 382.1,404.9 			"/>
		</g>
	</g>
	<line class="st1" x1="197.8" y1="461.3" x2="602.4" y2="461.3"/>
	<g>
		<g>
			<g>
				<defs>
					<polygon id="XMLID_28_" points="403.1,250.4 396.5,375.9 313,371.5 313.7,358.2 319.6,246.1 372.2,248.8 					"/>
				</defs>
				<use xlink:href="#XMLID_28_"  style="overflow:visible;fill:#FFFFFF;"/>
				<clipPath id="XMLID_3_">
					<use xlink:href="#XMLID_28_"  style="overflow:visible;"/>
				</clipPath>
				<polygon class="st2" points="377,324 358.2,325.5 363.7,349.2 313.7,358.2 319.6,246.1 372.2,248.8 				"/>
				
					<use xlink:href="#XMLID_28_"  style="overflow:visible;fill:none;stroke:#1A2E35;stroke-linecap:round;stroke-linejoin:round;stroke-miterlimit:10;"/>
			</g>
			<line class="st3" x1="325.5" y1="254.6" x2="347.2" y2="255.8"/>
			<line class="st3" x1="325.3" y1="258.8" x2="340" y2="259.6"/>
			<g>
				<line class="st3" x1="330.1" y1="268.9" x2="392.5" y2="272.2"/>
				<line class="st3" x1="329.8" y1="273.1" x2="392.3" y2="276.4"/>
				<line class="st3" x1="329.6" y1="278" x2="382.9" y2="280.8"/>
			</g>
			<g>
				
					<rect x="329.5" y="282.6" transform="matrix(0.9986 5.246715e-02 -5.246715e-02 0.9986 15.4156 -17.0275)" class="st1" width="5.1" height="5.1"/>
				
					<rect x="338.7" y="283" transform="matrix(0.9986 5.246715e-02 -5.246715e-02 0.9986 15.4537 -17.5102)" class="st1" width="5.1" height="5.1"/>
				
					<rect x="347.9" y="283.5" transform="matrix(0.9986 5.244860e-02 -5.244860e-02 0.9986 15.4861 -17.9867)" class="st1" width="5.1" height="5.1"/>
				
					<rect x="357.1" y="284" transform="matrix(0.9986 5.244860e-02 -5.244860e-02 0.9986 15.5242 -18.4692)" class="st1" width="5.1" height="5.1"/>
			</g>
			<path class="st4" d="M326.7,268.8c0,0.7-0.6,1.2-1.3,1.2c-0.7,0-1.2-0.6-1.2-1.3c0-0.7,0.6-1.2,1.3-1.2
				C326.2,267.5,326.8,268.1,326.7,268.8z"/>
			<g>
				<line class="st3" x1="328.8" y1="293.3" x2="391.3" y2="296.6"/>
				<line class="st3" x1="328.6" y1="297.4" x2="391" y2="300.7"/>
				<line class="st3" x1="328.3" y1="302.3" x2="381.6" y2="305.1"/>
			</g>
			<g>
				
					<rect x="328.2" y="306.9" transform="matrix(0.9986 5.244860e-02 -5.244860e-02 0.9986 16.6843 -16.9211)" class="st1" width="5.1" height="5.1"/>
				
					<rect x="337.4" y="307.4" transform="matrix(0.9986 5.244860e-02 -5.244860e-02 0.9986 16.7224 -17.4037)" class="st1" width="5.1" height="5.1"/>
				
					<rect x="346.6" y="307.8" transform="matrix(0.9986 5.244860e-02 -5.244860e-02 0.9986 16.7604 -17.8862)" class="st1" width="5.1" height="5.1"/>
				
					<rect x="355.8" y="308.3" transform="matrix(0.9986 5.244860e-02 -5.244860e-02 0.9986 16.7985 -18.3687)" class="st1" width="5.1" height="5.1"/>
			</g>
			<path class="st4" d="M325.4,293.1c0,0.7-0.6,1.2-1.3,1.2s-1.2-0.6-1.2-1.3c0-0.7,0.6-1.2,1.3-1.2
				C324.9,291.8,325.5,292.4,325.4,293.1z"/>
			<g>
				<line class="st3" x1="327.5" y1="317.6" x2="390" y2="320.9"/>
				<line class="st3" x1="327.3" y1="321.8" x2="389.8" y2="325.1"/>
				<line class="st3" x1="327" y1="326.6" x2="380.3" y2="329.4"/>
			</g>
			<g>
				
					<rect x="326.9" y="331.2" transform="matrix(0.9986 5.246817e-02 -5.246817e-02 0.9986 17.9655 -16.8267)" class="st1" width="5.1" height="5.1"/>
				
					<rect x="336.1" y="331.7" transform="matrix(0.9986 5.246817e-02 -5.246817e-02 0.9986 18.0036 -17.3094)" class="st1" width="5.1" height="5.1"/>
				
					<rect x="345.3" y="332.2" transform="matrix(0.9986 5.244860e-02 -5.244860e-02 0.9986 18.0347 -17.7857)" class="st1" width="5.1" height="5.1"/>
				
					<rect x="354.6" y="332.7" transform="matrix(0.9986 5.246817e-02 -5.246817e-02 0.9986 18.0797 -18.2748)" class="st1" width="5.1" height="5.1"/>
			</g>
			<path class="st4" d="M324.2,317.4c0,0.7-0.6,1.2-1.3,1.2c-0.7,0-1.2-0.6-1.2-1.3c0-0.7,0.6-1.2,1.3-1.2
				C323.7,316.1,324.2,316.7,324.2,317.4z"/>
			<g>
				<line class="st3" x1="326.2" y1="342.6" x2="388.7" y2="345.9"/>
				<line class="st3" x1="326" y1="346.8" x2="388.5" y2="350.1"/>
				<line class="st3" x1="325.7" y1="351.7" x2="379" y2="354.5"/>
			</g>
			<g>
				
					<rect x="325.6" y="356.2" transform="matrix(0.9986 5.244757e-02 -5.244757e-02 0.9986 19.2689 -16.7169)" class="st1" width="5.1" height="5.1"/>
				
					<rect x="334.8" y="356.7" transform="matrix(0.9986 5.246812e-02 -5.246812e-02 0.9986 19.3147 -17.206)" class="st1" width="5.1" height="5.1"/>
				
					<rect x="344" y="357.2" transform="matrix(0.9986 5.246822e-02 -5.246822e-02 0.9986 19.3529 -17.6887)" class="st1" width="5.1" height="5.1"/>
				
					<rect x="353.2" y="357.7" transform="matrix(0.9986 5.246915e-02 -5.246915e-02 0.9986 19.3913 -18.1717)" class="st1" width="5.1" height="5.1"/>
			</g>
			<path class="st4" d="M322.9,342.5c0,0.7-0.6,1.2-1.3,1.2c-0.7,0-1.2-0.6-1.2-1.3c0-0.7,0.6-1.2,1.3-1.2
				C322.4,341.1,322.9,341.7,322.9,342.5z"/>
			<polyline class="st3" points="331.3,284.5 332,285.7 334.7,282.7 			"/>
			<polyline class="st3" points="348.5,309.5 349.2,310.7 351.9,307.7 			"/>
			<polyline class="st3" points="357.1,335.2 357.8,336.3 360.5,333.4 			"/>
			<polyline class="st3" points="336.7,358.1 337.4,359.3 340.1,356.3 			"/>
		</g>
		<g>
			<g>
				<defs>
					<polygon id="XMLID_27_" points="347.6,340.4 267.1,362.8 233.4,241.7 266.8,232.5 314,219.4 344.5,329.2 					"/>
				</defs>
				<use xlink:href="#XMLID_27_"  style="overflow:visible;fill:#FFFFFF;"/>
				<clipPath id="XMLID_4_">
					<use xlink:href="#XMLID_27_"  style="overflow:visible;"/>
				</clipPath>
				<polygon class="st5" points="344.5,329.2 282.2,333.2 266.8,232.5 314,219.4 				"/>
				
					<use xlink:href="#XMLID_27_"  style="overflow:visible;fill:none;stroke:#1A2E35;stroke-linecap:round;stroke-linejoin:round;stroke-miterlimit:10;"/>
			</g>
			<line class="st3" x1="241.7" y1="248" x2="262.7" y2="242.2"/>
			<line class="st3" x1="242.9" y1="252" x2="257.1" y2="248.1"/>
			<g>
				<line class="st3" x1="250.6" y1="260.1" x2="310.9" y2="243.3"/>
				<line class="st3" x1="251.7" y1="264.1" x2="312" y2="247.4"/>
				<line class="st3" x1="253" y1="268.8" x2="304.5" y2="254.5"/>
			</g>
			<g>
				
					<rect x="255.1" y="272.2" transform="matrix(0.9635 -0.2677 0.2677 0.9635 -64.1677 79.0024)" class="st1" width="5.1" height="5.1"/>
				
					<rect x="263.9" y="269.8" transform="matrix(0.9635 -0.2677 0.2677 0.9635 -63.1783 81.2857)" class="st1" width="5.1" height="5.1"/>
				
					<rect x="272.8" y="267.3" transform="matrix(0.9635 -0.2677 0.2677 0.9635 -62.1926 83.5751)" class="st1" width="5.1" height="5.1"/>
				
					<rect x="281.7" y="264.8" transform="matrix(0.9635 -0.2677 0.2677 0.9635 -61.207 85.8646)" class="st1" width="5.1" height="5.1"/>
			</g>
			<path class="st4" d="M247.4,261c0.2,0.7-0.2,1.4-0.9,1.6c-0.7,0.2-1.4-0.2-1.6-0.9c-0.2-0.7,0.2-1.4,0.9-1.6
				C246.5,259.9,247.2,260.3,247.4,261z"/>
			<g>
				<line class="st3" x1="257.1" y1="283.6" x2="317.4" y2="266.8"/>
				<line class="st3" x1="258.2" y1="287.6" x2="318.5" y2="270.8"/>
				<line class="st3" x1="259.5" y1="292.3" x2="311" y2="278"/>
			</g>
			<g>
				
					<rect x="261.6" y="295.7" transform="matrix(0.9635 -0.2677 0.2677 0.9635 -70.2114 81.6011)" class="st1" width="5.1" height="5.1"/>
				
					<rect x="270.5" y="293.3" transform="matrix(0.9635 -0.2677 0.2677 0.9635 -69.2286 83.8953)" class="st1" width="5.1" height="5.1"/>
				
					<rect x="279.4" y="290.8" transform="matrix(0.9635 -0.2677 0.2677 0.9635 -68.2428 86.1849)" class="st1" width="5.1" height="5.1"/>
				
					<rect x="288.2" y="288.3" transform="matrix(0.9635 -0.2677 0.2677 0.9635 -67.2532 88.4676)" class="st1" width="5.1" height="5.1"/>
			</g>
			<path class="st4" d="M253.9,284.5c0.2,0.7-0.2,1.4-0.9,1.6c-0.7,0.2-1.4-0.2-1.6-0.9c-0.2-0.7,0.2-1.4,0.9-1.6
				C253,283.4,253.7,283.8,253.9,284.5z"/>
			<g>
				<line class="st3" x1="263.6" y1="307" x2="323.9" y2="290.3"/>
				<line class="st3" x1="264.8" y1="311.1" x2="325.1" y2="294.3"/>
				<line class="st3" x1="266.1" y1="315.8" x2="317.5" y2="301.5"/>
			</g>
			<g>
				
					<rect x="268.1" y="319.2" transform="matrix(0.9635 -0.2677 0.2677 0.9635 -76.261 84.209)" class="st1" width="5.1" height="5.1"/>
				
					<rect x="277" y="316.7" transform="matrix(0.9635 -0.2677 0.2677 0.9635 -75.2721 86.4938)" class="st1" width="5.1" height="5.1"/>
				
					<rect x="285.9" y="314.3" transform="matrix(0.9635 -0.2677 0.2677 0.9635 -74.2895 88.7882)" class="st1" width="5.1" height="5.1"/>
				
					<rect x="294.8" y="311.8" transform="matrix(0.9635 -0.2677 0.2677 0.9635 -73.3038 91.0778)" class="st1" width="5.1" height="5.1"/>
			</g>
			<path class="st4" d="M260.4,307.9c0.2,0.7-0.2,1.4-0.9,1.6c-0.7,0.2-1.4-0.2-1.6-0.9s0.2-1.4,0.9-1.6
				C259.5,306.9,260.2,307.3,260.4,307.9z"/>
			<g>
				<line class="st3" x1="270.4" y1="331.2" x2="330.7" y2="314.4"/>
				<line class="st3" x1="271.5" y1="335.2" x2="331.8" y2="318.5"/>
				<line class="st3" x1="272.8" y1="339.9" x2="324.2" y2="325.6"/>
			</g>
			<g>
				
					<rect x="274.8" y="343.3" transform="matrix(0.9635 -0.2677 0.2677 0.9635 -82.477 86.8819)" class="st1" width="5.1" height="5.1"/>
				
					<rect x="283.7" y="340.9" transform="matrix(0.9635 -0.2677 0.2677 0.9635 -81.4913 89.1713)" class="st1" width="5.1" height="5.1"/>
				
					<rect x="292.6" y="338.4" transform="matrix(0.9635 -0.2677 0.2677 0.9635 -80.5056 91.4608)" class="st1" width="5.1" height="5.1"/>
				
					<rect x="301.5" y="335.9" transform="matrix(0.9635 -0.2677 0.2677 0.9635 -79.5199 93.7503)" class="st1" width="5.1" height="5.1"/>
			</g>
			<path class="st4" d="M267.1,332.1c0.2,0.7-0.2,1.4-0.9,1.6c-0.7,0.2-1.4-0.2-1.6-0.9c-0.2-0.7,0.2-1.4,0.9-1.6
				C266.3,331,267,331.4,267.1,332.1z"/>
			<polyline class="st3" points="265.1,272.1 266.1,273 267.7,269.3 			"/>
			<polyline class="st3" points="262.7,298.3 263.7,299.2 265.3,295.5 			"/>
			<polyline class="st3" points="269.2,321.6 270.2,322.4 271.9,318.7 			"/>
			<polyline class="st3" points="293.7,340.6 294.7,341.5 296.3,337.8 			"/>
		</g>
		<g>
			
				<rect x="278.1" y="195.1" transform="matrix(0.9954 -9.561283e-02 9.561283e-02 0.9954 -23.1966 31.7658)" class="st6" width="83.6" height="125.7"/>
			<line class="st3" x1="279.4" y1="207" x2="301" y2="204.9"/>
			<line class="st3" x1="279.8" y1="211.2" x2="294.5" y2="209.8"/>
			<g>
				<line class="st3" x1="286" y1="220.5" x2="348.3" y2="214.5"/>
				<line class="st3" x1="286.4" y1="224.6" x2="348.7" y2="218.7"/>
				<line class="st3" x1="286.8" y1="229.5" x2="340" y2="224.4"/>
			</g>
			<g>
				
					<rect x="287.8" y="233.6" transform="matrix(0.9954 -9.563162e-02 9.563162e-02 0.9954 -21.2546 28.8449)" class="st1" width="5.1" height="5.1"/>
				
					<rect x="296.9" y="232.7" transform="matrix(0.9954 -9.561217e-02 9.561217e-02 0.9954 -21.1242 29.7128)" class="st1" width="5.1" height="5.1"/>
				
					<rect x="306.1" y="231.9" transform="matrix(0.9954 -9.561217e-02 9.561217e-02 0.9954 -20.9978 30.5867)" class="st1" width="5.1" height="5.1"/>
				
					<rect x="315.3" y="231" transform="matrix(0.9954 -9.561217e-02 9.561217e-02 0.9954 -20.8714 31.4607)" class="st1" width="5.1" height="5.1"/>
			</g>
			<path class="st4" d="M282.7,220.8c0.1,0.7-0.4,1.3-1.1,1.4c-0.7,0.1-1.3-0.4-1.4-1.1c-0.1-0.7,0.4-1.3,1.1-1.4
				C282,219.6,282.6,220.1,282.7,220.8z"/>
			<g>
				<line class="st3" x1="288.3" y1="244.7" x2="350.6" y2="238.7"/>
				<line class="st3" x1="288.7" y1="248.9" x2="351" y2="242.9"/>
				<line class="st3" x1="289.2" y1="253.7" x2="342.3" y2="248.6"/>
			</g>
			<g>
				
					<rect x="290.1" y="257.9" transform="matrix(0.9954 -9.561031e-02 9.561031e-02 0.9954 -23.5583 29.1721)" class="st1" width="5.1" height="5.1"/>
				
					<rect x="299.3" y="257" transform="matrix(0.9954 -9.561217e-02 9.561217e-02 0.9954 -23.4323 30.0466)" class="st1" width="5.1" height="5.1"/>
				
					<rect x="308.5" y="256.1" transform="matrix(0.9954 -9.559272e-02 9.559272e-02 0.9954 -23.3014 30.914)" class="st1" width="5.1" height="5.1"/>
				
					<rect x="317.6" y="255.2" transform="matrix(0.9954 -9.563170e-02 9.563170e-02 0.9954 -23.1839 31.8013)" class="st1" width="5.1" height="5.1"/>
			</g>
			<path class="st4" d="M285,245c0.1,0.7-0.4,1.3-1.1,1.4c-0.7,0.1-1.3-0.4-1.4-1.1c-0.1-0.7,0.4-1.3,1.1-1.4
				C284.3,243.8,284.9,244.3,285,245z"/>
			<g>
				<line class="st3" x1="290.6" y1="269" x2="352.9" y2="263"/>
				<line class="st3" x1="291" y1="273.1" x2="353.3" y2="267.2"/>
				<line class="st3" x1="291.5" y1="278" x2="344.6" y2="272.9"/>
			</g>
			<g>
				
					<rect x="292.4" y="282.1" transform="matrix(0.9954 -9.561404e-02 9.561404e-02 0.9954 -25.8673 29.5071)" class="st1" width="5.1" height="5.1"/>
				
					<rect x="301.6" y="281.2" transform="matrix(0.9954 -9.563162e-02 9.563162e-02 0.9954 -25.7453 30.3869)" class="st1" width="5.1" height="5.1"/>
				
					<rect x="310.8" y="280.4" transform="matrix(0.9954 -9.559272e-02 9.559272e-02 0.9954 -25.6091 31.2478)" class="st1" width="5.1" height="5.1"/>
				
					<rect x="320" y="279.5" transform="matrix(0.9954 -9.561217e-02 9.561217e-02 0.9954 -25.4876 32.1284)" class="st1" width="5.1" height="5.1"/>
			</g>
			<path class="st4" d="M287.3,269.3c0.1,0.7-0.4,1.3-1.1,1.4c-0.7,0.1-1.3-0.4-1.4-1.1c-0.1-0.7,0.4-1.3,1.1-1.4
				C286.6,268.1,287.2,268.6,287.3,269.3z"/>
			<g>
				<line class="st3" x1="293" y1="293.9" x2="355.3" y2="287.9"/>
				<line class="st3" x1="293.4" y1="298.1" x2="355.7" y2="292.1"/>
				<line class="st3" x1="293.9" y1="302.9" x2="347" y2="297.8"/>
			</g>
			<g>
				
					<rect x="294.8" y="307.1" transform="matrix(0.9954 -9.561217e-02 9.561217e-02 0.9954 -28.2408 29.8499)" class="st1" width="5.1" height="5.1"/>
				
					<rect x="304" y="306.2" transform="matrix(0.9954 -9.561217e-02 9.561217e-02 0.9954 -28.1144 30.7238)" class="st1" width="5.1" height="5.1"/>
				
					<rect x="313.2" y="305.3" transform="matrix(0.9954 -9.561217e-02 9.561217e-02 0.9954 -27.988 31.5978)" class="st1" width="5.1" height="5.1"/>
				
					<rect x="322.4" y="304.4" transform="matrix(0.9954 -9.559085e-02 9.559085e-02 0.9954 -27.8557 32.4642)" class="st1" width="5.1" height="5.1"/>
			</g>
			<path class="st4" d="M289.7,294.2c0.1,0.7-0.4,1.3-1.1,1.4c-0.7,0.1-1.3-0.4-1.4-1.1c-0.1-0.7,0.4-1.3,1.1-1.4
				C289,293,289.6,293.5,289.7,294.2z"/>
			<polyline class="st3" points="289.5,235.7 290.4,236.7 292.6,233.4 			"/>
			<polyline class="st3" points="310.2,257.9 311,258.9 313.3,255.6 			"/>
			<polyline class="st3" points="303.4,283.5 304.2,284.6 306.5,281.2 			"/>
			<polyline class="st3" points="324,306.5 324.9,307.6 327.1,304.2 			"/>
		</g>
	</g>
	<g>
		<path class="st6" d="M457.2,142.1h-51.7c-3.8,0-6.9,3.1-6.9,6.9v44.4c0,3.8,3.1,6.9,6.9,6.9h22.9l13.1,15.8l-3.3-15.8h18.9
			c3.8,0,6.9-3.1,6.9-6.9V149C464.1,145.2,461,142.1,457.2,142.1z"/>
		<g>
			<path class="st7" d="M435.5,166.4v-4.7l-3.5-0.3c-0.2-0.7-0.5-1.5-0.9-2.1l2.3-2.7l-3.3-3.3l-2.7,2.3c-0.7-0.4-1.4-0.7-2.1-0.9
				l-0.3-3.5h-4.7l-0.3,3.5c-0.7,0.2-1.5,0.5-2.1,0.9l-2.7-2.3l-3.3,3.3l2.3,2.7c-0.4,0.7-0.7,1.4-0.9,2.1l-3.5,0.3v4.7l3.5,0.3
				c0.2,0.7,0.5,1.5,0.9,2.1l-2.3,2.7l3.3,3.3l2.7-2.3c0.7,0.4,1.4,0.7,2.1,0.9l0.3,3.5h4.7l0.3-3.5c0.7-0.2,1.5-0.5,2.1-0.9
				l2.7,2.3l3.3-3.3l-2.3-2.7c0.4-0.7,0.7-1.4,0.9-2.1L435.5,166.4z M422.6,169.6c-3,0-5.5-2.4-5.5-5.5c0-3,2.4-5.5,5.5-5.5
				s5.5,2.4,5.5,5.5C428.1,167.1,425.7,169.6,422.6,169.6z"/>
			<path class="st7" d="M451.1,176.9v-3.3l-2.5-0.2c-0.1-0.5-0.4-1-0.6-1.5l1.6-1.9l-2.4-2.4l-1.9,1.6c-0.5-0.3-1-0.5-1.5-0.6
				l-0.2-2.5h-3.3l-0.2,2.5c-0.5,0.1-1,0.4-1.5,0.6l-1.9-1.6l-2.4,2.4l1.6,1.9c-0.3,0.5-0.5,1-0.6,1.5l-2.5,0.2v3.3l2.5,0.2
				c0.1,0.5,0.4,1,0.6,1.5l-1.6,1.9l2.4,2.4l1.9-1.6c0.5,0.3,1,0.5,1.5,0.6l0.2,2.5h3.3l0.2-2.5c0.5-0.1,1-0.4,1.5-0.6l1.9,1.6
				l2.4-2.4l-1.6-1.9c0.3-0.5,0.5-1,0.6-1.5L451.1,176.9z M441.9,179.2c-2.1,0-3.9-1.7-3.9-3.9c0-2.1,1.7-3.9,3.9-3.9
				c2.1,0,3.9,1.7,3.9,3.9C445.8,177.4,444.1,179.2,441.9,179.2z"/>
			<path class="st7" d="M434.7,184.7v-2.4l-1.8-0.2c-0.1-0.4-0.3-0.7-0.4-1.1l1.2-1.4l-1.7-1.7l-1.4,1.2c-0.3-0.2-0.7-0.3-1.1-0.4
				l-0.2-1.8H427l-0.2,1.8c-0.4,0.1-0.7,0.3-1.1,0.4l-1.4-1.2l-1.7,1.7l1.2,1.4c-0.2,0.3-0.3,0.7-0.4,1.1l-1.8,0.2v2.4l1.8,0.2
				c0.1,0.4,0.3,0.7,0.4,1.1l-1.2,1.4l1.7,1.7l1.4-1.2c0.3,0.2,0.7,0.3,1.1,0.4l0.2,1.8h2.4l0.2-1.8c0.4-0.1,0.7-0.3,1.1-0.4
				l1.4,1.2l1.7-1.7l-1.2-1.4c0.2-0.3,0.3-0.7,0.4-1.1L434.7,184.7z M428.2,186.3c-1.5,0-2.8-1.2-2.8-2.8s1.2-2.8,2.8-2.8
				c1.5,0,2.8,1.2,2.8,2.8S429.7,186.3,428.2,186.3z"/>
		</g>
	</g>
	<g>
		<g>
			<polygon class="st8" points="430,312.7 470.3,461.3 476.3,461.3 436.1,312.7 			"/>
			<rect x="444.4" y="419.2" class="st9" width="76.4" height="6.2"/>
			<g>
				<path class="st8" d="M561.5,279.4l-49.3,182h-6l49.3-182c1.8-6.7-2.4-12.2-9.3-12.2h-42.5c-6.9,0-14.1,5.5-15.9,12.2l-49.3,182
					h-6l49.3-182c2.7-9.9,13.2-18,23.5-18h42.5C558,261.4,564.2,269.4,561.5,279.4z"/>
			</g>
			<g>
				<defs>
					<path id="XMLID_26_" d="M562.3,279.4L550,324.6c-1,3.7-5,6.8-8.8,6.8h-69.8c-3.9,0-6.2-3-5.2-6.8l12.3-45.2
						c1-3.7,5-6.8,8.8-6.8h69.8C561,272.7,563.3,275.7,562.3,279.4z"/>
				</defs>
				<use xlink:href="#XMLID_26_"  style="overflow:visible;fill:#F27C3B;"/>
				<clipPath id="XMLID_5_">
					<use xlink:href="#XMLID_26_"  style="overflow:visible;"/>
				</clipPath>
				<path class="st10" d="M562.3,279.4L550,324.6c-1,3.7-5,6.8-8.8,6.8h-69.8c-3.9,0-6.2-3-5.2-6.8l12.3-45.2c1-3.7,5-6.8,8.8-6.8
					h36.1c15.6,16,13.6,45.5,12.6,54.4c3.2-0.8,6.1-3.4,7-6.5l12.3-45.2c0.3-1,0.3-1.9,0.2-2.7h1.8
					C561,272.7,563.3,275.7,562.3,279.4z"/>
				
					<use xlink:href="#XMLID_26_"  style="overflow:visible;fill:none;stroke:#1A2E35;stroke-linecap:round;stroke-linejoin:round;stroke-miterlimit:10;"/>
			</g>
			<polygon class="st8" points="521.2,377.1 544,461.3 550.1,461.3 527.2,377.1 			"/>
			<g>
				<defs>
					<path id="XMLID_25_" d="M527.3,367.4v8.2h-89.9v-8.2c0-3.4,2.7-6.1,6.1-6.1h77.8c2.8,0,5.2,1.9,5.9,4.5
						C527.2,366.3,527.3,366.9,527.3,367.4z"/>
				</defs>
				<use xlink:href="#XMLID_25_"  style="overflow:visible;fill:#F27C3B;"/>
				<clipPath id="XMLID_6_">
					<use xlink:href="#XMLID_25_"  style="overflow:visible;"/>
				</clipPath>
				<path class="st11" d="M527,365.8c-2.9,3.4-8.1,6.9-17.1,9.8h-72.6v-8.2c0-3.4,2.7-6.1,6.1-6.1h77.8
					C524,361.4,526.3,363.2,527,365.8z"/>
				
					<use xlink:href="#XMLID_25_"  style="overflow:visible;fill:none;stroke:#1A2E35;stroke-linecap:round;stroke-linejoin:round;stroke-miterlimit:10;"/>
			</g>
			<path class="st9" d="M530.3,380.9h-95.2c-0.9,0-1.7-0.8-1.7-1.7v-4.3c0-0.9,0.8-1.7,1.7-1.7h95.2c0.9,0,1.7,0.8,1.7,1.7v4.3
				C532,380.1,531.2,380.9,530.3,380.9z"/>
		</g>
		<g>
			<g>
				<defs>
					<path id="XMLID_24_" d="M434.4,373.4c-4.3,4.4,16.6,73.4,16.6,73.4c-2.3,2-5.6,2.9-8.8,3.3c-4.6,0.6-8.8,0.1-8.8,0.1
						s-29.9-72.6-21.7-90.6c8.2-18,59.4-26.3,59.4-26.3l2.2-5.4l26.4-3.7l4.4,32.4c0,0-4.3,0.4-10.9,1.3
						C475.7,360.1,442.3,365.4,434.4,373.4z"/>
				</defs>
				<use xlink:href="#XMLID_24_"  style="overflow:visible;fill:#1A2E35;"/>
				<clipPath id="XMLID_7_">
					<use xlink:href="#XMLID_24_"  style="overflow:visible;"/>
				</clipPath>
				<path class="st12" d="M451,446.8c-2.3,2-5.6,2.9-8.8,3.3c-5.8-21.6-20.6-79.2-15-86.3c6.9-8.7,41.1-16.6,41.1-16.6
					c0.1-4.4,12.1-8.4,12.1-8.4l12.7,19.1c-17.5,2.3-50.8,7.5-58.8,15.5C430.1,377.8,451,446.8,451,446.8z"/>
				
					<use xlink:href="#XMLID_24_"  style="overflow:visible;fill:none;stroke:#1A2E35;stroke-linecap:round;stroke-linejoin:round;stroke-miterlimit:10;"/>
			</g>
			<g>
				<defs>
					<path id="XMLID_23_" d="M419.6,308.1c-4.4-0.8,26.9-28.2,26.9-28.2l15.1,10.1c0,0-25.6,18.1-29.7,18.6
						C427.8,309.1,419.6,308.1,419.6,308.1z"/>
				</defs>
				<use xlink:href="#XMLID_23_"  style="overflow:visible;fill:#FFFFFF;"/>
				<clipPath id="XMLID_8_">
					<use xlink:href="#XMLID_23_"  style="overflow:visible;"/>
				</clipPath>
				<path class="st13" d="M419.6,308.1c-4.4-0.8,26.9-28.2,26.9-28.2l15.1,10.1c0,0-25.6,18.1-29.7,18.6
					C427.8,309.1,419.6,308.1,419.6,308.1z"/>
				
					<use xlink:href="#XMLID_23_"  style="overflow:visible;fill:none;stroke:#1A2E35;stroke-linecap:round;stroke-linejoin:round;stroke-miterlimit:10;"/>
			</g>
			<g>
				<path class="st6" d="M425.1,296.6c0,0,6.6,1.6,8.6,3s1.4,6.3,1.4,6.3S426.4,303.4,425.1,296.6z"/>
				<polygon class="st4" points="420.9,284 433.1,307.4 434.5,307.4 423,282.9 				"/>
				<path class="st6" d="M431.9,300.9c0,0-7.7-5.5-9.6-5.5c-1.9,0-7.5,6.7-7.5,10c0,3.3,12.3,5.2,14.7,2.3c1.2-1.4-1.2-4.8-1.2-4.8
					s3.6,3.7,4.6,4.3c1,0.6,2.9-0.2,2.9-0.2S433.3,303,431.9,300.9z"/>
				<path class="st1" d="M428.3,308.6c0,0-2.9-3.8-6.4-5.6"/>
				<path class="st1" d="M428.3,303c0,0-2.7-2.3-4.5-2.8"/>
				<path class="st1" d="M420,305.9c0,0,4.3,2.3,5.4,3.2"/>
			</g>
			<g>
				<path class="st14" d="M456.3,268c-3.9,2.7-21.6,20.9-21.6,20.9s8.3,9.4,15.5,10.8l19.6-9.5L456.3,268z"/>
				<path class="st15" d="M456.3,268c-3.9,2.7-21.6,20.9-21.6,20.9s8.3,9.4,15.5,10.8l19.6-9.5L456.3,268z"/>
			</g>
			<g>
				<defs>
					<path id="XMLID_22_" d="M446.8,439.5l8.3,21.9c0,0,1.4,5.6-23.7,3.9l-13.8-1.2L446.8,439.5z"/>
				</defs>
				<use xlink:href="#XMLID_22_"  style="overflow:visible;fill:#5AE4A7;"/>
				<clipPath id="XMLID_9_">
					<use xlink:href="#XMLID_22_"  style="overflow:visible;"/>
				</clipPath>
				<path class="st16" d="M446.8,439.5l8.3,21.9c0,0,1.4,5.6-23.7,3.9l-13.8-1.2L446.8,439.5z"/>
				
					<use xlink:href="#XMLID_22_"  style="overflow:visible;fill:none;stroke:#1A2E35;stroke-linecap:round;stroke-linejoin:round;stroke-miterlimit:10;"/>
			</g>
			<path class="st7" d="M443.6,449.9c0,0,1.8,8.5,0,14.8c0,0-26.5,4.2-32.4,2.6c-5.9-1.6-9.5-4.5-9.7-6c0,0,0.2-4.1,6.1-5.2
				c5.9-1.2,17.8-2,22.4-8.7C434.7,440.6,443.6,449.9,443.6,449.9z"/>
			<path class="st17" d="M478.6,327.1c8.5-12.1,47.4,2.5,47.4,2.5s3.7,29.1-11.8,36.8c-15.5,7.8-37.9,7.3-43.9,13.6l-24.6,72.6
				c0,0-8.8,3.7-21.7-2.1c0,0,15.6-54.8,20.2-74.3c4.5-19.3,33.9-32.3,33.9-32.3s-2.5-2.8-3.4-6.1"/>
			<path class="st18" d="M518,354.9c-1.2,1.1-2.6,2.1-3.9,3.1"/>
			<path class="st18" d="M521.2,330.3c3.2,6.9,3.4,15.7-1,22"/>
			<path class="st18" d="M512.3,331.4c0,0-0.8,5.3,1.6,7.4c2.4,2.1,9.6,3.2,9.6,3.2"/>
			<path class="st18" d="M480.4,331.6c0,0,0.3,5.3-1.8,5.1c-2.1-0.3-2.3,2.1-2.3,2.1"/>
			<g>
				<path class="st14" d="M456.8,272c-0.3-1.4-0.5-2.8-0.5-4.1c0,0,12-10.1,27.4-10.1c18.4,0.1,29.6,5.9,34.2,13.9
					c7.1,12.7,8.1,57.8,8.1,57.8s-46.2,7.1-52.8-1.6c-1.1-1.5-0.3-12.3-0.3-12.3s-5.2-13.6-6.3-24.1c0,0-2-2.7-4.2-6.5
					c-1.5-2.5-3.1-5.5-4.3-8.6"/>
				<path class="st0" d="M456.8,272c-0.3-1.4-0.5-2.8-0.5-4.1c0,0,12-10.1,27.4-10.1c18.4,0.1,29.6,5.9,34.2,13.9
					c7.1,12.7,8.1,57.8,8.1,57.8s-46.2,7.1-52.8-1.6c-1.1-1.5-0.3-12.3-0.3-12.3s-5.2-13.6-6.3-24.1c0,0-2-2.7-4.2-6.5
					c-1.5-2.5-3.1-5.5-4.3-8.6"/>
				<path class="st1" d="M474.5,282.9c0,0,7,27.4,6,33.4c-0.5,3,1,6.1,1,6.1s-3.2,3.2-1,7.4"/>
				<path class="st1" d="M493.2,305.5c-1.4-0.1-2.6-0.4-3.5-1.1l-2.1-9.2c0,0,6.4,0.7,12.4-0.9l2.2,10c0,0-1.7,0.5-3.8,0.8"/>
				<path class="st14" d="M469.5,286.4c0,0-6-25.6,9.1-28.5c15.1-3,18.3,4.1,17.4,8.9c-1.2,6.4-13.7,22.1-13.7,22.1l-7.8-6
					L469.5,286.4z"/>
				<path class="st15" d="M469.5,286.4c0,0-6-25.6,9.1-28.5c15.1-3,18.3,4.1,17.4,8.9c-1.2,6.4-13.7,22.1-13.7,22.1l-7.8-6
					L469.5,286.4z"/>
			</g>
			<path class="st18" d="M449.6,365.3c0,0,9.8-11.3,31.9-19.8c0,0-5.7-1.8-7-4.1"/>
			<line class="st18" x1="438.1" y1="399.9" x2="429.1" y2="432.4"/>
			<path class="st14" d="M507.2,306.4c0,0,4,6.8,20.5,6.1c0,0-4.5-5.1-11.2-7C509.7,303.7,507.2,306.4,507.2,306.4z"/>
			<path class="st6" d="M443.3,309.1c0,0,3.8-5.9,7.3-7.1c3.5-1.2,13.8-1.3,15.4-1.3c1.6,0,29.8,7.1,43.1,11.6l-1.2-22.1l17.8,1.4
				c0,0-0.7,27-3.5,34.2c-2.8,7.1-6.7,5.4-13.5,2.5c-26.6-11.5-42.2-19.5-43.7-19C463.6,309.5,443.3,309.1,443.3,309.1z"/>
			<g>
				<path class="st14" d="M503.5,277.2c-0.5,1.9-0.6,3.9-0.4,5.6c0.8,6.9,4.2,23.5,4.2,23.5s16.6,2.4,20.5,6.1c0,0,2.7-22-2.8-33.2
					c-5.6-11.1-11.4-12.4-11.4-12.4c-3.6-0.9-7,2.5-8.9,6.9"/>
				<g>
					<path class="st15" d="M503.5,277.2c-0.5,1.9-0.6,3.9-0.4,5.6c0.8,6.9,4.2,23.5,4.2,23.5s16.6,2.4,20.5,6.1c0,0,2.7-22-2.8-33.2
						c-5.6-11.1-11.4-12.4-11.4-12.4c-3.6-0.9-7,2.5-8.9,6.9"/>
				</g>
			</g>
			<path class="st1" d="M454.6,285.8c0,0,3.3,2.9,8.5,4.3"/>
			<path class="st1" d="M507.2,285.8c0,0,6,11.3,13.6,13.8"/>
			<path class="st18" d="M468.3,373.1c0,0,1.1,0.8,1.6,3.9"/>
			<path class="st18" d="M464.2,377c0,0,3.1,0.2,4.9,2.8"/>
			<path class="st18" d="M431.1,365.3c0,0,3.2,1.6,2.5,6.2"/>
			<path class="st18" d="M427.7,369.3c0,0,4.4,2.6,4.7,4.9"/>
			<path class="st18" d="M478.4,341.3c0,0,9.7,1.4,11.9,0"/>
		</g>
		<g>
			<g>
				<defs>
					<path id="XMLID_21_" d="M474.5,281.8c0,0-1.2-2.9-1-7.4c0-0.8,0.1-1.7,0.3-2.5l-1.7-2.7l-2.2-3.5l2.5-10.1c0,0,16,3.1,17.2,7.5
						C490.8,267.6,474.5,281.8,474.5,281.8z"/>
				</defs>
				<use xlink:href="#XMLID_21_"  style="overflow:visible;fill:#FFFFFF;"/>
				<clipPath id="XMLID_10_">
					<use xlink:href="#XMLID_21_"  style="overflow:visible;"/>
				</clipPath>
				<path class="st19" d="M473.4,274.3c0-0.8,0.1-1.7,0.3-2.5l-1.7-2.7c2.8-0.6,5.8-1.8,7.8-4.4
					C479.8,264.7,480.4,271.7,473.4,274.3z"/>
				
					<use xlink:href="#XMLID_21_"  style="overflow:visible;fill:none;stroke:#1A2E35;stroke-linecap:round;stroke-linejoin:round;stroke-miterlimit:10;"/>
			</g>
			<path class="st6" d="M484.5,256.5c4.9-13,1.7-35.1-22.3-30.9c-14.1,2.5-15.8,19.5-11.1,27.1c4.7,7.6-0.3,7.8,6.8,13.4
				c2.9,2.3,5.2,6.1,8.6,6.4c4.1,0.3,9.3-3.6,13.2-7.7"/>
			<path class="st1" d="M460.9,252.7c0,0,3.5-3.2,7.7-1.9"/>
			<path class="st1" d="M454.2,252.7c0,0-1.2-2.5-4.6-3.1"/>
			<path class="st6" d="M456.6,257.3c0,0-0.5,2.6-1.2,5.2c-0.6,2.5,4.2,1.2,4,0.8"/>
			<path class="st1" d="M461.9,266.6c0,0,3.1-0.7,5.3-3.5"/>
			<path class="st4" d="M465.8,256c0.2,0.7-0.1,1.4-0.7,1.6c-0.6,0.2-1.2-0.3-1.4-1c-0.2-0.7,0.1-1.4,0.7-1.6
				C465,254.8,465.6,255.2,465.8,256z"/>
			<path class="st4" d="M455.1,255.7c0.2,0.7,0.1,1.4-0.3,1.5c-0.4,0.1-0.8-0.4-1-1.1c-0.2-0.7-0.1-1.4,0.3-1.5
				C454.4,254.5,454.9,255,455.1,255.7z"/>
			<path class="st17" d="M469.7,239.3c0,0-3.7,9.7-12.9,9.5c0,0,3.2-2.4,4.1-4.8c0,0-7.1,7-14.2,3.4c-7.1-3.6-3.6-20.1,7.3-26.7
				c10.9-6.6,21.9-4.8,25.7,1.5c0,0,7.6-0.7,10.9,10.5c3,10-1.8,25.2-6.5,25.3c-7.3,0.3-8.7-7.6-8.7-7.6S471,246.6,469.7,239.3z"/>
			<path class="st6" d="M477.7,256.5c0,0-0.2-9.2,5-8.1c5.2,1.1,1.4,11.7-2.5,11.6"/>
		</g>
		<path class="st7" d="M461.5,314.2h-80.6c-0.9,0-1.6-0.7-1.6-1.6v-2.8c0-0.9,0.7-1.6,1.6-1.6h80.6c0.9,0,1.6,0.7,1.6,1.6v2.8
			C463.2,313.4,462.4,314.2,461.5,314.2z"/>
	</g>
	<g>
		<polygon id="XMLID_2_" class="st17" points="261.9,430.2 227.9,430.2 231.4,461.3 258.3,461.3 		"/>
		<g>
			<path class="st7" d="M265.9,408.6c0,0-14.9,1.2-15.5,12.1C250.4,420.7,265.5,427.6,265.9,408.6z"/>
			<path class="st7" d="M236.5,411.3c0,0-8.3-11.2-21.7-5.5C214.8,405.8,223,419.4,236.5,411.3z"/>
			<path class="st7" d="M216,375.9c0,0-2.4,21.6,17.3,15.6C233.2,391.5,227,375.7,216,375.9z"/>
			<path class="st7" d="M240.1,363.9c0,0-15.5,8.4-4.1,21.1C236,385,246.9,375.9,240.1,363.9z"/>
			<path class="st7" d="M259.2,383.2c0,0-16.9-1.7-16.9,13.9C242.3,397.1,259.2,397.8,259.2,383.2z"/>
			<path class="st1" d="M243.3,443c0,0,7.7-16.2,0.3-32.6c-7.4-16.5-9.9-30.3-6-40.1"/>
			<path class="st1" d="M253.7,387.4c0,0-10.1,4-13.6,14.5"/>
			<path class="st1" d="M221.3,384.5c0,0,5.9,8,15.8,7.1"/>
			<path class="st1" d="M221.3,408.1c0,0,16.2,4.7,22.6,3.1"/>
			<path class="st1" d="M261.1,413.5c0,0-7.2,8-14.5,7.8"/>
		</g>
		
			<rect x="226.4" y="429.5" transform="matrix(-1 -1.224647e-16 1.224647e-16 -1 489.7739 863.4816)" class="st17" width="36.9" height="4.4"/>
	</g>
	<g>
		<g>
			<defs>
				<path id="XMLID_20_" d="M531.3,401.3c0,0-12.4,7.3-21.2,22c-8.8,14.7-15.8,35.4-4.9,38l10.3-0.4l19.8-6.8l-2.1-4
					c0,0-17.4,9.2-20.3,9.2c-3,0-6.8,0.7-8.5-0.4c-1.6-1.2,5.7-27.9,21.4-36.8C541.6,413.1,531.3,401.3,531.3,401.3z"/>
			</defs>
			<use xlink:href="#XMLID_20_"  style="overflow:visible;fill:#5AE4A7;"/>
			<clipPath id="XMLID_11_">
				<use xlink:href="#XMLID_20_"  style="overflow:visible;"/>
			</clipPath>
			<path class="st20" d="M531.3,401.3c0,0-12.4,7.3-21.2,22c-8.8,14.7-15.8,35.4-4.9,38l10.3-0.4l19.8-6.8l-2.1-4
				c0,0-17.4,9.2-20.3,9.2c-3,0-6.8,0.7-8.5-0.4c-1.6-1.2,5.7-27.9,21.4-36.8C541.6,413.1,531.3,401.3,531.3,401.3z"/>
			
				<use xlink:href="#XMLID_20_"  style="overflow:visible;fill:none;stroke:#1A2E35;stroke-linecap:round;stroke-linejoin:round;stroke-miterlimit:10;"/>
		</g>
		<path class="st21" d="M542.6,391.7c0,0,0-4.3,6.5-4.9c6.5-0.6,7.5,5.7,7.5,5.7h-2.2c0,0,0.1-3.8-4.7-4.1c-4.8-0.3-4.6,4.1-4.6,4.1
			L542.6,391.7z"/>
		<g>
			<defs>
				<path id="XMLID_19_" d="M533,461.3c-13.8,0-11.2-61.9-9.6-65s41.7-4.6,45.6-3.3c3.9,1.3,19.8,63,11.1,67.9L533,461.3z"/>
			</defs>
			<use xlink:href="#XMLID_19_"  style="overflow:visible;fill:#5AE4A7;"/>
			<clipPath id="XMLID_12_">
				<use xlink:href="#XMLID_19_"  style="overflow:visible;"/>
			</clipPath>
			<path class="st22" d="M533,461.3c-13.8,0-11.2-61.9-9.6-65s41.7-4.6,45.6-3.3c3.9,1.3,19.8,63,11.1,67.9L533,461.3z"/>
			
				<use xlink:href="#XMLID_19_"  style="overflow:visible;fill:none;stroke:#1A2E35;stroke-linecap:round;stroke-linejoin:round;stroke-miterlimit:10;"/>
		</g>
		<path class="st7" d="M523.4,396.3c5,1.1,7.9,21.3,14.6,26.5c6.7,5.2,38.5,4,42.1,0c3.6-4-3.4-26.8-8.5-30.3
			c-5.1-3.5-8.7-0.1-23.1-1.7C527.1,388.5,523.4,396.3,523.4,396.3z"/>
		<g>
			<defs>
				<path id="XMLID_18_" d="M559.8,408l5.9,4.8c0.3,0.3,0.4,0.8,0.1,1.1l-4.6,4.9c-0.3,0.3-0.8,0.3-1.1,0l-5.8-5.5
					c-0.3-0.3-0.3-0.8,0-1.1l4.5-4.2C559,407.7,559.5,407.7,559.8,408z"/>
			</defs>
			<use xlink:href="#XMLID_18_"  style="overflow:visible;fill:#5AE4A7;"/>
			<clipPath id="XMLID_13_">
				<use xlink:href="#XMLID_18_"  style="overflow:visible;"/>
			</clipPath>
			<path class="st23" d="M559.8,408l5.9,4.8c0.3,0.3,0.4,0.8,0.1,1.1l-4.6,4.9c-0.3,0.3-0.8,0.3-1.1,0l-5.8-5.5
				c-0.3-0.3-0.3-0.8,0-1.1l4.5-4.2C559,407.7,559.5,407.7,559.8,408z"/>
			
				<use xlink:href="#XMLID_18_"  style="overflow:visible;fill:none;stroke:#1A2E35;stroke-linecap:round;stroke-linejoin:round;stroke-miterlimit:10;"/>
		</g>
		<g>
			<defs>
				<path id="XMLID_17_" d="M540.4,433.2c0,0,26.6,2.2,39.6-1.2c0,0,2.5,1.8,3.7,5.3c1.2,3.6,3.7,15.7-3.7,18.9
					c-7.4,3.1-34,2.5-37.5-1C538.9,451.6,540.4,433.2,540.4,433.2z"/>
			</defs>
			<use xlink:href="#XMLID_17_"  style="overflow:visible;fill:#5AE4A7;"/>
			<clipPath id="XMLID_14_">
				<use xlink:href="#XMLID_17_"  style="overflow:visible;"/>
			</clipPath>
			<path class="st24" d="M540.4,433.2c0,0,26.6,2.2,39.6-1.2c0,0,2.5,1.8,3.7,5.3c1.2,3.6,3.7,15.7-3.7,18.9c-7.4,3.1-34,2.5-37.5-1
				C538.9,451.6,540.4,433.2,540.4,433.2z"/>
			
				<use xlink:href="#XMLID_17_"  style="overflow:visible;fill:none;stroke:#1A2E35;stroke-linecap:round;stroke-linejoin:round;stroke-miterlimit:10;"/>
		</g>
		<path class="st7" d="M540.4,433.2c0,0,3.1,8.4,4.8,9.7c1.6,1.3,36.2,1.3,40-1.8c3.8-3.1-1.4-8.8-5.1-9.1
			C580,432,555.8,434.8,540.4,433.2z"/>
		<g>
			<defs>
				<path id="XMLID_16_" d="M529.3,431.4c0,0,0.9,17.7,2.7,21.7c0,0-4.1,2.4-8.6,0s-3.8-17.6-2.9-17.6
					C521.4,435.5,529.3,431.4,529.3,431.4z"/>
			</defs>
			<use xlink:href="#XMLID_16_"  style="overflow:visible;fill:#5AE4A7;"/>
			<clipPath id="XMLID_15_">
				<use xlink:href="#XMLID_16_"  style="overflow:visible;"/>
			</clipPath>
			<path class="st25" d="M529.3,431.4c0,0,0.9,17.7,2.7,21.7c0,0-4.1,2.4-8.6,0s-3.8-17.6-2.9-17.6
				C521.4,435.5,529.3,431.4,529.3,431.4z"/>
			
				<use xlink:href="#XMLID_16_"  style="overflow:visible;fill:none;stroke:#1A2E35;stroke-linecap:round;stroke-linejoin:round;stroke-miterlimit:10;"/>
		</g>
		<path class="st7" d="M529.3,431.4l-6.7,1.3c0,0-6.4,4.9-3.6,6.5C521.8,440.9,529.1,436.9,529.3,431.4z"/>
	</g>
</g>
</svg>
