<?xml version="1.0" encoding="utf-8"?>
<!-- Generator: Adobe Illustrator 23.0.1, SVG Export Plug-In . SVG Version: 6.00 Build 0)  -->
<svg version="1.1" id="Calque_1" xmlns="http://www.w3.org/2000/svg" xmlns:xlink="http://www.w3.org/1999/xlink" x="0px" y="0px"
	 viewBox="0 0 800.2 498.1" style="enable-background:new 0 0 800.2 498.1;" xml:space="preserve">
<style type="text/css">
	.st0{fill:#FFF0C0;}
	.st1{opacity:0.2;fill:#1A2E35;}
	.st2{opacity:0.2;}
	.st3{fill:#FFFFFF;stroke:#1A2E35;stroke-miterlimit:10;}
	.st4{fill:#1A2E35;stroke:#FFFFFF;stroke-miterlimit:10;}
	.st5{fill:#F4C031;}
	.st6{fill:#FFFFFF;}
	.st7{fill:#F4C031;stroke:#1A2E35;stroke-linecap:round;stroke-linejoin:round;stroke-miterlimit:10;}
	.st8{fill:#1A2E35;}
	.st9{clip-path:url(#XMLID_4_);}
	.st10{opacity:0.5;fill:#FFFFFF;}
	.st11{fill:#5AE4A7;}
	.st12{opacity:0.5;}
	.st13{fill:none;}
	.st14{fill:none;stroke:#1A2E35;stroke-miterlimit:10;}
	.st15{clip-path:url(#XMLID_7_);fill:#EFBF3A;}
	.st16{clip-path:url(#XMLID_7_);}
	.st17{fill:#EFBF3A;}
	.st18{opacity:0.5;clip-path:url(#XMLID_7_);fill:#FFFFFF;}
	.st19{opacity:0.5;clip-path:url(#XMLID_7_);}
	.st20{fill:none;stroke:#1A2E35;stroke-linecap:round;stroke-linejoin:round;stroke-miterlimit:10;}
	.st21{fill:#FFFFFF;stroke:#1A2E35;stroke-linecap:round;stroke-linejoin:round;stroke-miterlimit:10;}
	.st22{fill:#757575;stroke:#1A2E35;stroke-linecap:round;stroke-linejoin:round;stroke-miterlimit:10;}
	.st23{fill:#999999;stroke:#1A2E35;stroke-linecap:round;stroke-linejoin:round;stroke-miterlimit:10;}
	.st24{fill:#BFBFBF;stroke:#1A2E35;stroke-linecap:round;stroke-linejoin:round;stroke-miterlimit:10;}
	.st25{opacity:0.1;fill:#FFFFFF;}
	.st26{clip-path:url(#XMLID_8_);}
</style>
<rect class="st0" width="800.2" height="498.1"/>
<g>
	<path class="st1" d="M146.6,245.6C146.3,245.5,146.4,245.4,146.6,245.6L146.6,245.6z"/>
	<g>
		<path class="st2" d="M253.9,235.5c-1.2,7.8-6.9,14.1-14.4,16.6l-2.8,0.9c-10.2,14.5-28.2,20.7-43.5,11.7l-4.5-2.6l-12.5-14.9
			c0,0-0.1,0-0.1,0c-4,0.8-8.5,0.2-11.4-2.6c-0.5,2.5-3.7,3.9-5.8,2.6s-2.4-4.8-0.5-6.4c-2.5,2.2-6.4,1.2-8.9-1.2
			c-0.1-6.6,0.6-13.3,2.2-19.8c1-4.1,2.4-8,4-11.8c1.2-2.9,2.6-5.7,4.1-8.4c0.1-0.2,0.3-0.5,0.4-0.7c2.3-4,4.8-7.8,7.6-11.5
			c0.5-0.4,1-0.9,1.4-1.3c1.1-1,2.2-2,3.3-3c0.1-0.1,0.1-0.1,0.2-0.2c1.8-1.6,3.6-3.1,5.4-4.6c2.8-2.4,5.7-4.7,8.5-7
			c0.1-0.1,0.2-0.1,0.3-0.2c2.5-2,5-3.9,7.4-5.8c1.3-1,2.5-1.9,3.7-2.9c0.8,0.1,1.5,0.3,2.2,0.5c3.1,1.1,3.6,3.9,5.7,5.8
			c2.8,2.6,5.5-1.8,9.9-1.6c13.4,0.4,8.2,14.1,14.7,12.4c28.2-7.4,23.5,28.6,11.2,36.5C249,222.2,255.3,226.1,253.9,235.5z"/>
		<g>
			<ellipse class="st3" cx="193.3" cy="222.8" rx="47.5" ry="47"/>
			<ellipse class="st4" cx="193.3" cy="220.9" rx="43.3" ry="42.8"/>
		</g>
		<g>
			<g>
				<g>
					<g>
						<g>
							<g>
								<path class="st5" d="M146.7,237.8c-2.7,1.7-3.5,7.4-1.4,9.9c2.2,2.5,6.3,0.6,7.1-3.3c0.4,1.1,1.7,1.3,2.3,0.3
									c0.5-0.7,0.5-1.7,0.2-2.4c-0.2-0.2-0.1-0.3,0,0c1.4,1.1,3.8-0.1,4.1-2.5c-1,6.3,4.7,11.8,8.9,8.6c-1.2,2.7,0.4,6.2,2.6,6.9
									c2.2,0.7,4.5-0.6,6.6-2c2.1-1.4,4.2-3.1,6.5-3.2c2-0.1,3.8,1,5.7,1.7c6,2.1,13.1-0.7,17.7-7c3.1,5.2,10.6,3.3,12.6-3.2
									c0.4,3,2.5,5.4,4.8,5.4c2.3,0,4.7-2.2,5.5-5.2l0,0c0.1,2.9,2.6,4.3,4.5,2.4c2.3-2.4,3.8-6.7,2.6-10.2c3.1-0.1,6.2-3.8,6.6-8
									c0.5-4.2-1.6-8.4-4.7-9.2c5.2-2.2,9.2-9.2,9.4-16.4c0.2-7.2-3.5-13.9-8.6-15.5c-1.9-0.6-4.2-0.5-5.8,1.2
									c-0.6-4.1-2.5-7.8-5.2-9.6c-4.4-2.9-10.4-0.9-13.7,4.6c1.6-2.8,1.7-6.9,0.2-9.6c-1.4-2.7-4.3-3.7-6.7-2.5
									c-0.5-4.4-3.9-7.5-7.2-6.7c-3.3,0.9-6,5.5-5.7,10c-0.3-3.6-4.5-4.5-6.1-1.5c0.1,0.3-0.1,0.1,0,0c-2.1-4.4-6.4-6.7-10.4-5.4
									c-4.2,1.4-7.8,6.7-8.3,12.5c-2.9-2.7-7.2-2.5-10.3,0.3c-3.1,2.8-4.9,8.2-4.4,13c-3.3-3.3-8.8-1.5-11.1,3.5
									c-2.3,5-0.7,12.1,3.1,14.2c-2.6,0.4-4.9,3.9-4.9,7.4c0,3.5,2.3,6.6,5,6.5c-2.7,0.2-5.2,3.4-5.6,6.9
									C142.4,233.5,144.1,237,146.7,237.8z"/>
							</g>
						</g>
						<g class="st2">
							<g>
								<path class="st6" d="M190.4,221.4c-1.3-1.1-3-1.7-4.6-1.1c-1.6,0.5-3.1,2.2-3.5,4.3c-0.4,2.1,0.6,4.4,2.2,4.8
									c1.9,0.5,3.9-1.7,5.9-1.4c0.7,0.1,1.3,0.5,2,0.7c2.8,0.8,5.7-1.7,8.1-4.1c0.8-0.8,1.7-1.7,2.3-2.9c0.6-1.2,0.8-2.7,0.3-3.8
									c-0.7-1.5-2.4-1.7-3.9-1.4c-2.9,0.6-5.7,2.2-8,4.7c0.1-0.6,0.2-1.2,0.3-1.7L190.4,221.4z"/>
							</g>
							<g>
								<path class="st6" d="M231.8,215.7c-0.8-0.6-1.5-1.3-2.5-1.5c-0.9-0.2-2,0.1-2.6,1.1c-0.8,1.3-0.4,3.3,0.6,4.3
									c1,1,2.3,1.2,3.6,1.3c1.3,0.2,3,0.1,3.6-1.4c0.5-1.1,0.1-2.5-0.6-3.3c-0.7-0.8-1.6-1.1-2.6-1.5L231.8,215.7z"/>
							</g>
							<g>
								<path class="st6" d="M167,192.3c-2.7,1.6-4.8,4.8-5.4,8.4c-0.2,1.1-0.2,2.4,0.5,3c0.5,0.4,1.2,0.2,1.8-0.1
									c2.5-0.9,5.1-1.8,7.6-2.8c-1.2,0.7-2.5,1.4-3.5,2.5c-1,1.2-1.7,2.9-1.4,4.5c0.3,1.9,1.9,2.9,3.5,2.8c1.5-0.1,3-1.2,4.2-2.4
									c1.3-1.3,2.7-3,2.7-5.1c0.1-2.1-1.9-3.9-3.2-2.5c2.9-1.2,5.7-2.9,8.2-5.2c0.9-0.8,1.8-1.7,2.4-3c0.6-1.2,0.8-2.8,0.3-4
									c-2.5-5.8-5.9,3.2-7.5,4C174.2,194.3,170.8,190,167,192.3z"/>
								<path class="st6" d="M154.7,218.6c-0.3,1.2-0.1,2.6,0.6,3.3c0.7,0.7,2.1,0.4,2.4-0.8c-1.7,0.8-3.5,1.7-4.6,3.5
									c-1.1,1.9-0.9,5,0.8,5.6c1,0.4,2.2-0.4,3.2-1.1c2.8-2.1,5.4-4.4,7.9-7.1c-0.8,2.3,1,4.7,2.9,4.7c1.9,0.1,3.7-1.3,5.3-2.7
									c2-1.7,4.3-4.1,3.9-7c-0.4-2.5-2.9-3.4-4.9-2.6c-1.9,0.9-3.4,2.9-4.8,4.9c1.1-2-0.4-4.9-2.2-5.1c-1.8-0.2-3.6,1.3-4.8,3.1
									c2.1-1.6,2.7-5.5-0.1-5.7C158.4,211.7,155.2,216.6,154.7,218.6z"/>
								<path class="st6" d="M212.7,206.4c-1.6-0.7-3.6,0.8-4.1,2.9c-0.5,2.1,0.7,4.4,2.4,4.7c-1.2,0.2-2.4,1.1-3.2,2.3
									c-0.5,0.7-0.8,1.6-0.7,2.5c0.1,1.3,1.2,2.1,2.2,2.1c1,0,2-0.6,3-1.2c-1,0.2-2.1,0.4-2.9,1.2c-0.8,0.8-1.2,2.6-0.5,3.4
									c0.6,0.7,1.6,0.5,2.4,0.2c1.9-0.8,3.6-2.1,5-3.9c1,1.4,2.6,2.4,4.1,2c1.6-0.4,2.9-2.6,2.5-4.5c-0.3-1.3-1.4-2.1-2.5-2.2
									c-1.1-0.1-2.2,0.4-3.3,0.9c1.1-1.1,2.3-2.2,2.7-3.9c0.4-1.6-0.4-3.8-1.7-3.6c-1.5,0.2-2.3,2.9-3.5,3.9
									C213.1,211.6,215.9,207.8,212.7,206.4z"/>
								<g>
									<path class="st6" d="M185.8,200.1c-1.7,1.6-2.4,4.5-2.3,7.1c0.1,2.9,1.1,5.9,3.1,6.9c2.7,1.4,6.2-1.8,6.8-5.5
										c0.6-3.8-1.3-7.5-3.9-9.1C189.5,199.6,187.6,198.6,185.8,200.1z"/>
								</g>
								<g>
									<path class="st6" d="M205,195.8c0.2,0.2,0.5,0.5,0.7,0.7c-1.1-1.8-3.6-1.9-5-0.2c-1.4,1.7-1.5,4.8-0.1,6.4
										c1.3,1.5,3.8,1.2,5-0.8c2,1,4.6,0.4,6-1.8c1.4-2.2,1.2-5.9-0.7-7.2c-1.9-1.3-4.8,1-4.6,3.7c-0.3-0.4-0.5-0.7-0.8-1.1
										L205,195.8z"/>
								</g>
								<g>
									<path class="st6" d="M226,198.9c-1.4,1.8-2.8,3.7-3.4,6.1c-0.5,2.4,0.2,5.3,2.1,5.8c1.8,0.5,3.6-1.5,4.7-3.6
										c1-1.9,1.7-4.2,1.2-6.2c-0.5-2-2.8-3.1-4-1.4L226,198.9z"/>
								</g>
								<path class="st6" d="M195.9,186.6c-0.7-1.9-2.8-2.5-4.3-1.2c-1.5,1.2-2,3.8-1.4,5.8c0.6,2,2.2,3.2,3.8,3.3
									c2.1,0.2,4.6-2.1,4.1-4.7c0.9,1.4,2.5,1.9,3.9,1.7c1.5-0.3,2.9-1.2,4.2-2.2c1.8-1.4,3.7-3.5,3.5-6c-0.1-2-1.6-3.5-3.2-3.6
									c-1.6-0.1-3.2,0.9-4.4,2.3c-1,1.1-1.8,2.4-2.8,3.4c-1.1,1-2.5,1.6-3.6,0.9L195.9,186.6z"/>
							</g>
						</g>
					</g>
				</g>
			</g>
		</g>
	</g>
	<g>
		<g>
			<rect x="276.8" y="257.7" class="st7" width="264.6" height="111.5"/>
			<g>
				<rect x="282.4" y="264.4" class="st3" width="24.9" height="13.8"/>
				<rect x="496.1" y="331.6" class="st3" width="39.2" height="13.8"/>
				<rect x="511.1" y="281.6" class="st3" width="24.2" height="13.8"/>
				<rect x="282.4" y="314.6" class="st3" width="24.9" height="13.8"/>
				<rect x="282.4" y="298" class="st3" width="20.2" height="13.8"/>
				<g>
					<rect x="282.4" y="281.2" class="st3" width="13.8" height="13.8"/>
					<rect x="300" y="281.2" class="st3" width="13.8" height="13.8"/>
					<rect x="317.5" y="281.2" class="st3" width="13.8" height="13.8"/>
					<rect x="335.1" y="281.2" class="st3" width="13.8" height="13.8"/>
					<rect x="352.7" y="281.2" class="st3" width="13.8" height="13.8"/>
					<rect x="370.3" y="281.2" class="st3" width="13.8" height="13.8"/>
					<rect x="387.9" y="281.2" class="st3" width="13.8" height="13.8"/>
					<rect x="405.5" y="281.2" class="st3" width="13.8" height="13.8"/>
					<rect x="423.1" y="281.2" class="st3" width="13.8" height="13.8"/>
					<rect x="440.7" y="281.2" class="st3" width="13.8" height="13.8"/>
					<rect x="458.3" y="281.2" class="st3" width="13.8" height="13.8"/>
					<rect x="475.9" y="281.2" class="st3" width="13.8" height="13.8"/>
					<rect x="493.5" y="281.2" class="st3" width="13.8" height="13.8"/>
				</g>
				<g>
					<rect x="282.4" y="348.6" class="st3" width="13.8" height="13.8"/>
					<rect x="300" y="348.6" class="st3" width="13.8" height="13.8"/>
					<rect x="317.5" y="348.6" class="st3" width="13.8" height="13.8"/>
					<rect x="335.1" y="348.6" class="st3" width="16.8" height="13.8"/>
					<rect x="355.8" y="348.6" class="st3" width="84.2" height="13.8"/>
					<rect x="468.2" y="348.6" class="st3" width="13.8" height="13.8"/>
					<rect x="485.8" y="348.6" class="st3" width="13.8" height="13.8"/>
					<rect x="503.4" y="348.6" class="st3" width="13.8" height="13.8"/>
					<rect x="443.4" y="348.6" class="st3" width="21.4" height="13.8"/>
					<rect x="521.6" y="348.6" class="st3" width="13.8" height="13.8"/>
				</g>
				<g>
					<rect x="306.4" y="298" class="st3" width="13.8" height="13.8"/>
					<rect x="324" y="298" class="st3" width="13.8" height="13.8"/>
					<rect x="341.6" y="298" class="st3" width="13.8" height="13.8"/>
					<rect x="359.2" y="298" class="st3" width="13.8" height="13.8"/>
					<rect x="376.8" y="298" class="st3" width="13.8" height="13.8"/>
					<rect x="394.4" y="298" class="st3" width="13.8" height="13.8"/>
					<rect x="412" y="298" class="st3" width="13.8" height="13.8"/>
					<rect x="429.6" y="298" class="st3" width="13.8" height="13.8"/>
					<rect x="447.2" y="298" class="st3" width="13.8" height="13.8"/>
					<rect x="464.8" y="298" class="st3" width="13.8" height="13.8"/>
					<rect x="482.4" y="298" class="st3" width="13.8" height="13.8"/>
					<rect x="499.9" y="298" class="st3" width="13.8" height="13.8"/>
					<polygon class="st3" points="535.4,298 535.4,328.6 521.6,328.6 521.6,311.8 517.5,311.8 517.5,298 					"/>
				</g>
				<g>
					<rect x="310.5" y="314.8" class="st3" width="13.8" height="13.8"/>
					<rect x="328.1" y="314.8" class="st3" width="13.8" height="13.8"/>
					<rect x="345.7" y="314.8" class="st3" width="13.8" height="13.8"/>
					<rect x="363.2" y="314.8" class="st3" width="13.8" height="13.8"/>
					<rect x="380.8" y="314.8" class="st3" width="13.8" height="13.8"/>
					<rect x="398.4" y="314.8" class="st3" width="13.8" height="13.8"/>
					<rect x="416" y="314.8" class="st3" width="13.8" height="13.8"/>
					<rect x="433.6" y="314.8" class="st3" width="13.8" height="13.8"/>
					<rect x="451.2" y="314.8" class="st3" width="13.8" height="13.8"/>
					<rect x="468.8" y="314.8" class="st3" width="13.8" height="13.8"/>
					<rect x="486.4" y="314.8" class="st3" width="13.8" height="13.8"/>
					<rect x="504" y="314.8" class="st3" width="13.8" height="13.8"/>
				</g>
				<g>
					<rect x="303" y="331.6" class="st3" width="13.8" height="13.8"/>
					<rect x="320.6" y="331.6" class="st3" width="13.8" height="13.8"/>
					<rect x="338.2" y="331.6" class="st3" width="13.8" height="13.8"/>
					<rect x="355.8" y="331.6" class="st3" width="13.8" height="13.8"/>
					<rect x="373.4" y="331.6" class="st3" width="13.8" height="13.8"/>
					<rect x="391" y="331.6" class="st3" width="13.8" height="13.8"/>
					<rect x="408.5" y="331.6" class="st3" width="13.8" height="13.8"/>
					<rect x="426.1" y="331.6" class="st3" width="13.8" height="13.8"/>
					<rect x="443.7" y="331.6" class="st3" width="13.8" height="13.8"/>
					<rect x="461.3" y="331.6" class="st3" width="13.8" height="13.8"/>
					<rect x="478.9" y="331.6" class="st3" width="13.8" height="13.8"/>
				</g>
				<g>
					<rect x="310.5" y="265.3" class="st3" width="13.8" height="13.8"/>
					<rect x="328.1" y="265.3" class="st3" width="13.8" height="13.8"/>
					<rect x="345.7" y="265.3" class="st3" width="13.8" height="13.8"/>
					<rect x="363.2" y="265.3" class="st3" width="13.8" height="13.8"/>
					<rect x="380.8" y="265.3" class="st3" width="13.8" height="13.8"/>
					<rect x="398.4" y="265.3" class="st3" width="13.8" height="13.8"/>
					<rect x="416" y="265.3" class="st3" width="13.8" height="13.8"/>
					<rect x="433.6" y="265.3" class="st3" width="13.8" height="13.8"/>
					<rect x="451.2" y="265.3" class="st3" width="13.8" height="13.8"/>
					<rect x="468.8" y="265.3" class="st3" width="13.8" height="13.8"/>
					<rect x="486.4" y="265.3" class="st3" width="13.8" height="13.8"/>
					<rect x="504" y="265.3" class="st3" width="13.8" height="13.8"/>
					<rect x="521.6" y="265.3" class="st3" width="13.8" height="13.8"/>
				</g>
				<rect x="282.4" y="331.6" class="st3" width="16.7" height="13.8"/>
			</g>
		</g>
		<polygon class="st8" points="276.8,258.4 282.4,256.6 537.9,256.6 541.5,258.4 		"/>
	</g>
	<g>
		<path class="st2" d="M465.7,449.6l-5.4-32.4c-1.2-4.8-3.7-9.2-7.3-12.7c-10.7-10.3-24.9-20.9-25.5-34.5
			c-0.9-20.7-4.2-20.1-3.8-25.2c0-0.2,1.6-2.5,3.7-7.6c0.7-1.7,1.1-4.1,1.6-6.1c0.5-2.1,2.5-3.6,4.6-3.3c1.4,0.2,2.9,0.8,3.9,1.8
			c2,1.9,2.8,4.7,2.9,7.5c0.1,2.7-0.5,5.4-1.1,8.1c1.9,4.3,2.8,9.6,3.5,14.2c1.2-3.8,2.2-7.6,3.4-11.4c0.3-0.1,0.2-0.4,0.4-0.6
			c-1.7-3.7-0.3-3.5-3.7-11.7c-5.8-13.8-12.2-27-16.8-44.3c-0.4-1.3-0.3-3.5,0.1-4.9c1.7-4.9,6.8-3.8,9-0.9c0.6,0.8,1,1.6,1.4,2.5
			c2.4,6.2,7.4,15.7,11,21.2l12.5,19c0,0,4.3-3.6,5-5.2l0,0c0.7-1.6,1-14.5,1-14.5s-1,2.4-3.2,2.3c-1.6-0.1-4.8,0.8-7.1-1.8
			c-1.9-2.1-1.9-5.3-0.2-7.5l5.7-7.6c0,0,3.8-3.3,8.9-1.1c5.1,2.3,10,7,10,7s4.7-0.2,8.7,1.7c4,1.9,8.2,7.5,8.2,7.5s4.7,0.3,6.8,1.8
			c0.5,0.4,7.7,11.5,5.1,20.1c-1.5,5.2-2.5,12.6-3.2,14.6l-3.5,50.6l7.1,33.3l-15.1,8.4c-5.5,3.1-11.4,5.7-17.4,7.8L465.7,449.6z"/>
		<g>
			<g>
				<g>
					<g>
						<g>
							<defs>
								<path id="XMLID_6_" d="M508.6,390.4l0.1-50.7c0.6-2.1,1-9.6,2.2-14.8c2-8.8-5.9-19.4-6.4-19.7c-2.2-1.4-6.9-1.4-6.9-1.4
									s-4.6-5.2-8.7-6.9c-4.1-1.6-8.8-1.1-8.8-1.1s-5.2-4.4-10.4-6.3c-5.2-1.9-8.8,1.7-8.8,1.7l-5.1,8c-1.5,2.4-1.3,5.5,0.7,7.5
									c2.5,2.4,5.6,1.3,7.2,1.3c2.2,0,3-2.5,3-2.5s0.5,12.9,0,14.6l0,0c-0.6,1.6-4.7,5.5-4.7,5.5l-13.7-18.2
									c-4-5.3-9.6-14.4-12.4-20.4c-0.4-0.9-0.9-1.7-1.5-2.4c-2.4-2.7-7.6-3.5-8.9,1.5c-0.4,1.4-0.2,3.5,0.2,4.9
									c5.7,17,13,29.8,19.7,43.1c4,7.9,2.5,7.8,4.5,11.4c-0.2,0.2-0.1,0.5-0.4,0.6c-1,3.9-1.6,7.7-2.6,11.6
									c-0.9-4.6-2.2-9.8-4.4-14c0.4-2.7,0.9-5.4,0.6-8.2c-0.3-2.7-1.3-5.5-3.4-7.2c-1.1-0.9-2.5-1.5-4-1.6
									c-2.2-0.2-4.1,1.4-4.4,3.6c-0.3,2-0.6,4.5-1.2,6.2c-1.7,5.2-3.2,7.6-3.2,7.8c0,5.1,3.2,4.3,5.5,24.9
									c1.8,16,22.4,26.6,33.7,38.2l12,37.7c13.9-5.6,27.2-12.7,40-21L508.6,390.4z"/>
							</defs>
							<use xlink:href="#XMLID_6_"  style="overflow:visible;fill:#FFFFFF;"/>
							<clipPath id="XMLID_4_">
								<use xlink:href="#XMLID_6_"  style="overflow:visible;"/>
							</clipPath>
							<g class="st9">
								<g>
									<path class="st5" d="M502.7,321.5c0.6-1.5,1.3-3,2.6-4s3.3-1.1,4.4,0.2c-0.9-2.6-1.8-5.2-2.7-7.8c-0.7-2-1.6-4-3.2-5.4
										c-1.6-1.3-4.3-1.6-5.7,0c1,6,1.1,12.1,0.3,18.1c-0.4,3.3-1,7,1.2,9.4c0.6,0.5,1.7-0.4,1.3-1.1c-0.2-0.3-0.8-0.3-1.1-0.3
										C500.5,327.6,501.5,324.5,502.7,321.5z"/>
									<path class="st5" d="M502.7,321.5c0.6-1.5,1.3-3,2.6-4s3.3-1.1,4.4,0.2c-0.9-2.6-1.8-5.2-2.7-7.8c-0.7-2-1.6-4-3.2-5.4
										c-1.6-1.3-4.3-1.6-5.7,0c1,6,1.1,12.1,0.3,18.1c-0.4,3.3-1,7,1.2,9.4c0.6,0.5,1.7-0.4,1.3-1.1c-0.2-0.3-0.8-0.3-1.1-0.3
										C500.5,327.6,501.5,324.5,502.7,321.5z"/>
									<path class="st10" d="M502.7,321.5c0.6-1.5,1.3-3,2.6-4s3.3-1.1,4.4,0.2c-0.9-2.6-1.8-5.2-2.7-7.8c-0.7-2-1.6-4-3.2-5.4
										c-1.6-1.3-4.3-1.6-5.7,0c1,6,1.1,12.1,0.3,18.1c-0.4,3.3-1,7,1.2,9.4c0.6,0.5,1.7-0.4,1.3-1.1c-0.2-0.3-0.8-0.3-1.1-0.3
										C500.5,327.6,501.5,324.5,502.7,321.5z"/>
								</g>
								<g>
									<path class="st11" d="M484.4,316.1c0.1,2.2,0.1,4.4,0.6,6.6c0.5,2.1,1.7,4.2,3.7,5.3c-1.1-4.3-0.5-8.8,0.1-13.2
										c0.4-2.7,0.8-5.3,1.1-8c0.1-0.9,0.3-1.9,0.8-2.7c0.5-0.8,1.6-1.3,2.4-0.9c-1.1,0.7-2.6-0.2-3.3-1.4c-0.7-1.1-1-2.5-1.8-3.5
										c-1.5-2-4.8-2.4-7.1-1.9C481.7,303.1,484.1,309.3,484.4,316.1z"/>
									<g>
										<path class="st5" d="M484.4,316.1c0.1,2.2,0.1,4.4,0.6,6.6c0.5,2.1,1.7,4.2,3.7,5.3c-1.1-4.3-0.5-8.8,0.1-13.2
											c0.4-2.7,0.8-5.3,1.1-8c0.1-0.9,0.3-1.9,0.8-2.7c0.5-0.8,1.6-1.3,2.4-0.9c-1.1,0.7-2.6-0.2-3.3-1.4
											c-0.7-1.1-1-2.5-1.8-3.5c-1.5-2-4.8-2.4-7.1-1.9C481.7,303.1,484.1,309.3,484.4,316.1z"/>
									</g>
									<g class="st12">
										<path class="st6" d="M484.4,316.1c0.1,2.2,0.1,4.4,0.6,6.6c0.5,2.1,1.7,4.2,3.7,5.3c-1.1-4.3-0.5-8.8,0.1-13.2
											c0.4-2.7,0.8-5.3,1.1-8c0.1-0.9,0.3-1.9,0.8-2.7c0.5-0.8,1.6-1.3,2.4-0.9c-1.1,0.7-2.6-0.2-3.3-1.4
											c-0.7-1.1-1-2.5-1.8-3.5c-1.5-2-4.8-2.4-7.1-1.9C481.7,303.1,484.1,309.3,484.4,316.1z"/>
									</g>
								</g>
								<g>
									<g>
										<path class="st5" d="M465.7,298.4c-0.7-0.5-1-1.5-1.2-2.4c-0.2-0.9-0.5-1.9-1.3-2.3c-3.5,2.2-1.6,8.8-5.2,11
											c-0.7,0.4-1.6,0.7-2,1.4c-0.3,0.6-0.1,1.5,0.4,2c0.5,0.5,1.2,0.8,1.9,0.9c2.8,0.5,5.8-0.9,7.5-3.3c1.4-1.9,2.4-5,1.7-7.3
											C467,298.7,466.2,298.8,465.7,298.4z"/>
										<path class="st5" d="M429,341.3c-0.1,0.2-0.1,0.6,0.1,0.7c0.3,0.2,0.7-0.1,0.9-0.5c1.5-2.1,4.4-3.1,6.8-2.2
											c0.9,0,1.2-1.4,0.6-2.1c-0.6-0.7-1.6-0.8-2.6-0.8c-0.9,0-1.9,0-2.7-0.4c-1-0.6-1.3-1.8-1.1-2.9
											C430.5,335.8,429.7,338.6,429,341.3z"/>
									</g>
									<g class="st12">
										<path class="st6" d="M465.7,298.4c-0.7-0.5-1-1.5-1.2-2.4c-0.2-0.9-0.5-1.9-1.3-2.3c-3.5,2.2-1.6,8.8-5.2,11
											c-0.7,0.4-1.6,0.7-2,1.4c-0.3,0.6-0.1,1.5,0.4,2c0.5,0.5,1.2,0.8,1.9,0.9c2.8,0.5,5.8-0.9,7.5-3.3c1.4-1.9,2.4-5,1.7-7.3
											C467,298.7,466.2,298.8,465.7,298.4z"/>
										<path class="st6" d="M429,341.3c-0.1,0.2-0.1,0.6,0.1,0.7c0.3,0.2,0.7-0.1,0.9-0.5c1.5-2.1,4.4-3.1,6.8-2.2
											c0.9,0,1.2-1.4,0.6-2.1c-0.6-0.7-1.6-0.8-2.6-0.8c-0.9,0-1.9,0-2.7-0.4c-1-0.6-1.3-1.8-1.1-2.9
											C430.5,335.8,429.7,338.6,429,341.3z"/>
									</g>
								</g>
								<g>
									<path class="st5" d="M475.7,297.5c-2-0.3-4.1-0.3-5.9-1.3c-2.2-1.3-3.7-4-6.2-4.1c-2.3-0.1-3.9,2-5.2,3.8
										c-0.1-2.8,1.9-5.4,4.5-6.5c2.6-1,5.6-0.7,8.2,0.3c2.6,1,4.9,2.7,7.1,4.4c0.9,0.7,1.8,1.4,2.4,2.3
										C483.5,301,477.5,297.8,475.7,297.5z"/>
									<path class="st10" d="M475.7,297.5c-2-0.3-4.1-0.3-5.9-1.3c-2.2-1.3-3.7-4-6.2-4.1c-2.3-0.1-3.9,2-5.2,3.8
										c-0.1-2.8,1.9-5.4,4.5-6.5c2.6-1,5.6-0.7,8.2,0.3c2.6,1,4.9,2.7,7.1,4.4c0.9,0.7,1.8,1.4,2.4,2.3
										C483.5,301,477.5,297.8,475.7,297.5z"/>
								</g>
							</g>
							<g class="st9">
								<path class="st11" d="M439.9,362.7c0.1-0.3,0.3-0.5,0.4-0.8C440,362.1,439.8,362.4,439.9,362.7z"/>
								<path class="st5" d="M443.3,344.9c-0.2-2.8,0.2-5.7,0.1-8.5c-0.1-2.8-0.9-5.8-2.9-7.8c-3-2.8-11.1-1.4-8.3,3.9
									c0.8,1.5,2.7,2.2,4.2,1.6c1.5-0.7,2.3-2.7,1.4-4.1c3.3,5,3,12-0.7,16.7c4.2,3.6,5.5,10.2,3.2,15.2c0.5-0.4,1.3-0.4,1.9,0
									c0.8,0.6,1.1,1.7,1.5,2.6c0.4,0.9,1.2,1.9,2.2,1.8c1.4-3.4,0.9-7.2,0-10.8C444.9,352,443.6,348.6,443.3,344.9z"/>
								<path class="st11" d="M472.9,291.7c-1.6-1.2-3.5-2-5.4-2.3L472.9,291.7z"/>
								<path class="st5" d="M486.4,327.6c-0.4-2-1.3-3.8-1.9-5.7c-1.3-4.5-0.5-9.3-1-13.9c-0.7-6-3.9-11.6-8.5-15.4l-2.1-0.9
									c2,1.5,3.5,3.6,4.1,6c1.6,5.5,2.1,11.2,2.8,16.9c1.1,8.7,2.7,17.4,4.8,25.9C486,336.3,487.4,331.9,486.4,327.6z"/>
								<path class="st5" d="M464.6,307.2c1.4-1.1,2.2-2.9,2.4-4.7c0.2-1.6,0.1-3.2-0.1-4.8c-0.1,0.7-1,1.3-1.8,1.1
									c-1-0.2-1.6-1.1-2.2-2c-0.1,0.5-0.3,1-0.4,1.4c-0.1-0.3-0.1-0.5-0.2-0.8l-0.5,0.7c0.8,2.3,1.6,5,0.3,7.1
									c-0.6,1-1.6,1.7-2.6,2.4C461,308.6,463.2,308.3,464.6,307.2z"/>
								<path class="st11" d="M466.8,297.1c0,0.2,0,0.4,0.1,0.6C466.9,297.5,466.9,297.3,466.8,297.1z"/>
								<path class="st5" d="M460.8,320.3c-4-7.9-8-15.8-12.5-23.5c-2.6-4.5-5.3-8.9-8.8-12.8c-1.5-1.7-5.9-5.7-8.3-3.1
									c-1.6,1.7,0.5,4.9-1.5,6.8c0.5,0,2.7-0.2,2.9,0.1c5,6.2,7.8,14.2,7.7,22.3c1.6-1.3,3.8,0.5,5.1,2.1
									c7.8,10,15,20.4,21.8,31.1c-1.3-4.7-1.3-9.8-2.7-14.5C463.6,325.8,462.2,323.1,460.8,320.3z"/>
								<path class="st5" d="M507.6,339.6c1.9-5.1,3.4-10.4,3.6-15.9c0.2-5-1-10.1-3.6-14.4c-0.7-1.1-3.4-5.5-4.9-5.1
									c-2.7,0.6,0.8,5.3,1.5,6.5c2.3,4.4,4.7,9.1,4.6,14.1c-0.1,3.8-1.7,7.5-3,11.1c-0.9,2.5-1.6,5.2-1.6,7.9
									c-0.2,0.3-0.4,0.6-0.6,0.9c-1.8,2.3-4.3,4.3-7.2,4.8c1.1-3.4,2.2-6.8,3.3-10.3c0.4-1.2,0.5-2.9-0.2-3.7
									c0.2-0.5,0.4-1,0.4-1.5c0-0.9-0.6-1.8-1-2.6c-1.5-3.3-1-7.1-0.6-10.8c0.5-4.5,0.6-9.1-0.7-13.4c-1.3-4.3-4.3-8.3-8.6-9.7
									c0.4,0.4,0.7,0.8,1.1,1.2l-1.4-1.1c0.9,1.9,1.8,3.7,2.7,5.6c-0.3,0.5-0.7,0.9-1,1.4c1.5-0.8,3.4,0.3,4.1,1.9
									c0.7,1.5,0.5,3.3,0.3,4.9c-0.9,9.3-0.4,18.7,1.4,27.8c-0.2,2.1-0.5,4.3-1.7,6.1c-1.2,2-3.5,3.4-5.7,3.1
									c0.5-2.2-0.3-4.8-2.2-6.1c-2.3,3.2-1,8.2-0.6,11.9c0.5,5.5,1.4,11.1,2.7,16.5c0.4-4.7,1.3-9.4,2.9-13.8
									c1.2,4.5,2.5,9.1,3.7,13.6c0-1.3,0.1-2.6,0.7-3.7c0.6-1.1,2-1.9,3.2-1.5c1,0.4,1.5,1.4,1.9,2.4c3.2,7.8,4.1,16.6,2.3,24.8
									c1.5,0.9,3.6-0.2,4.4-1.7c0.9-1.5,0.8-3.4,0.8-5.2C508.1,370.2,507.8,354.9,507.6,339.6z"/>
								<path class="st5" d="M468.7,344.4c-0.7,1.3,2.3,6.4,2.8,7.6c2.5,6.2,5.1,12.3,7.6,18.5c-0.8-8.1-2.8-16.1-5.9-23.7
									C472.6,345.6,470.1,341.9,468.7,344.4z"/>
								<path class="st5" d="M472.6,311.7c-0.4,0.7-1,1.5-1.8,1.2c-0.7-0.2-0.8-1.1-0.8-1.9c0.1-4.3,0.1-8.6,0.2-12.9
									c-3.5,2.5-3,5.7-3.3,9.5c-0.1,2.1,0.5,12.4-1,13.6c3.4-2.9,6.3-6.5,8.5-10.4C473.9,310.4,473,311,472.6,311.7z"/>
								<g class="st12">
									<path class="st6" d="M439.9,362.7c0.1-0.3,0.3-0.5,0.4-0.8C440,362.1,439.8,362.4,439.9,362.7z"/>
									<path class="st6" d="M443.3,344.9c-0.2-2.8,0.2-5.7,0.1-8.5c-0.1-2.8-0.9-5.8-2.9-7.8c-3-2.8-11.1-1.4-8.3,3.9
										c0.8,1.5,2.7,2.2,4.2,1.6c1.5-0.7,2.3-2.7,1.4-4.1c3.3,5,3,12-0.7,16.7c4.2,3.6,5.5,10.2,3.2,15.2c0.5-0.4,1.3-0.4,1.9,0
										c0.8,0.6,1.1,1.7,1.5,2.6c0.4,0.9,1.2,1.9,2.2,1.8c1.4-3.4,0.9-7.2,0-10.8C444.9,352,443.6,348.6,443.3,344.9z"/>
									<path class="st6" d="M472.9,291.7c-1.6-1.2-3.5-2-5.4-2.3L472.9,291.7z"/>
									<path class="st6" d="M486.4,327.6c-0.4-2-1.3-3.8-1.9-5.7c-1.3-4.5-0.5-9.3-1-13.9c-0.7-6-3.9-11.6-8.5-15.4l-2.1-0.9
										c2,1.5,3.5,3.6,4.1,6c1.6,5.5,2.1,11.2,2.8,16.9c1.1,8.7,2.7,17.4,4.8,25.9C486,336.3,487.4,331.9,486.4,327.6z"/>
									<path class="st6" d="M464.6,307.2c1.4-1.1,2.2-2.9,2.4-4.7c0.2-1.6,0.1-3.2-0.1-4.8c-0.1,0.7-1,1.3-1.8,1.1
										c-1-0.2-1.6-1.1-2.2-2c-0.1,0.5-0.3,1-0.4,1.4c-0.1-0.3-0.1-0.5-0.2-0.8l-0.5,0.7c0.8,2.3,1.6,5,0.3,7.1
										c-0.6,1-1.6,1.7-2.6,2.4C461,308.6,463.2,308.3,464.6,307.2z"/>
									<path class="st6" d="M466.8,297.1c0,0.2,0,0.4,0.1,0.6C466.9,297.5,466.9,297.3,466.8,297.1z"/>
									<path class="st6" d="M460.8,320.3c-4-7.9-8-15.8-12.5-23.5c-2.6-4.5-5.3-8.9-8.8-12.8c-1.5-1.7-5.9-5.7-8.3-3.1
										c-1.6,1.7,0.5,4.9-1.5,6.8c0.5,0,2.7-0.2,2.9,0.1c5,6.2,7.8,14.2,7.7,22.3c1.6-1.3,3.8,0.5,5.1,2.1
										c7.8,10,15,20.4,21.8,31.1c-1.3-4.7-1.3-9.8-2.7-14.5C463.6,325.8,462.2,323.1,460.8,320.3z"/>
									<path class="st6" d="M507.6,339.6c1.9-5.1,3.4-10.4,3.6-15.9c0.2-5-1-10.1-3.6-14.4c-0.7-1.1-3.4-5.5-4.9-5.1
										c-2.7,0.6,0.8,5.3,1.5,6.5c2.3,4.4,4.7,9.1,4.6,14.1c-0.1,3.8-1.7,7.5-3,11.1c-0.9,2.5-1.6,5.2-1.6,7.9
										c-0.2,0.3-0.4,0.6-0.6,0.9c-1.8,2.3-4.3,4.3-7.2,4.8c1.1-3.4,2.2-6.8,3.3-10.3c0.4-1.2,0.5-2.9-0.2-3.7
										c0.2-0.5,0.4-1,0.4-1.5c0-0.9-0.6-1.8-1-2.6c-1.5-3.3-1-7.1-0.6-10.8c0.5-4.5,0.6-9.1-0.7-13.4c-1.3-4.3-4.3-8.3-8.6-9.7
										c0.4,0.4,0.7,0.8,1.1,1.2l-1.4-1.1c0.9,1.9,1.8,3.7,2.7,5.6c-0.3,0.5-0.7,0.9-1,1.4c1.5-0.8,3.4,0.3,4.1,1.9
										c0.7,1.5,0.5,3.3,0.3,4.9c-0.9,9.3-0.4,18.7,1.4,27.8c-0.2,2.1-0.5,4.3-1.7,6.1c-1.2,2-3.5,3.4-5.7,3.1
										c0.5-2.2-0.3-4.8-2.2-6.1c-2.3,3.2-1,8.2-0.6,11.9c0.5,5.5,1.4,11.1,2.7,16.5c0.4-4.7,1.3-9.4,2.9-13.8
										c1.2,4.5,2.5,9.1,3.7,13.6c0-1.3,0.1-2.6,0.7-3.7c0.6-1.1,2-1.9,3.2-1.5c1,0.4,1.5,1.4,1.9,2.4c3.2,7.8,4.1,16.6,2.3,24.8
										c1.5,0.9,3.6-0.2,4.4-1.7c0.9-1.5,0.8-3.4,0.8-5.2C508.1,370.2,507.8,354.9,507.6,339.6z"/>
									<path class="st6" d="M468.7,344.4c-0.7,1.3,2.3,6.4,2.8,7.6c2.5,6.2,5.1,12.3,7.6,18.5c-0.8-8.1-2.8-16.1-5.9-23.7
										C472.6,345.6,470.1,341.9,468.7,344.4z"/>
									<path class="st6" d="M472.6,311.7c-0.4,0.7-1,1.5-1.8,1.2c-0.7-0.2-0.8-1.1-0.8-1.9c0.1-4.3,0.1-8.6,0.2-12.9
										c-3.5,2.5-3,5.7-3.3,9.5c-0.1,2.1,0.5,12.4-1,13.6c3.4-2.9,6.3-6.5,8.5-10.4C473.9,310.4,473,311,472.6,311.7z"/>
								</g>
							</g>
						</g>
						<g>
							<g>
								<g>
									<path class="st13" d="M481.4,297.6c2,7.5,3.1,15.2,3.1,23c0,1.3,0,2.6,0.4,3.9c0.4,1.2,1.4,2.4,2.6,2.6"/>
									<path class="st13" d="M497.6,305.2c3.4,7.2-0.1,23.2,0.2,24.4c0.3,1.1,0.9,2.2,1.9,2.8"/>
									<g>
										<path class="st13" d="M468,296.7c-0.4,2.3-0.7,4.9-1.1,7.2c-2.7-2.3-4.4-5.6-4.6-9.1"/>
										<path class="st13" d="M446,357.9c-0.8,0.4-1.7,0.7-2.5,1.1"/>
										<path class="st13" d="M446.7,359.9c-0.4,1.9-0.4,3.9,0,5.8"/>
										<path class="st13" d="M461.2,338.4c0.9,1.6,1.8,3.3,2.7,4.9"/>
										<path class="st13" d="M466.4,320.3c0.9-1.3,1.8-2.6,2.7-3.9"/>
										<path class="st13" d="M504.9,338.4c-0.3,1-0.5,2-0.8,3"/>
										<path class="st13" d="M498.2,330.2c0.8-2.6,1.6-5.1,2.4-7.7"/>
										<path class="st13" d="M506.3,316.5c1.4-0.8,3.5-0.2,4.2,1.3"/>
										<path class="st13" d="M489.8,303.3c1.9-0.6,4.1-0.1,5.5,1.3"/>
										<path class="st13" d="M438.7,311c1.8-2,4.5-3,7.1-2.7"/>
									</g>
								</g>
								<path class="st13" d="M428.3,289.3c1.6-1.2,3.8-1.7,5.8-1.4"/>
								<path class="st6" d="M430.4,340.7c-1.3,1.1-2.5,2.3-3.4,3.8L430.4,340.7z"/>
							</g>
							<path class="st13" d="M431.5,335.5c1.8-1.3,4.7,1.6,6.4,0.1c0.7-0.6,0.7-1.6,0.6-2.5c-0.2-0.9-0.5-1.8-0.3-2.6"/>
						</g>
					</g>
				</g>
				<path class="st13" d="M482.7,327.5c2.2,4.5,2.7,9.9,1.3,14.7"/>
				<path class="st13" d="M496,334.6c0.4,2.1-0.1,4.4-1.2,6.3"/>
			</g>
		</g>
		<g>
			<g>
				<g>
					<g>
						<g>
							<path class="st14" d="M478.1,445.1l-12-37.7c-11.2-11.6-31.9-22.2-33.7-38.2c-2.3-20.6-5.5-19.8-5.5-24.9
								c0-0.2,1.4-2.6,3.2-7.8c0.6-1.7,0.8-4.2,1.2-6.2c0.3-2.1,2.2-3.7,4.4-3.6c1.5,0.1,2.9,0.7,4,1.6c2.1,1.8,3.1,4.5,3.4,7.2
								c0.3,2.7-0.2,5.5-0.6,8.2c2.2,4.2,3.5,9.3,4.4,14c1-3.9,1.6-7.7,2.6-11.6c0.2-0.1,0.1-0.4,0.4-0.6c-2-3.6-0.5-3.5-4.5-11.4
								c-6.7-13.4-14-26.2-19.7-43.1c-0.5-1.3-0.6-3.5-0.2-4.9c1.3-5,6.5-4.2,8.9-1.5c0.7,0.7,1.1,1.5,1.5,2.4
								c2.7,6,8.4,15.1,12.4,20.4l13.7,18.2c0,0,4.1-3.8,4.7-5.5l0,0c0.5-1.6,0-14.6,0-14.6s-0.8,2.5-3,2.5c-1.6,0-4.7,1.1-7.2-1.3
								c-2-2-2.2-5.1-0.7-7.5l5.1-8c0,0,3.6-3.6,8.8-1.7c5.2,1.9,10.4,6.3,10.4,6.3s4.7-0.6,8.8,1.1c4.1,1.7,8.7,6.9,8.7,6.9
								s4.7,0,6.9,1.4c0.6,0.3,8.4,10.9,6.4,19.7c-1.2,5.2-1.6,12.8-2.2,14.8l-0.1,50.7l9.5,33.6"/>
						</g>
						<g>
							<g>
								<g>
									<path class="st14" d="M481.4,297.6c2,7.5,3.1,15.2,3.1,23c0,1.3,0,2.6,0.4,3.9c0.4,1.2,1.4,2.4,2.6,2.6"/>
									<path class="st14" d="M497.6,305.2c3.4,7.2-0.1,23.2,0.2,24.4c0.3,1.1,0.9,2.2,1.9,2.8"/>
									<g>
										<path class="st14" d="M468,296.7c-0.4,2.3-0.7,4.9-1.1,7.2c-2.7-2.3-4.4-5.6-4.6-9.1"/>
										<path class="st14" d="M446,357.9c-0.8,0.4-1.7,0.7-2.5,1.1"/>
										<path class="st14" d="M446.7,359.9c-0.4,1.9-0.4,3.9,0,5.8"/>
										<path class="st14" d="M461.2,338.4c0.9,1.6,1.8,3.3,2.7,4.9"/>
										<path class="st14" d="M466.4,320.3c0.9-1.3,1.8-2.6,2.7-3.9"/>
										<path class="st14" d="M504.9,338.4c-0.3,1-0.5,2-0.8,3"/>
										<path class="st14" d="M498.2,330.2c0.8-2.6,1.6-5.1,2.4-7.7"/>
										<path class="st14" d="M506.3,316.5c1.4-0.8,3.5-0.2,4.2,1.3"/>
										<path class="st14" d="M489.8,303.3c1.9-0.6,4.1-0.1,5.5,1.3"/>
										<path class="st14" d="M438.7,311c1.8-2,4.5-3,7.1-2.7"/>
									</g>
								</g>
								<path class="st14" d="M428.3,289.3c1.6-1.2,3.8-1.7,5.8-1.4"/>
								<path class="st14" d="M430.4,340.7c-1.3,1.1-2.5,2.3-3.4,3.8"/>
							</g>
							<path class="st14" d="M431.5,335.5c1.8-1.3,4.7,1.6,6.4,0.1c0.7-0.6,0.7-1.6,0.6-2.5c-0.2-0.9-0.5-1.8-0.3-2.6"/>
						</g>
					</g>
				</g>
				<path class="st14" d="M482.7,327.5c2.2,4.5,2.7,9.9,1.3,14.7"/>
				<path class="st14" d="M496,334.6c0.4,2.1-0.1,4.4-1.2,6.3"/>
			</g>
		</g>
		<path class="st2" d="M385.1,351.8c0.1,0.8,0.1,1.6-0.1,2.4c-0.7,3.5-2.9,13.5-3.7,19c-0.9,6.7-11.8,27.5-11.8,27.5
			s-10,12.4-15.1,18.9c-2.5,3.2-6.5,16-9.8,28.3c-4.2-1.3-8.4-2.7-12.6-4.2c-3.5-1.2-6.9-2.5-10.3-3.9c-4.8-1.9-10.9-4.9-17.9-8.7
			c1.9-6.9,3.2-12.2,3.2-12.6c-0.1-0.7,4.1-8.7,4.1-8.7l-3.6-47.5l-2.1-7.2c-1.1-3.7-1.8-7.6-2.1-11.4c-0.4-5.9,0-11.8,1.5-17.6
			l6.2-9.2l2.9-0.2l9-12.6c0,0,4.9-1.5,6.1,2.2c1.3,3.7-4.1,10.5-4.1,10.5l-1.8,11.3l4.3,10.6l2.2,0.8c0,0,0.8-18.7,0.2-22.4l4.8-17
			c0,0,2.9-5.7,3.7-8.6c0.9-2.9,6-5.7,8.9-0.7c0,0,1.6,2.5,0.5,6c-1.2,3.5-2.2,6.3-2.2,6.3s-1.1,14.4-1.4,14.8
			c-0.3,0.4,2.1,21.5,2.1,21.5l1.9,0.8l0.7-20.1l3.9-18.9c0,0-0.3-9.1,6.1-8c0,0,3-0.3,4.7,2.9c1.7,3.3,0.1,25,0.1,25l1.6,22.5
			l2.5,17.4l3-11.9c0,0,0.2-17,10.9-18.5c0,0,3.2-0.6,3.9,1.7c0.7,2.2-1.6,6.8-1.3,11.1C384.4,346.6,384.9,350,385.1,351.8z"/>
		<g>
			<g>
				<defs>
					<path id="XMLID_2_" d="M381.8,330.7c-0.5-2.3-3.7-1.9-3.7-1.9c-10.8,0.6-12.3,17.6-12.3,17.6l-3.9,11.6l-1.2-17.5l0.1-22.6
						c0,0,3.3-21.6,1.8-25c-1.4-3.4-4.5-3.3-4.5-3.3c-6.3-1.6-6.7,7.5-6.7,7.5l-5.3,18.6l-2.2,20l-1.8-1c0,0-0.9-21.2-0.5-21.6
						c0.4-0.4,2.6-14.7,2.6-14.7s1.2-2.7,2.7-6.1c1.4-3.4,0-6.1,0-6.1c-2.6-5.2-7.9-2.8-9,0c-1.1,2.8-4.4,8.2-4.4,8.2l-6.1,16.6
						c0.2,3.8-1.9,22.3-1.9,22.3l-2.2-1l-3.5-10.9l2.7-11.2c0,0,5.8-6.4,4.8-10.2c-1-3.8-5.9-2.7-5.9-2.7l-9.9,11.9h-2.9l-6.9,8.7
						c-1.9,5.6-2.8,11.5-2.8,17.4c0,3.9,0.4,7.8,1.2,11.6l1.6,7.4v47.7c0,0-4.7,7.6-4.7,8.4c0,0.3-2,6.4-4.7,13.9
						c11.9,7,22.1,12.4,29.4,15.3c3.4,1.4,6.9,2.6,10.3,3.9c4.4-12.2,9.5-25.3,12.3-28.4c5.6-6.1,16.5-17.7,16.5-17.7
						s12.4-19.9,13.9-26.6c1.2-5.4,4.1-15.3,5.1-18.7c0.2-0.8,0.3-1.6,0.3-2.4c-0.1-1.8-0.3-5.3-0.3-8.3
						C379.7,337.4,382.3,333,381.8,330.7z"/>
				</defs>
				<use xlink:href="#XMLID_2_"  style="overflow:visible;fill:#FFFFFF;"/>
				<clipPath id="XMLID_7_">
					<use xlink:href="#XMLID_2_"  style="overflow:visible;"/>
				</clipPath>
				<path class="st15" d="M307.4,325.9c1.9-2.3,5.7-3.2,7.8-1.2c1.2,1.2,1.7,2.9,2,4.6c0.3,1.7,0.6,3.4,1.7,4.7
					c1.1,1.3,3.3,1.8,4.5,0.6c0.2,2.5,0.3,5,0.5,7.5c2.7-4.7,4.1-10,4-15.4c-0.1-2.6-0.4-5.3,0.2-7.8c0.6-2.5,2.6-5,5.2-5.1
					c2.9-0.1,5.2,2.7,5.7,5.5c0.6,2.8-0.1,5.8-0.3,8.6c-0.3,4.4,0.6,8.9,2.5,12.9c0.6-1.2,1.2-2.5,1.8-3.7c0.5,2.5,1.1,4.9,1.6,7.4
					c0.5-5.4,0.9-10.9,1.4-16.3c0.1-1.5,0.3-3.1,1-4.5c0.7-1.4,2.2-2.5,3.7-2.3c2.1,0.2,3.3,2.4,3.9,4.4c5.2,14.6,3,30.7,0.8,46
					c1.4,0.3,2.6-1.2,3-2.6c0.4-1.4,0.2-2.9,0.8-4.3c0.5-1.4,2.2-2.5,3.4-1.7c1.8,1.1,0.5,4.7,2.4,5.6c0.6-4.5,2.4-8.9,5.2-12.5
					c1.3-1.7,3.2-3.3,5.2-2.8c1.5,0.4,2.5,1.9,2.7,3.5c0.2,1.5,2.4-4.8,2.1-3.3c0.9-8.8-0.9-9.8,0-18.6c0.2-1.6,2.7-4.4,1.6-5.5
					c-1-1.1-4.2-2.7-5.6-2.1c-1.4,0.6-5.9,2.9-6.8,4.1c-5.6,7.8-5.3,19.1-7,28.5c-1.5-14.4-3-29.1-0.3-43.3c1.5-7.9,4.1-16,1.6-23.6
					c-1.2-3.5-4.2-6.9-7.8-6.3c-2.9,0.5-4.6,3.4-5.8,6.1c-4,9.1-5.7,18.9-7.4,28.6c2.2-9.8,4.3-19.6,6.5-29.4
					c0.6-2.5,1.1-5.2,0.7-7.7c-0.5-2.6-2.2-5.1-4.8-5.6c-2.5-0.5-5,1-7,2.7c-6.8,6.2-9.4,15.8-11.6,24.7c0.8-2.3,1.6-4.8,1.3-7.2
					c-0.2-2.5-1.8-5-4.2-5.5c-3.1-0.7-6,2.1-7.3,5c-1.4,2.9-2,6.2-4.2,8.5c-1.6-1.8-4.6-1.7-6.6-0.4c-2,1.3-3.2,3.5-4.2,5.7
					c-3.6,8.1-5.1,17-4.4,25.8c1.6-3.5,5.6-5.8,9.4-5.4c-0.2-2-0.5-3.9-0.7-5.9"/>
				<g class="st16">
					<g>
						<path class="st17" d="M314.9,344.6c-0.1,1.4-0.2,2.9-0.3,4.3c0.4-1.2,2.2-1.7,3.2-0.8c-0.2-0.9,0.4-1.8,0.7-2.7
							c0.4-0.9,0.4-2.1-0.4-2.5c-1-0.5-2,0.7-2.5,1.7c0-0.4-0.1-0.7-0.1-1.1L314.9,344.6z"/>
					</g>
					<g>
						<path class="st17" d="M331.4,342c-1.2,1.4-2,3-2.3,4.8c0.5-0.5,1-1,1.7-1.2c0.7-0.2,1.5-0.1,1.9,0.4c0.3,0.3,0.4,0.9,0.7,1.1
							c0.4,0.2,0.9,0,1.1-0.4c0.2-0.4,0.3-0.8,0.3-1.3c0.1-0.8,0.1-1.7-0.1-2.5c-0.2-0.8-0.8-1.5-1.7-1.7c-0.8-0.2-1.8,0.4-1.8,1.3
							L331.4,342z"/>
					</g>
					<g>
						<path class="st17" d="M347.3,346c-1.3,1.7-2.1,3.7-2.4,5.8c0.8-0.1,1.6-0.7,2.2-1.2c0.7-0.5,1.4-1.1,2.3-1.1
							c0.9-0.1,1.8,0.5,1.8,1.4c-0.2-1,0-1.9,0.1-2.9c0.1-1,0.1-2-0.2-2.9c-0.4-0.9-1.2-1.7-2.2-1.6c-1,0.1-1.8,1.2-1.4,2.1
							L347.3,346z"/>
					</g>
					<g>
						<path class="st17" d="M303.5,351.7c-0.9,1.7-1.3,3.5-1.3,5.4c0-0.9,0.8-1.6,1.7-1.7c0.9-0.1,1.7,0.2,2.5,0.7
							c0.2-0.9,0.3-1.8,0.2-2.6s-0.8-1.7-1.7-1.8s-1.8,0.7-1.6,1.6c-0.1-0.2-0.2-0.4-0.3-0.7L303.5,351.7z"/>
					</g>
				</g>
				<path id="XMLID_5_" class="st18" d="M307.4,325.9c1.9-2.3,5.7-3.2,7.8-1.2c1.2,1.2,1.7,2.9,2,4.6c0.3,1.7,0.6,3.4,1.7,4.7
					c1.1,1.3,3.3,1.8,4.5,0.6c0.2,2.5,0.3,5,0.5,7.5c2.7-4.7,4.1-10,4-15.4c-0.1-2.6-0.4-5.3,0.2-7.8c0.6-2.5,2.6-5,5.2-5.1
					c2.9-0.1,5.2,2.7,5.7,5.5c0.6,2.8-0.1,5.8-0.3,8.6c-0.3,4.4,0.6,8.9,2.5,12.9c0.6-1.2,1.2-2.5,1.8-3.7c0.5,2.5,1.1,4.9,1.6,7.4
					c0.5-5.4,0.9-10.9,1.4-16.3c0.1-1.5,0.3-3.1,1-4.5c0.7-1.4,2.2-2.5,3.7-2.3c2.1,0.2,3.3,2.4,3.9,4.4c5.2,14.6,3,30.7,0.8,46
					c1.4,0.3,2.6-1.2,3-2.6c0.4-1.4,0.2-2.9,0.8-4.3c0.5-1.4,2.2-2.5,3.4-1.7c1.8,1.1,0.5,4.7,2.4,5.6c0.6-4.5,2.4-8.9,5.2-12.5
					c1.3-1.7,3.2-3.3,5.2-2.8c1.5,0.4,2.5,1.9,2.7,3.5c0.2,1.5,2.4-4.8,2.1-3.3c0.9-8.8-0.9-9.8,0-18.6c0.2-1.6,2.7-4.4,1.6-5.5
					c-1-1.1-4.2-2.7-5.6-2.1c-1.4,0.6-5.9,2.9-6.8,4.1c-5.6,7.8-5.3,19.1-7,28.5c-1.5-14.4-3-29.1-0.3-43.3c1.5-7.9,4.1-16,1.6-23.6
					c-1.2-3.5-4.2-6.9-7.8-6.3c-2.9,0.5-4.6,3.4-5.8,6.1c-4,9.1-5.7,18.9-7.4,28.6c2.2-9.8,4.3-19.6,6.5-29.4
					c0.6-2.5,1.1-5.2,0.7-7.7c-0.5-2.6-2.2-5.1-4.8-5.6c-2.5-0.5-5,1-7,2.7c-6.8,6.2-9.4,15.8-11.6,24.7c0.8-2.3,1.6-4.8,1.3-7.2
					c-0.2-2.5-1.8-5-4.2-5.5c-3.1-0.7-6,2.1-7.3,5c-1.4,2.9-2,6.2-4.2,8.5c-1.6-1.8-4.6-1.7-6.6-0.4c-2,1.3-3.2,3.5-4.2,5.7
					c-3.6,8.1-5.1,17-4.4,25.8c1.6-3.5,5.6-5.8,9.4-5.4c-0.2-2-0.5-3.9-0.7-5.9"/>
				<g class="st19">
					<g>
						<path class="st6" d="M314.9,344.6c-0.1,1.4-0.2,2.9-0.3,4.3c0.4-1.2,2.2-1.7,3.2-0.8c-0.2-0.9,0.4-1.8,0.7-2.7
							c0.4-0.9,0.4-2.1-0.4-2.5c-1-0.5-2,0.7-2.5,1.7c0-0.4-0.1-0.7-0.1-1.1L314.9,344.6z"/>
					</g>
					<g>
						<path class="st6" d="M331.4,342c-1.2,1.4-2,3-2.3,4.8c0.5-0.5,1-1,1.7-1.2c0.7-0.2,1.5-0.1,1.9,0.4c0.3,0.3,0.4,0.9,0.7,1.1
							c0.4,0.2,0.9,0,1.1-0.4c0.2-0.4,0.3-0.8,0.3-1.3c0.1-0.8,0.1-1.7-0.1-2.5c-0.2-0.8-0.8-1.5-1.7-1.7c-0.8-0.2-1.8,0.4-1.8,1.3
							L331.4,342z"/>
					</g>
					<g>
						<path class="st6" d="M347.3,346c-1.3,1.7-2.1,3.7-2.4,5.8c0.8-0.1,1.6-0.7,2.2-1.2c0.7-0.5,1.4-1.1,2.3-1.1
							c0.9-0.1,1.8,0.5,1.8,1.4c-0.2-1,0-1.9,0.1-2.9c0.1-1,0.1-2-0.2-2.9c-0.4-0.9-1.2-1.7-2.2-1.6c-1,0.1-1.8,1.2-1.4,2.1
							L347.3,346z"/>
					</g>
					<g>
						<path class="st6" d="M303.5,351.7c-0.9,1.7-1.3,3.5-1.3,5.4c0-0.9,0.8-1.6,1.7-1.7c0.9-0.1,1.7,0.2,2.5,0.7
							c0.2-0.9,0.3-1.8,0.2-2.6s-0.8-1.7-1.7-1.8s-1.8,0.7-1.6,1.6c-0.1-0.2-0.2-0.4-0.3-0.7L303.5,351.7z"/>
					</g>
				</g>
			</g>
			<g>
				<path class="st14" d="M292.2,424.7c2.7-7.5,4.7-13.5,4.7-13.9c0-0.7,4.7-8.4,4.7-8.4v-47.7l-1.6-7.4c-0.8-3.8-1.2-7.7-1.2-11.6
					c0-5.9,0.9-11.8,2.8-17.4l6.9-8.7h2.9l9.9-11.9c0,0,5-1.1,5.9,2.7c1,3.8-4.8,10.2-4.8,10.2l-2.7,11.2l3.5,10.9l2.2,1
					c0,0,2.2-18.6,1.9-22.3l6.1-16.6c0,0,3.3-5.5,4.4-8.2c1.1-2.8,6.4-5.2,9,0c0,0,1.4,2.7,0,6.1c-1.5,3.4-2.7,6.1-2.7,6.1
					s-2.2,14.3-2.6,14.7c-0.4,0.4,0.5,21.6,0.5,21.6l1.8,1l2.2-20l5.3-18.6c0,0,0.4-9.1,6.7-7.5c0,0,3-0.1,4.5,3.3
					c1.5,3.4-1.8,25-1.8,25l-0.1,22.6l1.2,17.5l3.9-11.6c0,0,1.5-17,12.3-17.6c0,0,3.2-0.3,3.7,1.9c0.5,2.3-2.1,6.6-2.1,11
					c0,3.1,0.2,6.5,0.3,8.3c0,0.8,0,1.6-0.3,2.4c-1,3.4-3.9,13.3-5.1,18.7c-1.4,6.6-13.9,26.6-13.9,26.6s-10.9,11.7-16.5,17.7
					c-2.8,3.1-7.9,16.2-12.3,28.4"/>
			</g>
			<path class="st3" d="M325.3,335.4c0.6,2.3,0,4.8-1.6,6.5"/>
			<path class="st3" d="M306.8,351.5c1.6-2.4,3.1-5.8,2.7-8.7c-0.8-5.6-3.4-12.1-2.2-17.7c0.7-3.6,1.5-7.1,2.2-10.7"/>
			<path class="st14" d="M352.6,298.3c1.9-0.5,3.9-0.5,5.7,0c0-0.5,0-1.1,0.1-1.6"/>
			<path class="st14" d="M337.5,291.1c1.1,0.8,2.6,0.9,3.8,0.3c1.2-0.6,2-2,1.9-3.3"/>
			<path class="st14" d="M379,330.9c-3.2,0.7-5.6,4-5.3,7.3c0.9,0.3,1.9,0.6,2.8,0.8"/>
			<path class="st3" d="M342.1,332.3c0.1,1.9-0.1,6.5,0,8.5"/>
			<path class="st3" d="M344.2,335c-0.2,3.2-0.5,6.3-0.7,9.5c0-0.4,0-0.8,0.1-1.2"/>
			<path class="st3" d="M361.7,361.6c0.8,3.5,0.5,7.2-1.1,10.4"/>
			<path class="st14" d="M332.6,345c-2.5,2.7-2.1,9.3-0.4,12.9"/>
			<path class="st14" d="M351.1,349.6c0.1,3-1,5.9-3.1,8.4"/>
			<path class="st14" d="M314.4,346.4c-0.4,2.8,0.2,5.7,1.7,8"/>
			<path class="st14" d="M303.7,354.9c-0.1,2.2,0.5,4.4,1.8,6.1"/>
			<path class="st14" d="M318.3,302c1.3-0.6,3-0.4,4,0.6c0.5-0.6,0.9-1.2,1.4-1.9"/>
			<path class="st14" d="M330.1,310.4c1.9-1.2,4.7-0.7,6.1,1"/>
			<path class="st14" d="M348.5,316.2c2-0.9,4.5-0.9,6.5,0.1"/>
			<path class="st14" d="M307.6,325.8c1.2-2.1,3.7-3.3,6-3"/>
			<path class="st14" d="M299.9,336.8c0-1.5,1.2-2.9,2.7-3.1"/>
		</g>
	</g>
	<g>
		<circle class="st20" cx="595.5" cy="206.8" r="47.6"/>
		<g>
			<g>
				<g>
					<path class="st2" d="M649.3,208c-10.1,16.6-13.7,14.4-48.3,31c-17.6,8.4-34.5-18.6-23-46.4c0.6-1.4,5.5-8.2,5.5-8.2
						c2.1-9.2,9.7-16.9,18.9-19c9.2-2.2,19.4,1.3,25.4,8.6c6.5-5.7,15.9-7.9,24.3-5.8c0.4,1.2,0.8,2.3,1.1,3.4
						c0.1,0.4,0.3,0.9,0.4,1.3c0.4,1.3,0.8,2.7,1.2,4c0.8,2.6,1.5,5.2,2.1,7.8c-3.8-1.1-7.7-1.1-11.3,0.7c-2.5,1.2-4.7,3.3-7.3,4.3
						c-2.6,1-6.3,0.4-7.3-2.2c1.3,5.3,6.8,3.7,12.2,4.8C651.5,193.8,653.6,201,649.3,208z"/>
				</g>
				<g>
					<path class="st21" d="M633.7,199.8c0,0,8.5-1.2,12.6-0.5c2.6,0.4,4.1,1.9,4.9,2.8c0.3,0.4,0.5,1,0.6,1.5l0.5,6.7
						c0.1,0.8-0.2,1.5-0.7,2.1c-1.7,1.7-6.7,4.9-21.5,6C609.1,219.9,633.7,199.8,633.7,199.8z"/>
					<g>
						<path class="st21" d="M627.5,182.6c2.4,3,7,9.7,7,20.2c0,7.9-9.2,35-32.7,38.3c-24.9,3.5-44.9-17.8-40.6-43.4
							C564.1,180,607.5,157.8,627.5,182.6z"/>
						<ellipse class="st6" cx="597.1" cy="201.1" rx="36.1" ry="34.2"/>
						<ellipse class="st8" cx="597" cy="202.9" rx="29.6" ry="28.1"/>
						<path class="st20" d="M633.2,201.1c0-18.9-16.2-34.2-36.1-34.2c-19.9,0-36.1,15.3-36.1,34.2"/>
						<path class="st20" d="M623.7,224.2c5.9-6.1,9.5-14.2,9.5-23.1"/>
						<path class="st20" d="M571.8,225.5c6.5,6.1,15.4,9.8,25.3,9.8c6,0,11.7-1.4,16.8-3.9"/>
						<path class="st20" d="M566.6,219.4c0.5,0.7,1,1.4,1.5,2.1"/>
						<path class="st20" d="M561,201.1c0,5.2,1.2,10.2,3.4,14.6"/>
					</g>
					<path class="st21" d="M650.1,210.4c0,0-6.4-4.5-16.9-0.4"/>
					<path class="st21" d="M644.5,213.6c-2.5,0.7-6.6,1.6-13.4,2.1"/>
					<path class="st21" d="M647.9,212.1c0,0-0.4,0.3-1.6,0.8"/>
				</g>
			</g>
			<g>
				<g>
					<path class="st6" d="M653.6,172.9c-0.1-0.4-0.3-0.9-0.4-1.3c-2.2-6.8-5-14.2-8.4-22.1c-0.6-1.5-1.3-2.9-2-4.4
						c-0.3,0-0.5,0-0.8,0.1c-3.3,0.3-6.8,0.7-9.5,2.6c-2.7,1.9-4.3,5.8-2.6,8.6c1.7,2.8,6.2,4.3,5.5,7.5c-7.4,4.1-16.3,3.7-24.5,5.7
						c-4.9,1.3-9.6,3.5-13.7,6.4c0,0,0,0,0,0c-1.3,1-2.5,2-3.7,3.1c-0.5,0.5-1.1,1-1.5,1.6c0,0,0,0,0,0c-0.7,0.9-1.2,1.8-1.3,2.9
						c-0.3,3.1,2.5,5.2,5.5,6.5c0.6,0.3,0.5,1,0,1.2c-1.9,0.8-3.8,1.7-5.4,3.1c0,0,0,0,0,0c-0.9,0.8-0.2,2.4,1.1,2.3
						c0.1,0,0.3,0,0.5,0c1.3-0.1,2.4,0.1,3.5,0.4c1.8,0.6,3,1.8,3.1,3.3c0.2,2.3-2.5,4.4-5.9,4.7c-0.8,0.1-0.2,1.1,1,1.3
						c2.4,0.4,4.9,0,7.3-0.6c2.9-0.7,6-1.7,7.6-4.2c0.7-1,0.9-2.4,0.7-3.6c-0.3-1.7-1.4-3.2-3.1-3.4c5.3-0.6,10.6-1.7,15.7-3.2h0
						l1.6-0.5c1.5-0.5,3.2-1,4.4-1.9c0.8-0.6,1.5-1.3,1.9-2.1c1.2-2.3-0.5-6-3-5.5c7.4-2.9,15.2-4.6,22.7-7.3
						C651.2,173.8,652.4,173.4,653.6,172.9z"/>
				</g>
			</g>
		</g>
	</g>
	<g>
		<path class="st21" d="M601.4,62.2L216.5,64l5.8-8.7c2.8-4.2,7.5-6.7,12.6-6.7h348.3c4.6,0,8.9,2.1,11.8,5.6L601.4,62.2z"/>
		<g>
			<g>
				<path class="st22" d="M420.7,219.4h-31.1c-18.9,0-34.2-15.3-34.2-34.2v-31.1c0-18.9,15.3-34.2,34.2-34.2h31.1
					c18.9,0,34.2,15.3,34.2,34.2v31.1C454.8,204.1,439.6,219.4,420.7,219.4z"/>
				<path class="st23" d="M373.5,178v14.1c0,4.4,3.6,8,8,8H430c4.4,0,8-3.6,8-8c0.1-6.4,0.4-14.2,0.4-14.2H373.5z"/>
				<g>
					<g>
						<path class="st24" d="M551,182.8H267.3c-3,0-5.7-1.8-6.8-4.6L216.8,65.9c-1.1-2.9,1-6.1,4.2-6.1h376.3c3.2,0,5.3,3.2,4.2,6.1
							l-43.7,112.3C556.6,180.9,554,182.8,551,182.8z"/>
						<polygon class="st8" points="553.1,173 264.6,173 224.9,66.9 592.6,66.9 						"/>
					</g>
				</g>
			</g>
			<rect x="373.8" y="182.6" class="st8" width="64.3" height="4.4"/>
			<g>
				<g>
					<path class="st5" d="M510.9,168.4H307.2c-1.1,0-2.2-0.5-2.4-1.1l-29-92.1c-0.3-1,0.6-1.9,2-1.9h262.4c1.4,0,2.3,0.8,2,1.9
						l-29,92.1C513.1,167.9,512,168.4,510.9,168.4z"/>
					<polygon class="st8" points="510.2,166.3 307.9,166.3 283.3,85.4 534.8,85.4 					"/>
					<g>
						<path class="st6" d="M337,105.5h-38.3c-0.9,0-1.6,0.5-1.4,1.1c0.2,0.6,1.1,1.1,2,1.1h38.1c0.9,0,1.6-0.5,1.5-1.1
							C338.8,106,337.9,105.5,337,105.5z"/>
						<path class="st6" d="M338.2,112.5h-32.6c-0.9,0-1.5,0.5-1.4,1.1c0.2,0.6,1,1.1,2,1.1h32.4c0.9,0,1.6-0.5,1.5-1.1
							C340,113,339.2,112.5,338.2,112.5z"/>
						<path class="st10" d="M339.5,119.3h-36.9c-0.9,0-1.5,0.5-1.3,1.1c0.2,0.6,1,1.1,1.9,1.1h36.7c0.9,0,1.6-0.5,1.5-1.1
							C341.2,119.7,340.4,119.3,339.5,119.3z"/>
						<path class="st6" d="M340.7,125.8H319c-0.9,0-1.5,0.5-1.4,1c0.1,0.6,1,1,1.9,1h21.6c0.9,0,1.5-0.5,1.4-1
							C342.4,126.2,341.6,125.8,340.7,125.8z"/>
						<path class="st6" d="M341.8,132.1h-35.7c-0.9,0-1.5,0.4-1.3,1c0.2,0.5,1,1,1.9,1h35.5c0.9,0,1.5-0.4,1.4-1
							C343.5,132.5,342.7,132.1,341.8,132.1z"/>
						<path class="st6" d="M343,138.2h-28.8c-0.9,0-1.5,0.4-1.3,1c0.1,0.5,1,1,1.8,1h28.7c0.9,0,1.5-0.4,1.4-1
							C344.6,138.6,343.8,138.2,343,138.2z"/>
						<path class="st6" d="M344,144h-28.4c-0.9,0-1.4,0.4-1.3,0.9c0.1,0.5,0.9,0.9,1.8,0.9h28.2c0.8,0,1.5-0.4,1.4-0.9
							C345.7,144.5,344.9,144,344,144z"/>
						<path class="st6" d="M345.1,149.7h-30.9c-0.8,0-1.4,0.4-1.3,0.9c0.1,0.5,0.9,0.9,1.8,0.9h30.8c0.8,0,1.4-0.4,1.4-0.9
							C346.7,150.1,345.9,149.7,345.1,149.7z"/>
						<path class="st10" d="M346.1,155.2h-20c-0.8,0-1.4,0.4-1.3,0.9c0.1,0.5,0.9,0.9,1.7,0.9h19.9c0.8,0,1.4-0.4,1.3-0.9
							C347.7,155.6,346.9,155.2,346.1,155.2z"/>
						<path class="st10" d="M335.6,98.3h-28.5c-1,0-1.6,0.5-1.4,1.2c0.2,0.6,1.1,1.2,2,1.2h28.4c1,0,1.6-0.5,1.5-1.2
							C337.5,98.8,336.6,98.3,335.6,98.3z"/>
						<path class="st6" d="M334.3,90.8h-39.7c-1,0-1.6,0.5-1.4,1.2c0.2,0.7,1.1,1.2,2.1,1.2h39.5c1,0,1.7-0.5,1.5-1.2
							C336.1,91.3,335.2,90.8,334.3,90.8z"/>
						<path class="st6" d="M347.1,160.6h-32.9c-0.8,0-1.4,0.4-1.2,0.8c0.1,0.5,0.9,0.8,1.7,0.8h32.8c0.8,0,1.4-0.4,1.3-0.8
							C348.6,161,347.9,160.6,347.1,160.6z"/>
						<polygon class="st10" points="350.4,108.1 357.8,108.1 357.5,105.2 350,105.2 						"/>
						<polygon class="st10" points="351.5,115 358.7,115 358.4,112.2 351,112.2 						"/>
						<polygon class="st10" points="352.5,121.6 359.6,121.6 359.3,119 352.1,119 						"/>
						<polygon class="st10" points="353.4,128.1 360.5,128.1 360.1,125.5 353,125.5 						"/>
						<polygon class="st10" points="354.4,134.3 361.3,134.3 361,131.8 354,131.8 						"/>
						<polygon class="st10" points="355.3,140.3 362.1,140.3 361.8,137.9 354.9,137.9 						"/>
						<polygon class="st10" points="356.1,146.1 362.8,146.1 362.5,143.8 355.8,143.8 						"/>
						<polygon class="st10" points="357,151.7 363.6,151.7 363.3,149.5 356.6,149.5 						"/>
						<polygon class="st10" points="357.8,157.2 364.3,157.2 364,155 357.5,155 						"/>
						<polygon class="st10" points="349.3,100.9 356.9,100.9 356.5,98 348.9,98 						"/>
						<polygon class="st10" points="348.2,93.5 355.9,93.5 355.5,90.4 347.8,90.4 						"/>
						<polygon class="st10" points="358.6,162.5 365,162.5 364.7,160.4 358.3,160.4 						"/>
						<path class="st6" d="M397.7,150.6c0-0.5,0.7-0.9,1.5-0.9h109.9c0.8,0,1.4,0.4,1.3,0.9c-0.1,0.5-0.9,0.9-1.8,0.9H399.3
							C398.4,151.5,397.7,151.1,397.7,150.6z"/>
						<path class="st6" d="M510.2,145.9h-60.9c-0.8,0-1.5-0.4-1.4-0.9c0.1-0.5,0.8-0.9,1.6-0.9h61.2c0.9,0,1.4,0.4,1.3,0.9
							C511.9,145.5,511.1,145.9,510.2,145.9z"/>
						<path class="st10" d="M434.9,145.9H416c-0.8,0-1.5-0.4-1.5-0.9c0-0.5,0.7-0.9,1.6-0.9h19c0.9,0,1.5,0.4,1.5,0.9
							C436.5,145.5,435.8,145.9,434.9,145.9z"/>
						<path class="st6" d="M474.4,140.1h-85.9c-0.9,0-1.6-0.4-1.6-1c0-0.5,0.6-1,1.5-1h86.3c0.9,0,1.5,0.4,1.4,1
							C476.1,139.6,475.3,140.1,474.4,140.1z"/>
						<path class="st10" d="M370.6,138.1h6.1c0.9,0,1.6,0.4,1.7,1c0,0.5-0.6,1-1.5,1h-6.1c-0.9,0-1.6-0.4-1.7-1
							C369.1,138.6,369.8,138.1,370.6,138.1z"/>
						<path class="st6" d="M486.9,133.1c-0.1,0.5-0.9,1-1.8,1h-80.9c-0.9,0-1.6-0.4-1.6-1c0-0.5,0.7-1,1.6-1h81.4
							C486.4,132.1,487,132.5,486.9,133.1z"/>
						<path class="st6" d="M370,132.1h23c0.9,0,1.6,0.4,1.6,1c0,0.5-0.7,1-1.5,1h-22.8c-0.9,0-1.6-0.4-1.7-1
							C368.4,132.5,369.1,132.1,370,132.1z"/>
						<path class="st6" d="M369.3,125.8h88.3c0.9,0,1.6,0.5,1.5,1c-0.1,0.6-0.9,1-1.8,1h-87.8c-0.9,0-1.7-0.5-1.7-1
							C367.7,126.2,368.4,125.8,369.3,125.8z"/>
						<path class="st6" d="M426.6,121.4c-0.9,0-1.6-0.5-1.6-1.1c0-0.6,0.8-1.1,1.7-1.1h46.6c0.9,0,1.6,0.5,1.5,1.1
							c-0.1,0.6-0.9,1.1-1.8,1.1H426.6z"/>
						<path class="st6" d="M368.6,119.3h40.3c0.9,0,1.6,0.5,1.6,1.1c0,0.6-0.7,1.1-1.6,1.1h-40.1c-0.9,0-1.7-0.5-1.8-1.1
							C367,119.7,367.7,119.3,368.6,119.3z"/>
						<path class="st6" d="M519.2,114.7H408.2c-0.9,0-1.7-0.5-1.7-1.1c0-0.6,0.7-1.1,1.7-1.1h111.6c0.9,0,1.5,0.5,1.4,1.1
							C521,114.2,520.1,114.7,519.2,114.7z"/>
						<path class="st6" d="M521.2,107.8h-97.6c-0.9,0-1.7-0.5-1.7-1.1c0-0.6,0.8-1.1,1.7-1.1h98.2c0.9,0,1.6,0.5,1.4,1.1
							C523,107.3,522.1,107.8,521.2,107.8z"/>
						<path class="st10" d="M523.2,100.6h-20.4c-1,0-1.6-0.5-1.5-1.2c0.2-0.7,1.1-1.2,2-1.2h20.6c1,0,1.6,0.5,1.4,1.2
							C525.1,100.1,524.2,100.6,523.2,100.6z"/>
						<path class="st6" d="M488.5,100.6h-75.1c-1,0-1.7-0.5-1.7-1.2c0-0.7,0.8-1.2,1.8-1.2H489c1,0,1.6,0.5,1.5,1.2
							C490.3,100.1,489.4,100.6,488.5,100.6z"/>
						<path class="st6" d="M372.5,155.2h69.3c0.8,0,1.5,0.4,1.4,0.9c0,0.5-0.8,0.9-1.6,0.9h-69c-0.8,0-1.5-0.4-1.6-0.9
							C371,155.6,371.6,155.2,372.5,155.2z"/>
						<path class="st6" d="M373,160.6h106.5c0.8,0,1.4,0.4,1.3,0.8c-0.1,0.5-0.8,0.8-1.6,0.8h-106c-0.8,0-1.5-0.4-1.6-0.8
							C371.6,161,372.2,160.6,373,160.6z"/>
						<path class="st6" d="M484.8,93.2h-54.2c-1,0-1.7-0.5-1.7-1.2c0-0.7,0.9-1.2,1.8-1.2h54.5c1,0,1.7,0.5,1.5,1.2
							C486.6,92.7,485.7,93.2,484.8,93.2z"/>
						<path class="st10" d="M415.2,93.2h-49.3c-1,0-1.8-0.5-1.9-1.2c-0.1-0.7,0.7-1.2,1.6-1.2h49.6c1,0,1.8,0.5,1.8,1.2
							C416.9,92.7,416.1,93.2,415.2,93.2z"/>
						<path class="st10" d="M457.2,155.2c0.8,0,1.4,0.4,1.4,0.9c-0.1,0.5-0.8,0.9-1.6,0.9h-5.4c-0.8,0-1.4-0.4-1.4-0.9
							c0.1-0.5,0.8-0.9,1.6-0.9H457.2z"/>
						<path class="st10" d="M391.4,150.6c0,0.5-0.6,0.9-1.5,0.9h-7.3c-0.8,0-1.5-0.4-1.6-0.9c0-0.5,0.6-0.9,1.4-0.9h7.3
							C390.7,149.7,391.4,150.1,391.4,150.6z"/>
						<path class="st10" d="M479.5,126.8c-0.1,0.6-0.9,1-1.8,1h-8.5c-0.9,0-1.5-0.5-1.5-1c0.1-0.6,0.9-1,1.8-1h8.6
							C478.9,125.8,479.6,126.2,479.5,126.8z"/>
						<path class="st10" d="M506.1,132.1c0.9,0,1.5,0.4,1.3,1c-0.1,0.5-1,1-1.9,1h-6.8c-0.9,0-1.5-0.4-1.3-1c0.1-0.5,1-1,1.8-1
							H506.1z"/>
						<path class="st10" d="M394.8,114.7c-0.9,0-1.7-0.5-1.7-1.1c0-0.6,0.7-1.1,1.6-1.1h7.2c0.9,0,1.7,0.5,1.7,1.1
							c0,0.6-0.7,1.1-1.7,1.1H394.8z"/>
					</g>
				</g>
				<g>
					<path class="st6" d="M296.2,79.4c0.6,1.9-0.5,3.4-2.4,3.4c-1.9,0-3.9-1.5-4.5-3.4c-0.6-1.9,0.5-3.5,2.4-3.5
						C293.6,75.9,295.6,77.5,296.2,79.4z"/>
					<path class="st6" d="M305.5,79.4c0.5,1.9-0.6,3.4-2.5,3.4c-1.9,0-3.9-1.5-4.4-3.4c-0.6-1.9,0.6-3.5,2.5-3.5
						C303.1,76,305,77.5,305.5,79.4z"/>
					<path class="st6" d="M315,79.4c0.4,1.9-0.7,3.4-2.6,3.4c-1.9,0-3.8-1.5-4.3-3.4c-0.5-1.9,0.7-3.5,2.6-3.5
						C312.6,75.9,314.6,77.5,315,79.4z"/>
				</g>
			</g>
			<g>
				<polygon class="st25" points="224.9,66.9 255.8,149.5 293.1,66.9 				"/>
				<polygon class="st25" points="277,173 338.9,66.9 403.7,66.9 312.6,173 				"/>
				<polygon class="st25" points="431.6,66.4 335.1,173 350,173 449.9,66.9 				"/>
				<polygon class="st25" points="450.6,173 556.6,66.9 571.6,66.9 462.3,173 				"/>
			</g>
		</g>
	</g>
	<g>
		<g>
			<g>
				<g>
					<path class="st21" d="M306.9,219h-24.2c-3.1,0-5.7,2.5-5.7,5.7v11.8c0,3.1,2.5,5.7,5.7,5.7h6.3l4.8,10.9l6.8-10.9h6.3
						c3.1,0,5.7-2.5,5.7-5.7v-11.8C312.6,221.6,310.1,219,306.9,219z"/>
				</g>
			</g>
			<g>
				<path class="st8" d="M291.5,225.8c0-0.6,0.5-1.1,1.2-1.1c0.7,0,1.2,0.5,1.2,1.1c0,0.6-0.5,1.2-1.2,1.2
					C292,226.9,291.5,226.4,291.5,225.8z M291.7,228.2h1.8v7.9h-1.8V228.2z"/>
				<path class="st8" d="M298,227.8v0.5h2.2v1.5h-2.1v6.3h-1.8v-6.3h-1.3v-1.5h1.3v-0.5c0-1.7,1-2.7,2.8-2.7c0.6,0,1.3,0.1,1.7,0.4
					l-0.5,1.4c-0.3-0.2-0.6-0.3-1-0.3C298.4,226.5,298,226.9,298,227.8z"/>
			</g>
		</g>
		<g>
			<g>
				<g>
					<path class="st21" d="M380.6,220.7h-24.2c-3.1,0-5.7,2.5-5.7,5.7v11.8c0,3.1,2.5,5.7,5.7,5.7h6.3l4.8,10.9l6.8-10.9h6.3
						c3.1,0,5.7-2.5,5.7-5.7v-11.8C386.3,223.2,383.7,220.7,380.6,220.7z"/>
				</g>
			</g>
			<g>
				<path class="st8" d="M361.5,234.3h-6.2c0.2,1.1,1.2,1.9,2.5,1.9c0.9,0,1.6-0.3,2.1-0.9l1,1.1c-0.7,0.8-1.8,1.3-3.2,1.3
					c-2.6,0-4.3-1.7-4.3-4c0-2.3,1.7-4,4.1-4c2.3,0,4,1.6,4,4.1C361.5,233.9,361.5,234.2,361.5,234.3z M355.3,233.1h4.5
					c-0.1-1.1-1-1.9-2.2-1.9C356.3,231.2,355.5,232,355.3,233.1z"/>
				<path class="st8" d="M363.3,226.8h1.8v10.9h-1.8V226.8z"/>
				<path class="st8" d="M366.6,236.9l0.7-1.4c0.7,0.5,1.8,0.8,2.7,0.8c1.2,0,1.7-0.3,1.7-0.9c0-1.5-4.9-0.1-4.9-3.2
					c0-1.5,1.3-2.5,3.5-2.5c1,0,2.2,0.3,2.9,0.7l-0.7,1.4c-0.8-0.4-1.5-0.6-2.3-0.6c-1.1,0-1.7,0.4-1.7,0.9c0,1.6,4.9,0.2,4.9,3.3
					c0,1.5-1.4,2.4-3.6,2.4C368.6,237.8,367.3,237.4,366.6,236.9z"/>
				<path class="st8" d="M382.5,234.3h-6.2c0.2,1.1,1.2,1.9,2.6,1.9c0.9,0,1.6-0.3,2.1-0.9l1,1.1c-0.7,0.8-1.8,1.3-3.2,1.3
					c-2.6,0-4.3-1.7-4.3-4c0-2.3,1.7-4,4.1-4c2.3,0,4,1.6,4,4.1C382.5,233.9,382.5,234.2,382.5,234.3z M376.3,233.1h4.5
					c-0.1-1.1-1-1.9-2.2-1.9C377.3,231.2,376.5,232,376.3,233.1z"/>
			</g>
		</g>
		<g>
			<g>
				<g>
					<path class="st21" d="M452,220h-24.2c-3.1,0-5.7,2.5-5.7,5.7v11.8c0,3.1,2.5,5.7,5.7,5.7h6.3l4.8,10.9l6.8-10.9h6.3
						c3.1,0,5.7-2.5,5.7-5.7v-11.8C457.7,222.5,455.2,220,452,220z"/>
				</g>
			</g>
			<g>
				<path class="st8" d="M433.4,228.7v0.5h2.2v1.5h-2.1v6.3h-1.8v-6.3h-1.3v-1.5h1.3v-0.5c0-1.7,1-2.7,2.8-2.7
					c0.6,0,1.3,0.1,1.7,0.4l-0.5,1.4c-0.3-0.2-0.6-0.3-1-0.3C433.8,227.4,433.4,227.9,433.4,228.7z"/>
				<path class="st8" d="M436,233.1c0-2.4,1.8-4,4.2-4c2.4,0,4.2,1.7,4.2,4c0,2.4-1.8,4-4.2,4C437.8,237.1,436,235.4,436,233.1z
					 M442.5,233.1c0-1.5-1-2.5-2.3-2.5c-1.3,0-2.3,1-2.3,2.5c0,1.5,1,2.5,2.3,2.5C441.5,235.5,442.5,234.6,442.5,233.1z"/>
				<path class="st8" d="M450.7,229v1.8c-0.2,0-0.3,0-0.4,0c-1.4,0-2.3,0.8-2.3,2.4v3.8h-1.8v-7.9h1.8v1.2
					C448.4,229.4,449.4,229,450.7,229z"/>
			</g>
		</g>
		<g>
			<g>
				<g>
					<path class="st21" d="M522.4,219h-24.2c-3.1,0-5.7,2.5-5.7,5.7v11.8c0,3.1,2.5,5.7,5.7,5.7h6.3l4.8,10.9l6.8-10.9h6.3
						c3.1,0,5.7-2.5,5.7-5.7v-11.8C528.1,221.6,525.6,219,522.4,219z"/>
				</g>
			</g>
			<g>
				<path class="st8" d="M507.2,227.8h6.8v1.5h-6.8V227.8z M507.2,231.4h6.8v1.5h-6.8V231.4z"/>
			</g>
		</g>
		<g>
			<g>
				<g>
					<path class="st21" d="M343.8,205.4h-24.2c-3.1,0-5.7,2.5-5.7,5.7v11.8c0,3.1,2.5,5.7,5.7,5.7h6.3l4.8,10.9l6.8-10.9h6.3
						c3.1,0,5.7-2.5,5.7-5.7v-11.8C349.5,208,347,205.4,343.8,205.4z"/>
				</g>
			</g>
			<g>
				<path class="st8" d="M326,210.3h3.5v1.5h-1.7v10.8h1.7v1.5H326V210.3z"/>
				<path class="st8" d="M334.1,224.1v-1.5h1.7v-10.8h-1.7v-1.5h3.5v13.8H334.1z"/>
			</g>
		</g>
		<g>
			<g>
				<g>
					<path class="st21" d="M415.8,204.2h-24.2c-3.1,0-5.7,2.5-5.7,5.7v11.8c0,3.1,2.5,5.7,5.7,5.7h6.3l4.8,10.9l6.8-10.9h6.3
						c3.1,0,5.7-2.5,5.7-5.7v-11.8C421.5,206.7,418.9,204.2,415.8,204.2z"/>
				</g>
			</g>
			<g>
				<path class="st8" d="M398.7,215.9c0.6,0.2,0.9,0.6,0.9,1.5v2.8c0,0.7,0.4,1.1,1.1,1.1h0.3v1.5h-0.7c-1.7,0-2.5-0.8-2.5-2.4v-3
					c0-0.5-0.3-0.7-0.7-0.7h-0.5v-1.5h0.5c0.4,0,0.7-0.2,0.7-0.7v-3c0-1.6,0.8-2.4,2.5-2.4h0.7v1.5h-0.3c-0.7,0-1.1,0.4-1.1,1.1v2.8
					C399.6,215.4,399.3,215.8,398.7,215.9z"/>
				<path class="st8" d="M410,215.2v1.5h-0.5c-0.4,0-0.6,0.2-0.6,0.7v3c0,1.6-0.9,2.4-2.5,2.4h-0.7v-1.5h0.3c0.8,0,1.1-0.4,1.1-1.1
					v-2.8c0-0.9,0.3-1.3,0.9-1.5c-0.6-0.2-0.9-0.6-0.9-1.5v-2.8c0-0.7-0.4-1.1-1.1-1.1h-0.3V209h0.7c1.7,0,2.5,0.8,2.5,2.4v3
					c0,0.5,0.3,0.7,0.6,0.7H410z"/>
			</g>
		</g>
		<g>
			<g>
				<g>
					<path class="st21" d="M487,201.8h-24.2c-3.1,0-5.7,2.5-5.7,5.7v11.8c0,3.1,2.5,5.7,5.7,5.7h6.3l4.8,10.9l6.8-10.9h6.3
						c3.1,0,5.7-2.5,5.7-5.7v-11.8C492.7,204.4,490.1,201.8,487,201.8z"/>
				</g>
			</g>
			<g>
				<path class="st8" d="M473.9,210.5c0-0.7,0.5-1.2,1.2-1.2c0.7,0,1.2,0.5,1.2,1.2c0,0.7-0.5,1.2-1.2,1.2
					C474.4,211.8,473.9,211.2,473.9,210.5z M476.3,216.1c0,0.3-0.1,0.6-0.3,1.3l-0.8,2.1H474l0.6-2.3c-0.4-0.2-0.7-0.6-0.7-1.1
					c0-0.7,0.5-1.2,1.2-1.2C475.8,214.9,476.3,215.4,476.3,216.1z"/>
			</g>
		</g>
		<g>
			<g>
				<g>
					<path class="st21" d="M392.3,407.7h24.2c3.1,0,5.7-2.5,5.7-5.7v-11.8c0-3.1-2.5-5.7-5.7-5.7h-6.3l-1.8-10.9l-9.7,10.9h-6.3
						c-3.1,0-5.7,2.5-5.7,5.7V402C386.6,405.1,389.2,407.7,392.3,407.7z"/>
				</g>
			</g>
			<g>
				<path class="st8" d="M400.8,393.7l-5.1,1.9l5.1,1.9v1.5l-6.8-2.6v-1.6l6.8-2.6V393.7z"/>
				<path class="st8" d="M406.2,388.3h1.7l-4.9,13.9h-1.7L406.2,388.3z"/>
				<path class="st8" d="M415,394.8v1.6l-6.8,2.6v-1.5l5.1-1.9l-5.1-1.9v-1.5L415,394.8z"/>
			</g>
		</g>
		<g>
			<g>
				<g>
					<g>
						<path class="st21" d="M238.5,321.9h24.2c3.1,0,5.7-2.5,5.7-5.7v-11.8c0-3.1-2.5-5.7-5.7-5.7h-6.3l1.4-10.9l-12.9,10.9h-6.3
							c-3.1,0-5.7,2.5-5.7,5.7v11.8C232.8,319.4,235.3,321.9,238.5,321.9z"/>
					</g>
				</g>
			</g>
			<g>
				<path class="st8" d="M245.6,314.5c0-0.6,0.5-1.1,1.2-1.1c0.7,0,1.2,0.5,1.2,1.1c0,0.6-0.5,1.1-1.2,1.1
					C246.1,315.6,245.6,315.1,245.6,314.5z M245.7,305.2h2.2l-0.4,6.9h-1.5L245.7,305.2z"/>
				<path class="st8" d="M249.8,307.8h6.8v1.5h-6.8V307.8z M249.8,311.4h6.8v1.5h-6.8V311.4z"/>
			</g>
		</g>
	</g>
	<g>
		<g>
			<g>
				<g>
					<defs>
						<path id="XMLID_1_" d="M626,308.6c0,4.7-0.4,9.3-1.1,13.6c-3.3,19.9-13.8,34.3-26.1,34.3c-1.1,0-2.2-0.1-3.3-0.3
							c-13.5-2.9-23.9-23.1-23.9-47.6c0-26.5,12.2-35.8,27.2-35.8C613.8,272.7,626,282.1,626,308.6z"/>
					</defs>
					<use xlink:href="#XMLID_1_"  style="overflow:visible;fill:#FFFFFF;"/>
					<clipPath id="XMLID_8_">
						<use xlink:href="#XMLID_1_"  style="overflow:visible;"/>
					</clipPath>
					<g class="st26">
						<path class="st5" d="M616.1,308.9c1,14.2-1.4,28.5-5.5,42.1c10.3-8.4,15-21.7,19.2-34.2c3.1-9.1,6.2-18.5,5.7-28.1
							c-0.6-9.6-5.7-19.6-14.7-23c-4.4-1.6-9.5-1.5-13.9,0.2c-7.6,3-3.4,5.5-0.2,10.9C612.3,286.5,615.3,297.7,616.1,308.9z"/>
						<path class="st10" d="M616.1,308.9c1,14.2-1.4,28.5-5.5,42.1c10.3-8.4,15-21.7,19.2-34.2c3.1-9.1,6.2-18.5,5.7-28.1
							c-0.6-9.6-5.7-19.6-14.7-23c-4.4-1.6-9.5-1.5-13.9,0.2c-7.6,3-3.4,5.5-0.2,10.9C612.3,286.5,615.3,297.7,616.1,308.9z"/>
					</g>
					<use xlink:href="#XMLID_1_"  style="overflow:visible;fill:none;stroke:#1A2E35;stroke-miterlimit:10;"/>
				</g>
				<g>
					<path class="st3" d="M613.4,332.9c-1.8,6.1-4.8,11.9-8.9,16.7"/>
					<path class="st14" d="M614.3,329.6c-0.1,0.6-0.3,1.3-0.5,1.9"/>
					<path class="st3" d="M614.2,308.5c1.5,6.1,1.6,12.5,0.5,18.7"/>
				</g>
				<path class="st14" d="M571.6,308.6c0,0,30.9-12.2,54.4,0"/>
				<path class="st3" d="M598.8,272.7c0,0,3.1,11.5,3.5,30.1"/>
				<path class="st24" d="M603.1,286.7c0.4,3.6-0.2,6.6-1.4,6.8c-1.2,0.2-2.4-2.6-2.8-6.1c-0.4-3.6,0.2-6.6,1.4-6.8
					C601.4,280.4,602.7,283.1,603.1,286.7z"/>
			</g>
		</g>
		<path class="st14" d="M586.6,365.7h-36.3c-4.5,0-8.2-3.4-8.8-7.7c-0.1-0.4-0.1-0.8-0.1-1.2v-85.6c0-0.4,0-0.8,0.1-1.2
			c0.6-4.3,4.3-7.7,8.8-7.7h102.9c1.6,0,3,0.4,4.3,1.1"/>
	</g>
</g>
</svg>
